<svg xmlns="http://www.w3.org/2000/svg" width="512" height="512" viewBox="0 0 512 512"><g fill="red"><path d="M437 0H75C33.6 0 0 33.6 0 75v362c0 41.4 33.6 75 75 75h362c41.4 0 75-33.6 75-75V75c0-41.4-33.6-75-75-75zM257 390c-74.4 0-135-60.6-135-135s60.6-135 135-135 135 60.6 135 135-60.6 135-135 135zm150-240c-24.8 0-45-20.2-45-45s20.2-45 45-45 45 20.2 45 45-20.2 45-45 45z"/><path d="M407 90c-8.3 0-15 6.7-15 15s6.7 15 15 15 15-6.7 15-15-6.7-15-15-15zm-150 60c-57.9 0-105 47.1-105 105s47.1 105 105 105 105-47.1 105-105-47.1-105-105-105z"/></g></svg>