<?xml version="1.0" encoding="utf-8"?>
<!-- Generator: Adobe Illustrator 23.0.1, SVG Export Plug-In . SVG Version: 6.00 Build 0)  -->
<svg version="1.1" id="Layer_1" xmlns="http://www.w3.org/2000/svg" xmlns:xlink="http://www.w3.org/1999/xlink" x="0px" y="0px"
	 viewBox="0 0 500 500" style="enable-background:new 0 0 500 500;" xml:space="preserve">
<style type="text/css">
	.st0{fill:#FFFFFF;}
	.st1{fill:#E0A882;}
	.st2{fill:#F9D750;}
	.st3{fill:none;}
	.st4{fill:#BC8E6F;}
	.st5{fill:#730000;}
	.st6{fill:#820D1A;}
	.st7{fill:#C14250;}
	.st8{fill:#241515;}
	.st9{opacity:0.5;fill:#CDB140;enable-background:new    ;}
	.st10{fill:#CDB140;}
	.st11{fill:#BA9175;}
	.st12{fill:#FF0000;}
	.st13{fill:#B7B7B7;}
</style>
<polygon points="372.4,228.4 408.3,223.8 452.7,215.2 470.1,204.4 423.7,163.1 275.5,21 42.9,194.3 49.2,204.1 83.5,217 
	131.7,222.5 143.8,224.1 139.4,241.9 135.5,262.4 133,279.6 136.2,305.3 151.1,324.3 161.7,339.2 169.7,350.4 180.5,357.6 
	193.5,360.7 211.8,360.7 229.7,355.5 249.1,346.9 276,331.2 303.8,314.7 316.2,304.2 328,288 341.3,261 362.5,252.1 372.8,243.7 
	376.3,236.3 373.7,230.4 "/>
<path class="st0" d="M184.5,238.3l2.9,4.4l-5.6,0.1L184.5,238.3z"/>
<path class="st1" d="M246.8,336c0.2-7.5,0-15.1-0.7-22.6c-0.8,1-1.6,2-2.4,3c-42.6,51.9-61.4,30.5-60.2,20.3
	c0.9-7.6-0.2-21.3-0.5-24.3c-11.7-1.5-11.6-6.7-11-20.4l-3.6-1c-4.6,6.6-7.4,22.1-9.1,40.7c0.1,0.1,0.1,0.2,0.2,0.3
	c0.5,1.1,1.1,2.1,1.7,3.1c6.7,11.6,15.1,18.3,24.4,21.7c-0.1-1.9-0.1-3.8-0.2-5.7l1,1l0.9-1.8c0,0,3.8,2.3,4.2,4.2
	c0.6-1.3,1.5-2.5,2.4-3.6c1.3,1.6,2.2,3.4,2.6,5.4c0,0,0.9-4.1,1.4-4.5c0.6,0.9,1.2,1.8,1.6,2.9c0.8-1.2,1.7-2.2,2.6-3.3l1.1,1
	l0.9,0.9c0.2-0.4,0.5-0.9,0.7-1.3c0.2-0.3,0.4-0.5,0.5-0.5l0.3,0.3c0.8,0.9,1.4,1.9,1.9,3c0,0,3.5-2.1,4.6-1.2l-0.3,5.5
	c0.9-0.1,1.8-0.3,2.9-0.5l0.6-0.1c2.5-0.6,4.9-1.3,7.2-2.2h0.1c8.2-3,16.2-6.6,23.9-10.5C246.7,342.4,246.8,339.1,246.8,336
	L246.8,336z"/>
<path class="st2" d="M158.2,157.6l-4.8,0.5c-0.4,1.2-0.8,2.7-1.3,4.3C154,160.6,156,159,158.2,157.6z"/>
<path class="st1" d="M174.9,278c1.4-0.1,2.8,0,4.2,0.2c-18.5-9.3,3.5-24.6,6.6-24.6c0.2-0.4,0.3-1,0.5-1.5c0.5-1.7,1.1-3.9,1.7-6.5
	c0.1-0.5,0.2-1.1,0.4-1.7c-5.2,1.3-31.2,6.6-44-14.5c-2,6.6-5,16.4-8,37.7c-3.9,32.8,7.6,46,7.6,46l0.2,0.2v0c3.3,2.9,6.5,6,9.4,9.3
	C156.8,297.6,163.5,278.8,174.9,278L174.9,278z M157.8,220.7c-3.5,0.1-7.5,2.9-7.5,2.9c19.1,0.3,28.5,8.2,28.5,8.2
	c-3.2-5.5-8.4-9.6-14.5-11.4c6.6-1.3,14.9,3.4,18.6,10.5c1.6,3.3,3.7,6.4,6.2,9.1c0.4-2.4,0.7-4.8,1-7.5c1.9-19.6-1-45.6-24.5-54.7
	c-5.4-2-11-3.1-16.8-3.2c-0.9,3.7-1.7,7.4-2.2,10.4c-0.1,0.4-0.1,0.8-0.2,1.2s-0.1,0.9-0.1,1.3v0.6c-0.1,0.6-0.1,1.2-0.1,1.7v0.4
	c0,0.5,0.1,1,0.2,1.6c0.5,2.6,0.8,5.2,0.9,7.8v0.7c0.1,1.2,0.1,2.5,0.1,3.7c0,1.3,0,2.5-0.1,3.7v0.5c-0.1,1.3-0.1,2.7-0.3,3.9v0.1
	c-0.3,3.8-0.8,7.3-1.3,10.1C150.4,220.1,157.8,220.7,157.8,220.7z"/>
<path class="st1" d="M373.6,235.8c-0.1-0.3-0.1-0.5-0.3-0.7V235c-0.1-0.3-0.3-0.5-0.5-0.7c-0.1-0.1-0.3-0.3-0.4-0.4
	c-0.2-0.2-0.5-0.4-0.7-0.6c-0.4-0.3-0.8-0.5-1.2-0.7c-0.1,0-0.3-0.1-0.4-0.1c-0.3-0.1-0.5-0.2-0.8-0.3l-0.5-0.1
	c-0.3-0.1-0.5-0.1-0.8-0.1h-1.9c-0.3,0-0.5,0-0.8,0.1l-0.6,0.1l-0.8,0.1l-0.6,0.1l-0.8,0.2l-0.6,0.2l-0.8,0.3
	c-0.2,0.1-0.4,0.2-0.6,0.3s-0.5,0.2-0.8,0.4L359,234c-0.3,0.1-0.5,0.3-0.8,0.4l-0.6,0.4l-0.8,0.5l-0.6,0.4l-0.8,0.5l-0.6,0.4
	l-0.8,0.6l-0.6,0.4l-0.9,0.6l-0.5,0.4c-0.3,0.2-0.6,0.5-0.9,0.7l-0.4,0.3l-1.3,1.1l-0.1,0.1c-0.7,0.6-1.4,1.2-2.1,1.9l-0.1,0.1
	c-0.7,0.6-1.3,1.3-2,1.9l-0.2,0.1c-0.6,0.6-1.2,1.2-1.7,1.7l-0.2,0.2c-0.5,0.6-1,1.1-1.5,1.6l-0.1,0.2l-1.2,1.3l-0.1,0.1
	c-0.4,0.4-0.7,0.7-0.9,1l-0.1,0.1l-0.6,0.7l-0.2,0.2c-0.1-1.7-1-1.6-1-1.6l-10.3-1.4l-0.5-0.1v-9.6c0,0,1.5-4.5,3.6-10.9
	c0.3-0.9,0.6-1.9,1-3c0-0.1,0.1-0.3,0.1-0.4c0.1-0.4,0.3-0.8,0.4-1.2l0.2-0.8c0.3-0.8,0.5-1.6,0.8-2.5c0.1-0.2,0.1-0.4,0.2-0.5
	c0.2-0.6,0.4-1.3,0.6-1.9l0.2-0.7l0.1-0.5c0.4-1.1,0.7-2.2,1.1-3.3l0.1-0.4l0.4-1.3c0.4-1.1,0.7-2.3,1.1-3.4
	c0.2-0.5,0.3-1.1,0.5-1.6l0.1-0.5l0.3-1.1c0.2-0.5,0.3-1.1,0.5-1.6c0.1-0.2,0.1-0.4,0.2-0.6c0.1-0.4,0.2-0.9,0.4-1.3l0.5-1.6
	c0-0.1,0-0.1,0-0.2c0.3-0.9,0.5-1.8,0.8-2.7l0.1-0.6c0.2-0.9,0.5-1.7,0.7-2.5l0.1-0.3c0.2-0.7,0.4-1.4,0.5-2.1
	c0.1-0.2,0.1-0.4,0.2-0.6c0.2-0.7,0.4-1.4,0.5-2.1v-0.1c0.1-0.6,0.2-1.2,0.4-1.7l0.1-0.4c0.1-0.6,0.2-1.1,0.2-1.5
	c0-0.2-0.1-0.4-0.1-0.7c-10.7-2-21-3.7-30.9-5c6.5-0.4,10.4-0.4,10.4-0.4c-10.9-12.2-36.5-21.1-36.5-21.1
	c-15.6,2.3-30.6,7.5-44.2,15.3c-19.1-0.6-38.2,0-57.2,1.9c10.5,26.1,12.1,55,4.3,82c0,0-23.4,5.3-8.4,18.6c0,0-1.3-4,0.7-7.3
	c0,0,4.6,11,9.2,13.3c-2.1-0.5-4.3-1.1-6.3-1.8c2.6,1.8,3.5,4.5,1.9,7.1c-3,4.6-11.6,0.4-11.6,0.4c-1,0-1.9,0.3-2.7,0.9
	c4.3,1.1,25.2,6,57.8,1.5c-4.3-0.5-8.7-0.4-13,0.2c-8.3,0.8-9.9-4.2-5.1-7.4s23.2-2.1,23.2-2.1c4.1,0.9,7.6,3.2,10.1,6.6
	c9.6-2,19.1-4.6,28.4-7.7c-5.6-1-9.3-4.8-2.4-6s15.9,1.9,17.4,8.5c-3.7-3.7-8.9-5.4-14.1-4.7c0,0,7,3.8-7.1,7.7
	c-4.9,7.6-9.6,14.3-14,20.3l-0.4,0.6c1.7,8.4,2.6,17,2.7,25.5c0.1,3.4,0.1,6.8,0.1,10.3l0.7-0.4c2.4-1.3,4.9-2.6,7.3-4l0.4-0.2
	l3.2-1.8l0.9-0.5l2.6-1.5l1.1-0.6l2.4-1.4l1.1-0.7l2.3-1.3l1.1-0.7l2.2-1.3l1.1-0.7l2.1-1.2l1.2-0.7l2-1.2c0.4-0.2,0.7-0.5,1.1-0.7
	l1.9-1.2l1.1-0.7l1.8-1.2l1-0.6l1.7-1.1l1-0.6l1.6-1.1l0.9-0.6l1.6-1.1l0.7-0.5l1.6-1.1l0.5-0.4c0.7-0.5,1.3-0.9,1.9-1.3
	c18.2-13.1,36-53.1,36-53.1l0.2-0.1l0.1,0l0.9-0.4h0.1c0.8-0.4,1.9-0.8,3.3-1.5l0.1,0l2.2-1l0.2-0.1c1.6-0.8,3.4-1.6,5.3-2.6h0.1
	c0.9-0.5,1.9-0.9,2.8-1.4l0.2-0.1c1.9-1,3.9-2.1,5.7-3.2c0.9-0.6,1.8-1.1,2.6-1.7l0.2-0.1c0.8-0.6,1.6-1.1,2.4-1.7
	c0.8-0.6,1.5-1.2,2.2-1.7c0.6-0.6,1.2-1.1,1.7-1.7l0.2-0.2c0.5-0.5,0.9-1,1.3-1.6l0.1-0.1c0.3-0.5,0.6-1,0.8-1.6
	C373.7,237.2,373.8,236.5,373.6,235.8L373.6,235.8z M216.4,192.9c1.6,0.4,8.4,1.8,19.5-1.3c12-3.4,24.3-6.1,36.7-8
	c-15.5,5.5-56.1,23.2-61.3,59.4C211.3,243,207,211.9,216.4,192.9z M313.7,237.3c-10.8-10-25.1-13.9-25.1-13.9c2,1,3.8,2.4,5.3,4
	c-5.6-3.2-11.7-5.7-17.9-7.5l0.4,0.1c-27.4-10.1-48.4,7.1-53.6,14.2c-0.6,1-1.3,2-2,3c15.8-27.8,55.9-34.2,96.3-5.4
	C319.6,234.6,316.7,237,313.7,237.3L313.7,237.3z"/>
<path class="st3" d="M315.2,154.6c0,0,85.1,14,128.3,30.8L322,70.1l-47.3-44.5l-66.6,46L63.2,178.1c60.2-26.5,139.6-28.6,139.6-28.6
	C242.1,147.1,315.2,154.6,315.2,154.6z"/>
<path class="st3" d="M368.9,170.9c0,0.3,0.4,7.8,0.5,13.8c0.3,11.9,0.4,28.3-0.5,41.1c79-6.9,97.2-20.2,97.2-20.2
	C439.3,180.1,368.9,170.8,368.9,170.9C368.9,170.8,368.9,170.8,368.9,170.9L368.9,170.9z M149,159.3c0.2-0.7,0.4-1.4,0.7-2.1
	C89,167.4,42.9,194.3,42.9,194.3c23.1,22.6,87.9,26.1,99.8,26.6c1-6.2,1.3-12.4,1-18.7c-1-13.7-2.3-18,4.2-39.5
	C148.2,161.6,148.6,160.4,149,159.3L149,159.3z"/>
<path class="st3" d="M147.1,181.8c-0.8,4.4-1.2,8.1-0.7,10c2.8,14.3-0.7,33-1.9,36.9c-2,6.6-5.3,16.3-8.3,38.5
	c-3.9,32.8,7.6,46,7.6,46s12.4,10.8,14.7,17c12.6,26.6,33.2,31.6,53.3,29.1s74.7-34.5,92.9-47.7s36-53.1,36-53.1
	s42.6-17.4,30.9-25.3s-33.5,18.7-33.5,18.7c-0.1-1.7-0.2-2.3-0.2-2.3l-11.5-0.7v-9.6c0,0,14.8-43.5,16.1-54c0-0.2-0.1-0.4-0.1-0.7
	C221.3,162.2,156.2,179.1,147.1,181.8L147.1,181.8z"/>
<path class="st3" d="M272.6,183.6c-12.4,1.9-24.6,4.6-36.7,8c-11.1,3-17.9,1.7-19.5,1.3c-9.4,19-5.1,50.1-5.1,50.1
	C216.4,206.9,257.1,189.1,272.6,183.6z"/>
<path class="st2" d="M220.9,237.3c0.7-1,1.4-2,2-3c5.2-7.1,26.1-24.3,53.6-14.2L276,220c6.3,1.7,12.3,4.2,17.9,7.5
	c-1.5-1.6-3.3-3-5.3-4c0,0,14.3,3.9,25.1,13.9c3-0.3,5.9-2.8,3.5-5.5C276.7,203.1,236.7,209.5,220.9,237.3L220.9,237.3z"/>
<path class="st4" d="M220.9,237.3c0.7-1,1.4-2,2-3c5.2-7.1,26.1-24.3,53.6-14.2L276,220c6.3,1.7,12.3,4.2,17.9,7.5
	c-1.5-1.6-3.3-3-5.3-4c0,0,14.3,3.9,25.1,13.9c3-0.3,5.9-2.8,3.5-5.5C276.7,203.1,236.7,209.5,220.9,237.3L220.9,237.3z"/>
<path class="st5" d="M148.2,159.5l-0.3,3.2c0.3-1.1,0.7-2.2,1.1-3.4L148.2,159.5z"/>
<path class="st6" d="M185.4,311.8l0.4,20.1l13.6-12.2l22.5-7.2h9l10.6,4l23.3-32l-8.5,1.3L240,297.6c0,0-27.2,10.8-27.8,10.5
	s-26.1,2.8-26.1,2.8L185.4,311.8z"/>
<path class="st7" d="M242.1,316.5c0,0-10.6-3.7-11.9-4s-18,2.7-18,2.7l-12.4,4.4l-14.4,12.8v8.5l7,5.7c0,0,8.7,1.4,9.1,1.3
	s10.5-5,10.5-5l12.6-8L242.1,316.5z"/>
<path class="st8" d="M238.6,230.4c9.8,13.1,34.4,14.4,42.8-2.2C281.5,228.2,258.8,222.2,238.6,230.4L238.6,230.4z"/>
<path class="st0" d="M173.9,292v4.9l3,11l15.3,3l22.2-2.4l17.1-5.1l13-8.3l9.6-8.8c0,0-5.7,1.5-6.1,1.6s-17.9,2.3-18.6,2.3
	s-25.2,2-25.2,2l-15.3,1.2l-10.7-1.3L173.9,292z"/>
<path d="M208,278c-1.8-0.5-3.5-1.3-4.9-2.3c-3-2-11.3,1.6-4.6,5.8c2,0.8,4.9-0.7,4.9-0.7s0.2-0.6,2.4,0.7S210.2,280.4,208,278z"/>
<path class="st4" d="M216.4,192.9c-9.4,19.1-5.1,50.1-5.1,50.1c5.1-36.1,45.8-53.9,61.3-59.4c-12.4,1.9-24.6,4.6-36.7,8
	C224.8,194.6,218,193.3,216.4,192.9L216.4,192.9z"/>
<path d="M285.5,158.1c-15.6,2.3-30.6,7.5-44.2,15.3c-8.8,4.9-16.9,11.1-23.9,18.4c-0.7,0.7-1,1.1-1,1.1l0.4,0.1
	c1.6,0.4,8,1.6,19.1-1.4c12-3.4,24.3-6.1,36.7-8c12.9-2,25.9-3.4,39-4.1c6.5-0.4,10.4-0.4,10.4-0.4
	C311.1,167,285.5,158.1,285.5,158.1L285.5,158.1z"/>
<path class="st8" d="M181.9,237.6c-6.4-4.7-13.9-7.9-21.8-9.2c1,3.6,5.1,13.5,21.5,14.3c1-0.9,1.8-1.8,2.6-2.9
	c0.1-0.5-1.5,0-1.5-1.2C182.5,238.4,182.2,237.8,181.9,237.6z"/>
<path class="st0" d="M248.6,231.4c0,1.2-1,2.2-2.2,2.2c-1.2,0-2.2-1-2.2-2.2s1-2.2,2.2-2.2c0,0,0,0,0,0
	C247.7,229.2,248.6,230.1,248.6,231.4C248.6,231.3,248.6,231.3,248.6,231.4z M252.5,229.5c0,0.6-0.4,1-1,1s-1-0.4-1-1s0.4-1,1-1
	S252.5,228.9,252.5,229.5z M167.1,233.2c0,0.7-0.6,1.4-1.3,1.4c-0.7,0-1.4-0.6-1.4-1.3c0-0.7,0.6-1.4,1.3-1.4c0,0,0,0,0,0
	C166.5,231.9,167.1,232.5,167.1,233.2z M169.5,232.1c0,0.3-0.3,0.6-0.6,0.6c0,0,0,0,0,0c-0.3,0-0.6-0.3-0.6-0.6
	c0-0.3,0.3-0.6,0.6-0.6c0,0,0,0,0,0C169.2,231.4,169.5,231.7,169.5,232.1C169.5,232.1,169.5,232.1,169.5,232.1L169.5,232.1z"/>
<path class="st3" d="M238.6,230.4c9.8,13.1,34.4,14.4,42.8-2.2C281.5,228.2,258.8,222.2,238.6,230.4L238.6,230.4z M235.5,231.3
	c-5.8,2.4-10.9,6.2-14.9,11c0,0,2.7-1.4,4.4-1.2c6.6,0.4,13.2,0.4,19.7,0C237.9,239.2,235.5,231.3,235.5,231.3z"/>
<path class="st3" d="M293.9,227.5c-5.6-3.2-11.7-5.8-17.9-7.5l-12.5-0.5c-10.4,0.3-24.4,2.4-32.4,10.9
	C231.1,230.5,258.5,217.3,293.9,227.5L293.9,227.5z"/>
<path d="M314,237.6c-0.1-0.1-0.2-0.2-0.3-0.2h-0.2L314,237.6z"/>
<path class="st9" d="M313.5,237.4c-3,0.2,0.5,0.2,0.5,0.2L313.5,237.4z"/>
<path d="M293.9,227.5l19.6,9.9h0.2c-10.8-10-25.1-13.9-25.1-13.9C290.6,224.5,292.4,225.9,293.9,227.5z M222.8,238.4l3.7-6.4
	l16-10.9l11.1-2l9.9,0.4c4.3-0.1,8.6,0.1,12.9,0.6c-27.4-10.1-48.4,7.1-53.6,14.2c-0.6,1-1.3,2-2,3c-1,1.8-2,3.7-2.8,5.7
	L222.8,238.4z"/>
<path class="st3" d="M294.5,235.5l-1.2,0.3C293.6,235.7,294,235.6,294.5,235.5z"/>
<path class="st0" d="M235.5,231.3c-5.8,2.4-10.9,6.2-14.9,11c0,0,2.7-1.4,4.4-1.2c6.6,0.4,13.2,0.4,19.7,0
	C237.9,239.2,235.5,231.3,235.5,231.3z M279,237c4.8,0.2,9.6-0.2,14.2-1.1l1.2-0.3c0,0,3.4-1.4,6.2-2.8c-5.4-1.8-11-3.1-16.6-4.1
	C284.1,228.6,283.3,234.7,279,237L279,237z"/>
<path class="st3" d="M235.5,231.3c-5.8,2.4-10.9,6.2-14.9,11c0,0,2.7-1.4,4.4-1.2c6.6,0.4,13.2,0.4,19.7,0
	C237.9,239.2,235.5,231.3,235.5,231.3z"/>
<path d="M288.6,223.5c2,1,3.8,2.4,5.3,4c-35.4-10.2-62.8,3-62.8,3c8-8.6,22-10.7,32.4-10.9c4.3-0.1,8.6,0.1,12.9,0.6
	c-27.4-10.1-48.4,7.1-53.6,14.2c-0.6,1-1.3,2-2,3c-2.7,3.5-5.6,6.9-8.6,10.1c0,0,3.4-2.5,14.6-2.5c40.2,3,67.6-9.4,67.6-9.4
	c-0.4,0.1-0.8,0.2-1.2,0.3c-4.7,0.9-9.4,1.3-14.2,1.2c4.4-2.2,5.1-8.4,5.1-8.4c5.6,1,11.2,2.4,16.6,4.1c6.5,2.1,11.4,4.1,12.8,4.7
	h0.2C302.9,227.4,288.6,223.5,288.6,223.5L288.6,223.5z M238.6,230.5c20.2-8.2,42.9-2.2,42.9-2.2C273,244.8,248.4,243.6,238.6,230.5
	L238.6,230.5z M225,241c-1.8-0.1-4.4,1.2-4.4,1.2c4-4.8,9.1-8.6,14.9-11c0,0,2.4,8,9.3,9.8C238.2,241.4,231.6,241.4,225,241L225,241
	z"/>
<path d="M313.5,237.4l0.5,0.2L313.5,237.4L313.5,237.4z"/>
<path class="st9" d="M313.5,237.4l0.5,0.2L313.5,237.4L313.5,237.4z"/>
<path class="st3" d="M175.3,224.8c0,0,5.6,5.6,5.9,5.8s3.6,6.9,3.6,6.9l4.8,4.4l0.1-1.2c-2.8-2.9-5.1-6.2-6.9-9.9
	c-3.6-7.1-12-11.8-18.6-10.5l3.1,0.6L175.3,224.8z M195.9,344.8c16.3-1.4,32-14.6,44.1-28.4C234.8,313.8,211.1,304.7,195.9,344.8z"
	/>
<path class="st3" d="M186.4,312.7c-0.4,7.2-0.5,12.8-0.3,17.1c2.8-3,28.8-29.7,55.2-14.8c1.5-1.7,2.9-3.5,4.3-5.2
	c-0.5-3.8-1.6-7.5-3.3-10.9C231,306,212.6,313.5,186.4,312.7L186.4,312.7z"/>
<path class="st3" d="M210.9,316.2c0,0-19.6,5.2-24.4,18.9c1.1,9.4,4,9.7,7.1,9.8C195,338.9,199.4,325.4,210.9,316.2L210.9,316.2z
	 M239.9,295.3c-1.2-1.4-2.7-2.5-4.3-3.3c-36.5,6.6-61.2,1.1-61.2,1.1c-0.2,6.6,3.3,14.1,3.3,14.1
	C199.2,313.6,225.1,303.1,239.9,295.3z M246,289.8c0.3,0.5,0.7,1.1,1,1.7c3.2-1.9,5.1-3.1,5.1-3.1C250,288.9,248,289.3,246,289.8
	L246,289.8z M248.4,294.6c1.1,2.6,2,5.3,2.7,8c5.4-7.4,9.3-13.7,11-16.6c-1.6,0.4-3.4,0.7-5.5,1.1
	C254.2,289.9,251.4,292.4,248.4,294.6L248.4,294.6z"/>
<path class="st4" d="M164.3,220.3c6.6-1.3,14.9,3.4,18.6,10.5c1.6,3.3,3.7,6.4,6.2,9.1c0.4-2.4,0.7-4.8,1-7.5
	C179.1,213,164.3,220.3,164.3,220.3z"/>
<path d="M190.6,233.5c-0.2-0.4-0.4-0.7-0.6-1.1c-0.2,2.6-0.6,5.1-1,7.5c0.3,0.3,0.5,0.6,0.7,0.8L190.6,233.5z"/>
<path d="M175.3,224.8c0,0,5.6,5.6,5.9,5.8s3.6,6.9,3.6,6.9l4.8,4.4l0.1-1.2c-2.8-2.9-5.1-6.2-6.9-9.9c-3.6-7.1-12-11.8-18.6-10.5
	l3.1,0.6L175.3,224.8z"/>
<path class="st3" d="M195.9,344.8c16.3-1.4,32-14.6,44.1-28.4C234.8,313.8,211.1,304.7,195.9,344.8z"/>
<path class="st3" d="M210.9,316.2c0,0-19.6,5.2-24.4,18.9c1.1,9.4,4,9.7,7.1,9.8C195,338.9,199.4,325.4,210.9,316.2L210.9,316.2z"/>
<path class="st3" d="M186.4,312.7c-0.4,7.2-0.5,12.8-0.3,17.1c2.8-3,28.8-29.7,55.2-14.8c1.5-1.7,2.9-3.5,4.3-5.2
	c-0.5-3.8-1.6-7.5-3.3-10.9C231,306,212.6,313.5,186.4,312.7L186.4,312.7z"/>
<path class="st3" d="M239.9,295.3c-1.2-1.4-2.7-2.5-4.3-3.3c-36.5,6.6-61.2,1.1-61.2,1.1c-0.2,6.6,3.3,14.1,3.3,14.1
	C199.2,313.6,225.1,303.1,239.9,295.3z M246,289.8c0.3,0.5,0.7,1.1,1,1.7c3.2-1.9,5.1-3.1,5.1-3.1C250,288.9,248,289.3,246,289.8
	L246,289.8z M248.4,294.6c1.1,2.6,2,5.3,2.7,8c5.4-7.4,9.3-13.7,11-16.6c-1.6,0.4-3.4,0.7-5.5,1.1
	C254.2,289.9,251.4,292.4,248.4,294.6L248.4,294.6z M181.2,249.7l0.3-0.2L181.2,249.7L181.2,249.7z"/>
<path class="st4" d="M184.5,247.4c-0.9,0.8-1.9,1.4-3,2l-0.3,0.2h-0.1c-7.3,3.8-16.2,2.4-20.5,1.4c6.4,5.2,21.4,2,25.6,1
	c0.5-1.7,1.1-3.9,1.7-6.5L184.5,247.4z"/>
<path class="st10" d="M184.5,247.4l-3,2C182.5,248.9,183.5,248.2,184.5,247.4z"/>
<path d="M158.1,250.4c0,0,1,0.3,2.6,0.7c4.3,1,13.2,2.4,20.5-1.4l0.4-0.2l3-2C184.5,247.5,174.2,251.9,158.1,250.4L158.1,250.4z"/>
<path class="st4" d="M277.8,247.4c-3.2,0.8-16.1,1.6-17.1,1.7c0,0-24.7,5.7-36.3-2.2c0,0,19.2,13.6,55.6,2.1
	C282.5,247.9,280.4,246.8,277.8,247.4L277.8,247.4z"/>
<path d="M260.7,249.1l-8,1.2l-5.7-0.4l-11.7-0.4l-11-2.6C236,254.9,260.7,249.1,260.7,249.1z"/>
<path d="M224.4,247c11.7,7.9,36.3,2.2,36.3,2.2C245.9,250.1,224.4,247,224.4,247z"/>
<path class="st4" d="M214.8,262.3c11.9,3.3,8.3,15.8,3.4,17.9c-1.8,0.7-2.8,0.6-3.4,0.1c0.9,2.4,6.6,1.5,6.6,1.5
	C236.9,265.9,214.8,262.3,214.8,262.3z"/>
<path class="st9" d="M215,262.4l-0.1-0.1L215,262.4z"/>
<path d="M218.2,280.2c4.9-2,8.5-14.6-3.4-17.9l0.1,0.1l5.2,4.5l1.2,3.9l-0.5,4.2l-1.9,3.4l-4.2,1.8
	C215.4,280.8,216.4,280.9,218.2,280.2L218.2,280.2z"/>
<path d="M214.8,262.3l0.1,0.1c1.3,1.1,10.7,9.8,1.7,13.9c-1.9,1-2.8,3.1-1.8,4c0.5,0.5,1.6,0.6,3.4-0.1
	C223.2,278.1,226.7,265.6,214.8,262.3L214.8,262.3z"/>
<path class="st3" d="M195.9,344.8c16.3-1.4,32-14.6,44.1-28.4C234.8,313.8,211.1,304.7,195.9,344.8z"/>
<path class="st3" d="M210.9,316.2c0,0-19.6,5.2-24.4,18.9c1.1,9.4,4,9.7,7.1,9.8C195,338.9,199.4,325.4,210.9,316.2L210.9,316.2z
	 M239.9,295.3c-1.2-1.4-2.7-2.5-4.3-3.3c-36.5,6.6-61.2,1.1-61.2,1.1c-0.2,6.6,3.3,14.1,3.3,14.1
	C199.2,313.6,225.1,303.1,239.9,295.3z M187.3,242.6c-7.4-7.4-16.8-12.4-27.1-14.2C161.2,232.4,166.2,244.1,187.3,242.6z
	 M146.6,227.3c1.4,2.1,6.8,9.2,15.1,11.8c-2.6-3.2-4.2-7.1-4.7-11.2C153.5,227.4,150.1,227.2,146.6,227.3L146.6,227.3z"/>
<path class="st3" d="M186.4,312.7c-0.4,7.2-0.5,12.8-0.3,17.1c2.8-3,28.8-29.7,55.2-14.8c1.5-1.7,2.9-3.5,4.3-5.2
	c-0.5-3.8-1.6-7.5-3.3-10.9C231,306,212.6,313.5,186.4,312.7L186.4,312.7z M246,289.8c0.3,0.5,0.7,1.1,1,1.7
	c3.2-1.9,5.1-3.1,5.1-3.1C250,288.9,248,289.3,246,289.8L246,289.8z M248.4,294.6c1.1,2.6,2,5.3,2.7,8c5.4-7.4,9.3-13.7,11-16.6
	c-1.6,0.4-3.4,0.7-5.5,1.1C254.2,289.9,251.4,292.4,248.4,294.6L248.4,294.6z"/>
<path class="st11" d="M252.3,305.3l-0.4,0.6c2.2,10.2,3,22.7,2.8,35.9l0.7-0.4C257.8,321.8,253.7,309,252.3,305.3z"/>
<path class="st3" d="M373.6,235.8l-0.1,1.9C373.7,237,373.8,236.4,373.6,235.8z M372.8,234.3c-0.3-0.4-0.7-0.7-1.2-1
	c-6.3-4.2-15.4,1.3-22.5,7.5l-0.9,5.5C355.6,239.9,370.4,235.1,372.8,234.3z M186.4,312.7c-0.4,7.2-0.5,12.8-0.3,17.1
	c2.8-3,28.8-29.7,55.2-14.8c1.5-1.7,2.9-3.5,4.3-5.2c-0.5-3.8-1.6-7.5-3.3-10.9C231,306,212.6,313.5,186.4,312.7L186.4,312.7z"/>
<path class="st3" d="M239.9,295.3c-1.2-1.4-2.7-2.5-4.3-3.3c-36.5,6.6-61.2,1.1-61.2,1.1c-0.2,6.6,3.3,14.1,3.3,14.1
	C199.2,313.6,225.1,303.1,239.9,295.3z M252,288.3c-2.1,0.5-4.1,1-6.1,1.5c0.3,0.5,0.7,1.1,1,1.7C250.1,289.6,252,288.3,252,288.3
	L252,288.3z M195.9,344.8c16.3-1.4,32-14.6,44.1-28.4C234.8,313.8,211.1,304.7,195.9,344.8z M251.1,302.6c5.4-7.4,9.3-13.7,11-16.6
	c-1.6,0.4-3.4,0.7-5.5,1.1c-2.5,2.8-5.2,5.3-8.2,7.6C249.5,297.2,250.4,299.9,251.1,302.6L251.1,302.6z M146.6,227.3
	c1.4,2.1,6.8,9.2,15.1,11.8c-2.6-3.2-4.2-7.1-4.7-11.2C153.5,227.4,150.1,227.2,146.6,227.3L146.6,227.3z M187.3,242.6
	c-7.4-7.4-16.8-12.4-27.1-14.2C161.2,232.4,166.2,244.1,187.3,242.6z"/>
<path class="st3" d="M210.9,316.2c0,0-19.6,5.2-24.4,18.9c1.1,9.4,4,9.7,7.1,9.8C195,338.9,199.4,325.4,210.9,316.2L210.9,316.2z
	 M322,70.1l-47.3-44.5l-66.6,46L63.2,178.1c60.2-26.5,139.6-28.6,139.6-28.6c39.2-2.3,112.4,5.1,112.4,5.1s85.1,14,128.3,30.8
	L322,70.1z"/>
<path class="st3" d="M368.9,170.9c0,0.3,0.4,7.8,0.5,13.8c0.3,11.9,0.4,28.3-0.5,41.1c79-6.9,97.2-20.2,97.2-20.2
	C439.3,180.1,368.9,170.8,368.9,170.9C368.9,170.8,368.9,170.8,368.9,170.9L368.9,170.9z M142.7,220.9c1-6.2,1.3-12.4,1-18.7
	c-1-13.7-2.3-18,4.2-39.5c0.3-1.1,0.7-2.2,1.1-3.4c0.2-0.7,0.4-1.4,0.7-2.1C89,167.4,42.9,194.3,42.9,194.3
	C66,216.9,130.8,220.4,142.7,220.9L142.7,220.9z"/>
<path class="st10" d="M334,164.3c-0.6-0.8-1.1-1.6-1.7-2.4C332.8,162.7,333.4,163.5,334,164.3z"/>
<path class="st4" d="M147.1,181.8c6.1-1.7,12.2-3,18.4-4c-5.4-2-11.1-3.1-16.9-3.2C148.1,177,147.5,179.5,147.1,181.8z"/>
<path class="st10" d="M153,158c0,0.1-0.1,0.2-0.1,0.4l0.3-0.4L153,158z"/>
<path class="st3" d="M239.9,295.3c-1.2-1.4-2.7-2.5-4.3-3.3c-36.5,6.6-61.2,1.1-61.2,1.1c-0.2,6.6,3.3,14.1,3.3,14.1
	C199.2,313.6,225.1,303.1,239.9,295.3z M210.9,316.2c0,0-19.6,5.2-24.4,18.9c1.1,9.4,4,9.7,7.1,9.8
	C195,338.9,199.4,325.4,210.9,316.2L210.9,316.2z M146.6,227.3c1.4,2.1,6.8,9.2,15.1,11.8c-2.6-3.2-4.2-7.1-4.7-11.2
	C153.5,227.4,150.1,227.2,146.6,227.3L146.6,227.3z"/>
<path class="st3" d="M186.4,312.7c-0.4,7.2-0.5,12.8-0.3,17.1c2.8-3,28.8-29.7,55.2-14.8c1.5-1.7,2.9-3.5,4.3-5.2
	c-0.5-3.8-1.6-7.5-3.3-10.9C231,306,212.6,313.5,186.4,312.7L186.4,312.7z M187.3,242.6c-7.4-7.4-16.8-12.4-27.1-14.2
	C161.2,232.4,166.2,244.1,187.3,242.6z"/>
<path class="st3" d="M195.9,344.8c16.3-1.4,32-14.6,44.1-28.4C234.8,313.8,211.1,304.7,195.9,344.8z M246,289.8
	c0.3,0.5,0.7,1.1,1,1.7c3.2-1.9,5.1-3.1,5.1-3.1C250,288.9,248,289.3,246,289.8L246,289.8z M256.7,287.1c-2.5,2.8-5.2,5.3-8.2,7.6
	c1.1,2.6,2,5.3,2.7,8c5.4-7.4,9.3-13.7,11-16.6C260.5,286.4,258.7,286.7,256.7,287.1z"/>
<path class="st11" d="M246.8,336c-12.9,7.1-26.7,12.5-41,16c0.8,0.9,1.4,1.9,1.9,3c0,0,3.5-2.1,4.6-1.2l-0.3,5.5
	c7.8-1,20.7-6.4,34.7-13.4C246.7,342.4,246.8,339.1,246.8,336L246.8,336z"/>
<path class="st4" d="M205,352.2l-1.7,0.4l0.9,0.9C204.5,353.1,204.7,352.6,205,352.2L205,352.2z M372.8,234.3
	c-2.5,0.8-17.2,5.6-24.6,11.9l0.9-5.5c-4,3.4-7.6,7.2-11,11.2c-0.1-1.7-1-1.6-1-1.6l-10.3-1.4c-3.8,8.5-25.5,53.3-72.2,82.5
	c0.1,3.4,0.1,6.8,0.1,10.3l0.7-0.4c19.6-10.4,39.6-22.7,49.4-29.7c18.2-13.1,36-53.1,36-53.1s30.1-12.3,32.7-20.9l0.1-1.9
	C373.5,235.2,373.2,234.7,372.8,234.3L372.8,234.3z"/>
<path class="st3" d="M239.9,295.3c-1.2-1.4-2.7-2.5-4.3-3.3c-36.5,6.6-61.2,1.1-61.2,1.1c-0.2,6.6,3.3,14.1,3.3,14.1
	C199.2,313.6,225.1,303.1,239.9,295.3z M195.9,344.8c16.3-1.4,32-14.6,44.1-28.4C234.8,313.8,211.1,304.7,195.9,344.8z"/>
<path class="st3" d="M210.9,316.2c0,0-19.6,5.2-24.4,18.9c1.1,9.4,4,9.7,7.1,9.8C195,338.9,199.4,325.4,210.9,316.2L210.9,316.2z
	 M187.3,242.6c-7.4-7.4-16.8-12.4-27.1-14.2C161.2,232.4,166.2,244.1,187.3,242.6z M146.6,227.3c1.4,2.1,6.8,9.2,15.1,11.8
	c-2.6-3.2-4.2-7.1-4.7-11.2C153.5,227.4,150.1,227.2,146.6,227.3L146.6,227.3z"/>
<path class="st3" d="M186.4,312.7c-0.4,7.2-0.5,12.8-0.3,17.1c2.8-3,28.8-29.7,55.2-14.8c1.5-1.7,2.9-3.5,4.3-5.2
	c-0.5-3.8-1.6-7.5-3.3-10.9C231,306,212.6,313.5,186.4,312.7L186.4,312.7z M248.5,294.6c1.1,2.6,2,5.3,2.7,8
	c5.4-7.4,9.3-13.7,11-16.6c-1.6,0.4-3.4,0.7-5.5,1.1C254.2,289.9,251.4,292.4,248.5,294.6L248.5,294.6z M246,289.8
	c0.3,0.5,0.7,1.1,1,1.7c3.2-1.9,5.1-3.1,5.1-3.1C250,288.9,248,289.3,246,289.8L246,289.8z"/>
<path class="st11" d="M172.1,292.1l-3.6-1c-4.6,6.6-7.4,22.1-9.1,40.8c0.6,1.2,1.2,2.4,1.8,3.4C160.5,320.1,164.3,305.1,172.1,292.1
	L172.1,292.1z"/>
<g>
	<path class="st3" d="M187.3,242.6c-7.4-7.4-16.8-12.4-27.1-14.2C161.2,232.4,166.2,244.1,187.3,242.6z M239.9,295.3
		c-1.2-1.4-2.7-2.5-4.3-3.3c-36.5,6.6-61.2,1.1-61.2,1.1c-0.2,6.6,3.3,14.1,3.3,14.1C199.2,313.6,225.1,303.1,239.9,295.3z
		 M369.4,184.7c-0.1-6-0.4-13.5-0.5-13.8C369,173.4,369.2,178.4,369.4,184.7z"/>
	<path class="st3" d="M157.8,220.7c-3.5,0.1-7.5,2.9-7.5,2.9c19.1,0.3,28.5,8.2,28.5,8.2c-3.2-5.5-8.4-9.6-14.5-11.4
		c6.6-1.3,14.9,3.4,18.6,10.5c1.6,3.3,3.7,6.4,6.2,9.1c0.4-2.4,0.7-4.8,1-7.5c1.9-19.6-1-45.6-24.5-54.7c-5.4-2-11.1-3.1-16.9-3.2
		c-0.6,2.5-1.1,5-1.5,7.2c-0.8,4.4-1.2,8.1-0.7,10c2.1,10.4,0.7,23.1-0.6,30.8C150.4,220.1,157.8,220.7,157.8,220.7L157.8,220.7z
		 M240,316.5c-5.2-2.6-29-11.8-44.1,28.4C212.2,343.4,227.9,330.2,240,316.5z"/>
	<path class="st3" d="M186.4,312.7c-0.4,7.2-0.5,12.8-0.3,17.1c2.8-3,28.8-29.7,55.2-14.8c1.5-1.7,2.9-3.5,4.3-5.2
		c-0.5-3.8-1.6-7.5-3.3-10.9C231,306,212.6,313.5,186.4,312.7L186.4,312.7z"/>
	<path class="st3" d="M186.5,335c1.1,9.4,4,9.7,7.1,9.8c1.4-5.9,5.8-19.4,17.3-28.6C210.9,316.2,191.3,321.4,186.5,335L186.5,335z
		 M246,289.8c0.3,0.5,0.7,1.1,1,1.7c3.2-1.9,5.1-3.1,5.1-3.1C250,288.9,248,289.3,246,289.8L246,289.8z M146.6,227.3
		c1.4,2.1,6.8,9.2,15.1,11.8c-2.6-3.2-4.2-7.1-4.7-11.2C153.5,227.4,150.1,227.2,146.6,227.3L146.6,227.3z M256.7,287
		c-2.5,2.8-5.2,5.3-8.2,7.6c1.1,2.6,2,5.3,2.7,8c5.4-7.4,9.3-13.7,11-16.6C260.5,286.4,258.7,286.7,256.7,287z"/>
	<path class="st3" d="M174.9,278c1.4-0.1,2.8,0,4.2,0.2c-18.5-9.3,3.5-24.6,6.6-24.6c0.2-0.4,0.3-1,0.5-1.5c0.5-1.7,1.1-3.9,1.7-6.5
		c0.1-0.5,0.2-1.1,0.4-1.7c-5.2,1.3-31.2,6.6-44-14.5c-2,6.6-5.2,16.3-8,37.7c-3.9,32.8,7.6,46,7.6,46c3.4,3,6.6,6.2,9.7,9.6
		C156.8,297.6,163.5,278.8,174.9,278L174.9,278z"/>
	<path class="st3" d="M243.7,316.4c-42.6,51.9-61.4,30.5-60.2,20.3c0.9-7.6-0.2-21.3-0.5-24.3c-11.7-1.5-11.6-6.7-11-20.4l-3.6-1
		c-4.6,6.6-7.4,22.1-9.1,40.8c0.6,1.2,1.2,2.4,1.8,3.4c12.3,21.4,30.7,26.1,48.8,24.3c0.6-0.1,1.2-0.1,1.8-0.2
		c7.8-1,20.7-6.4,34.7-13.4c0.1-3.5,0.2-6.8,0.3-9.9c0.2-7.5,0-15.1-0.7-22.6C245.3,314.4,244.5,315.4,243.7,316.4L243.7,316.4z"/>
	<path class="st3" d="M239.9,295.3c-1.2-1.4-2.7-2.5-4.3-3.3c-36.5,6.6-61.2,1.1-61.2,1.1c-0.2,6.6,3.3,14.1,3.3,14.1
		C199.2,313.6,225.1,303.1,239.9,295.3z M186.5,335c1.1,9.4,4,9.7,7.1,9.8c1.4-5.9,5.8-19.4,17.3-28.6
		C210.9,316.2,191.3,321.4,186.5,335L186.5,335z M157.8,220.7c-3.5,0.1-7.5,2.9-7.5,2.9c19.1,0.3,28.5,8.2,28.5,8.2
		c-3.2-5.5-8.4-9.6-14.5-11.4c6.6-1.3,14.9,3.4,18.6,10.5c1.6,3.3,3.7,6.4,6.2,9.1c0.4-2.4,0.7-4.8,1-7.5c1.9-19.6-1-45.6-24.5-54.7
		c-5.4-2-11.1-3.1-16.9-3.2c-0.6,2.5-1.1,5-1.5,7.2c-0.8,4.4-1.2,8.1-0.7,10c2.1,10.4,0.7,23.1-0.6,30.8
		C150.4,220.1,157.8,220.7,157.8,220.7z"/>
	<path class="st3" d="M240,316.5c-5.2-2.6-29-11.8-44.1,28.4C212.2,343.4,227.9,330.2,240,316.5z M187.3,242.6
		c-7.4-7.4-16.8-12.4-27.1-14.2C161.2,232.4,166.2,244.1,187.3,242.6z"/>
	<path class="st3" d="M186.4,312.7c-0.4,7.2-0.5,12.8-0.3,17.1c2.8-3,28.8-29.7,55.2-14.8c1.5-1.7,2.9-3.5,4.3-5.2
		c-0.5-3.8-1.6-7.5-3.3-10.9C231,306,212.6,313.5,186.4,312.7L186.4,312.7z M256.7,287c-2.5,2.8-5.2,5.3-8.2,7.6
		c1.1,2.6,2,5.3,2.7,8c5.4-7.4,9.3-13.7,11-16.6C260.5,286.4,258.7,286.7,256.7,287z M246,289.8c0.3,0.5,0.7,1.1,1,1.7
		c3.2-1.9,5.1-3.1,5.1-3.1C250,288.9,248,289.3,246,289.8L246,289.8z M146.6,227.3c1.4,2.1,6.8,9.2,15.1,11.8
		c-2.6-3.2-4.2-7.1-4.7-11.2C153.5,227.4,150.1,227.2,146.6,227.3L146.6,227.3z"/>
	<path class="st3" d="M243.7,316.4c-42.6,51.9-61.4,30.5-60.2,20.3c0.9-7.6-0.2-21.3-0.5-24.3c-11.7-1.5-11.6-6.7-11-20.4l-3.6-1
		c-4.6,6.6-7.4,22.1-9.1,40.8c0.6,1.2,1.2,2.4,1.8,3.4c12.3,21.4,30.7,26.1,48.8,24.3c0.6-0.1,1.2-0.1,1.8-0.2
		c7.8-1,20.7-6.4,34.7-13.4c0.1-3.5,0.2-6.8,0.3-9.9c0.2-7.5,0-15.1-0.7-22.6C245.3,314.4,244.5,315.4,243.7,316.4L243.7,316.4z"/>
	<path class="st3" d="M174.9,278c1.4-0.1,2.8,0,4.2,0.2c-18.5-9.3,3.5-24.6,6.6-24.6c0.2-0.4,0.3-1,0.5-1.5c0.5-1.7,1.1-3.9,1.7-6.5
		c0.1-0.5,0.2-1.1,0.4-1.7c-5.2,1.3-31.2,6.6-44-14.5c-2,6.6-5.2,16.3-8,37.7c-3.9,32.8,7.6,46,7.6,46c3.4,3,6.6,6.2,9.7,9.6
		C156.8,297.6,163.5,278.8,174.9,278L174.9,278z"/>
</g>
<path class="st0" d="M322,70.1l-47.3-44.5l-66.6,46c0,0-6.4,56.9-5.3,77.9c39.2-2.3,112.4,5.1,112.4,5.1
	C314.6,149,322,70.1,322,70.1z M277,135.5l-19-8.2c-2,3-1.7,15.4-1.7,15.4h-4c-1.1-4.8,2-16,2-16c-1.4-0.3-20.8,1.3-20.8,1.3
	c0.4-2.4,3.5-8.8,3.5-8.8c-5.1-3.4-16.4-18.2-16.4-18.2l4.8-0.6c-1.1-3.3-1.8-16.1-1.8-16.1c1.7,1.3,12.9,5.4,12.9,5.4
	c-0.1-1.6,1.4-5.2,1.4-5.2c2,3.5,9.9,11.6,9.9,11.6c-0.3-8.5,0-24.2,0-24.2l5.7,5.5c3.5-6.6,10-13.4,10-13.4c0.7,5.7,5.5,16,5.5,16
	l8.9-2.8c-2.5,4.7-6.1,20.7-6.1,20.7l13-7.6c0.1,2.4,0.1,5.9,0.1,5.9l14.4-3.4l-7.4,14.4c2.4,1.3,8.6,2,8.6,2
	c-4.7,3.7-25.6,16.3-25.6,16.3L277,135.5z"/>
<path class="st12" d="M208.1,71.6L63.2,178.1c60.2-26.5,139.6-28.6,139.6-28.6C201.8,128.4,208.1,71.6,208.1,71.6z M322,70.1
	c0,0-7.4,78.9-6.8,84.4c0,0,85.1,14,128.3,30.8L322,70.1z M292,107.1l7.4-14.4L285,96.1c0,0,0-3.5-0.1-5.9l-13,7.6
	c0,0,3.5-16,6.1-20.7L269,80c0,0-4.8-10.3-5.5-16c0,0-6.5,6.8-9.9,13.4l-5.7-5.5c0,0-0.3,15.7,0,24.2c0,0-7.9-8.1-9.9-11.6
	c0,0-1.6,3.7-1.4,5.2c0,0-11.2-4.1-12.9-5.4c0,0,0.7,12.9,1.8,16.1l-4.8,0.6c0,0,11.3,14.8,16.4,18.2c0,0-3.1,6.4-3.5,8.8
	c0,0,19.4-1.6,20.8-1.3c0,0-3.1,11.2-2,16h4c0,0-0.3-12.4,1.7-15.4l19,8.2l-2-10.2c0,0,20.9-12.6,25.6-16.3
	C300.7,109.1,294.5,108.4,292,107.1L292,107.1z"/>
<path class="st5" d="M368.9,170.9c0,0.3,0.4,7.8,0.5,13.8c0.3,11.9,0.4,28.3-0.5,41.1c79-6.9,97.2-20.2,97.2-20.2
	C439.3,180.1,368.9,170.8,368.9,170.9C368.9,170.8,368.9,170.8,368.9,170.9L368.9,170.9z M142.7,220.9c1-6.2,1.3-12.4,1-18.7
	c-1-13.7-2.3-18,4.2-39.5c0.3-1.1,0.7-2.2,1.1-3.4c0.2-0.7,0.4-1.4,0.7-2.1C89,167.4,42.9,194.3,42.9,194.3
	C66,216.9,130.8,220.4,142.7,220.9L142.7,220.9z"/>
<path d="M368.9,170.9C368.9,170.9,368.9,170.9,368.9,170.9z"/>
<path class="st3" d="M289.6,155.3l4.1,0.5L289.6,155.3z M259.8,152.6l4.7,0.4L259.8,152.6z M266.3,153.1l4.4,0.4L266.3,153.1z
	 M252.9,152.1c1.8,0.1,3.6,0.2,5.4,0.4C256.5,152.3,254.7,152.2,252.9,152.1z M284.1,154.7l4,0.4L284.1,154.7z M272.4,153.6l4.2,0.4
	L272.4,153.6z M278.4,154.1l4.1,0.4L278.4,154.1z M294.9,155.9l4.2,0.5L294.9,155.9z M232.3,151.2c2,0,4,0.1,6,0.2
	C236.3,151.3,234.3,151.2,232.3,151.2z M199.8,151.4l3.8-0.2L199.8,151.4z M225.8,151c1.6,0,3.2,0.1,4.8,0.1
	C229,151.1,227.4,151,225.8,151z M187.1,152.2l3.8-0.3L187.1,152.2z M180.6,152.9l4.1-0.4L180.6,152.9z M206.2,151.1
	c1.3,0,2.6-0.1,3.9-0.1C208.9,151.1,207.6,151.1,206.2,151.1z M219.2,151h4.3H219.2z M212.7,151h4.1H212.7z M142.7,220.9
	c1-6.2,1.3-12.4,1-18.7c-1-13.7-2.3-18,4.2-39.5c0.3-1.1,0.7-2.2,1.1-3.4c0.2-0.7,0.4-1.4,0.7-2.1C89,167.4,42.9,194.3,42.9,194.3
	C66,216.9,130.8,220.4,142.7,220.9L142.7,220.9z M319,159.1l1.8,0.3L319,159.1z"/>
<path class="st3" d="M322,70.1l-47.3-44.5l-66.6,46L63.2,178.1c60.2-26.5,139.6-28.6,139.6-28.6c39.2-2.3,112.4,5.1,112.4,5.1
	s85.1,14,128.3,30.8L322,70.1z"/>
<path class="st3" d="M368.9,170.9c0,0.3,0.4,7.8,0.5,13.8c0.3,11.9,0.4,28.3-0.5,41.1c79-6.9,97.2-20.2,97.2-20.2
	C439.3,180.1,368.9,170.8,368.9,170.9C368.9,170.8,368.9,170.8,368.9,170.9L368.9,170.9z M325.5,160.1l0.8,0.1L325.5,160.1z
	 M322.4,159.6l1.4,0.2L322.4,159.6z M328.1,160.5h0.4H328.1z M315,158.5l2.2,0.3L315,158.5z"/>
<path class="st2" d="M341.2,178.5c-0.1-0.3-0.2-0.5-0.3-0.8c0.1,0.4,0.3,0.8,0.4,1.1C341.3,178.7,341.3,178.6,341.2,178.5
	L341.2,178.5z M338.8,172.6c0-0.1-0.1-0.1-0.1-0.2c-0.1-0.1-0.1-0.3-0.2-0.4l0.5,1.1C339,173,338.9,172.8,338.8,172.6z M340.2,175.6
	c0,0,0-0.1,0-0.1l-0.3-0.6c0.2,0.4,0.3,0.8,0.5,1.1C340.2,175.8,340.2,175.7,340.2,175.6z M337.4,169.8l-0.1-0.3
	c0-0.1-0.1-0.2-0.2-0.3c0.2,0.3,0.4,0.7,0.5,1C337.5,170.1,337.4,170,337.4,169.8L337.4,169.8z M342,181.6c0-0.2-0.1-0.5-0.2-0.7
	c0.1,0.3,0.2,0.6,0.2,0.9C342,181.7,342,181.6,342,181.6z M335.8,167.1l-0.1-0.3l-0.1-0.1c0.1,0.2,0.3,0.5,0.4,0.7
	C335.9,167.3,335.8,167.2,335.8,167.1z M334.2,164.6c-0.1-0.1-0.1-0.2-0.2-0.3c-0.6-0.8-1.1-1.6-1.7-2.4c0.5,0.8,1.1,1.6,1.7,2.4
	L334.2,164.6z"/>
<path class="st10" d="M334.2,164.6c0.5,0.7,0.9,1.4,1.4,2.1C335.1,166,334.6,165.3,334.2,164.6z M336,167.4c0.4,0.6,0.7,1.2,1.1,1.8
	C336.7,168.6,336.4,168,336,167.4z M342.5,184.6c-0.1-1-0.2-1.9-0.4-2.8c0.2,0.8,0.3,1.7,0.4,2.5
	C342.4,184.3,342.4,184.5,342.5,184.6L342.5,184.6z M340.3,176c0.2,0.6,0.4,1.2,0.6,1.8C340.7,177.1,340.5,176.6,340.3,176z
	 M339.1,173.1c0.3,0.6,0.5,1.1,0.8,1.7C339.6,174.2,339.3,173.7,339.1,173.1z"/>
<path class="st4" d="M342.5,184.6v-0.4c-0.1-0.8-0.2-1.7-0.4-2.5c0-0.3-0.1-0.6-0.2-0.9c-0.1-0.7-0.3-1.3-0.5-2
	c-0.1-0.4-0.2-0.8-0.4-1.1c-0.2-0.6-0.4-1.2-0.6-1.8c-0.1-0.4-0.3-0.8-0.5-1.1c-0.2-0.6-0.5-1.1-0.8-1.7l-0.5-1.1
	c-0.3-0.6-0.6-1.2-0.9-1.7c-0.2-0.3-0.4-0.7-0.5-1c-0.4-0.6-0.7-1.2-1.1-1.8c-0.1-0.2-0.3-0.5-0.4-0.7c-0.5-0.7-0.9-1.4-1.4-2.1
	l-0.2-0.3c-0.6-0.8-1.1-1.6-1.7-2.4l-0.6-0.8l-3.3-0.5h-0.4l-1.8-0.3l-0.8-0.1l-1.7-0.3l-1.4-0.2l-1.7-0.2l-1.8-0.3l-1.7-0.2
	l-2.2-0.3l-1.5-0.2c-4-0.6-8.5-1.2-13.5-1.8l-0.9-0.1L295,156l-1.2-0.1l-4.1-0.5l-1.5-0.2l-4-0.4l-1.6-0.2l-4.1-0.4l-1.8-0.2
	l-4.2-0.4l-1.8-0.1l-4.4-0.4l-1.8-0.1l-4.7-0.4l-1.5-0.1c-1.8-0.1-3.6-0.2-5.4-0.4l-1-0.1c-4.3-0.3-8.7-0.5-13.2-0.7h-0.5
	c-2-0.1-4-0.1-6-0.2h-1.7c-1.6,0-3.2-0.1-4.8-0.1h-15.6c-1.3,0-2.6,0.1-3.9,0.1l-2.6,0.1l-3.8,0.2l-2.6,0.1
	c-1.3,0.1-2.5,0.1-3.8,0.2L191,152l-3.8,0.3c-0.8,0.1-1.6,0.1-2.4,0.2l-4.1,0.4l-2,0.2c-2,0.2-4,0.5-5.9,0.8
	c0.3,0.4,0.9,1.2,1.7,2.5c3.8,6,7.1,12.3,9.7,18.9c19-1.9,38.1-2.5,57.2-1.9c13.7-7.8,28.7-13,44.2-15.3c0,0,25.5,8.8,36.4,21
	c0,0-3.9,0-10.4,0.4C321.5,180.9,331.7,182.6,342.5,184.6L342.5,184.6z"/>
<path d="M223.6,151h2.2H223.6z M210.2,151h2.6H210.2z M299.1,156.4l0.9,0.1L299.1,156.4z M184.7,152.4c0.8-0.1,1.6-0.1,2.4-0.2
	C186.3,152.3,185.5,152.4,184.7,152.4z M203.6,151.2l2.6-0.1L203.6,151.2z M178.6,153.1l2-0.2L178.6,153.1z M197.2,151.5l2.6-0.1
	L197.2,151.5z M190.9,151.9l2.6-0.2L190.9,151.9z M276.6,154l1.8,0.2L276.6,154z M282.5,154.5l1.6,0.2L282.5,154.5z M270.6,153.4
	l1.8,0.1L270.6,153.4z M317.3,158.9l1.7,0.2L317.3,158.9z M293.7,155.8l1.2,0.1L293.7,155.8z M288.2,155.2l1.5,0.2L288.2,155.2z
	 M313.5,158.3l1.5,0.2L313.5,158.3z M323.8,159.8l1.7,0.3L323.8,159.8z M238.3,151.3h0.5H238.3z M230.6,151.1h1.7H230.6z
	 M326.3,160.2l1.8,0.3L326.3,160.2z M251.9,152l1,0.1L251.9,152z M320.7,159.4l1.7,0.2L320.7,159.4z M258.3,152.4l1.5,0.1
	L258.3,152.4z M264.5,152.9l1.8,0.1L264.5,152.9z"/>
<path class="st3" d="M186.5,335c1.1,9.4,4,9.7,7.1,9.8c1.4-5.9,5.8-19.4,17.3-28.6C210.9,316.2,191.3,321.4,186.5,335L186.5,335z
	 M239.9,295.3c-1.2-1.4-2.7-2.5-4.3-3.3c-36.5,6.6-61.2,1.1-61.2,1.1c-0.2,6.6,3.3,14.1,3.3,14.1
	C199.2,313.6,225.1,303.1,239.9,295.3z"/>
<path class="st3" d="M240,316.5c-5.2-2.6-29-11.8-44.1,28.4C212.2,343.4,227.9,330.2,240,316.5z M187.3,242.6
	c-7.4-7.4-16.8-12.4-27.1-14.2C161.2,232.4,166.2,244.1,187.3,242.6z"/>
<path class="st3" d="M146.3,187.5v0.6c-0.1,0.6-0.1,1.2-0.1,1.7v0.4c0,0.5,0.1,1.1,0.2,1.6c0.2,1.2,0.4,2.4,0.6,3.6
	c0,0.2,0.1,0.4,0.1,0.7c0.1,1.2,0.2,2.4,0.3,3.6v0.7c0.1,1.2,0.1,2.5,0.1,3.7c0,1.3,0,2.5-0.1,3.8v0.5c-0.1,1.2-0.1,2.4-0.2,3.6v0.4
	c-0.2,2.5-0.5,4.9-0.8,7c-0.2,1.1-0.3,2.1-0.5,3.1c4.6-2.4,12-1.8,12-1.8c-3.5,0.1-7.5,2.9-7.5,2.9c19.1,0.3,28.5,8.2,28.5,8.2
	c-3.2-5.5-8.4-9.6-14.5-11.4c6.6-1.3,14.9,3.4,18.6,10.5c1.6,3.3,3.7,6.4,6.2,9.1c0.4-2.4,0.7-4.8,1-7.5c1.9-19.6-1-45.6-24.5-54.7
	c-5.4-2-11-3.1-16.8-3.2c-1,3.8-1.8,7.7-2.3,11.6C146.4,186.6,146.3,187.1,146.3,187.5L146.3,187.5z"/>
<path class="st3" d="M143.7,202.2c-1-13.7-2.3-18,4.2-39.5c0.3-1.1,0.7-2.2,1.1-3.4c0.2-0.7,0.4-1.4,0.7-2.1
	C89,167.4,42.9,194.3,42.9,194.3c23.1,22.6,87.9,26.1,99.8,26.6C143.7,214.7,144,208.4,143.7,202.2z M186.4,312.7
	c-0.4,7.2-0.5,12.8-0.3,17.1c2.8-3,28.8-29.7,55.2-14.8c1.5-1.7,2.9-3.5,4.3-5.2c-0.5-3.8-1.6-7.5-3.3-10.9
	C231,306,212.6,313.5,186.4,312.7L186.4,312.7z M161.7,239c-2.6-3.2-4.2-7.1-4.7-11.2c-3.4-0.5-6.9-0.7-10.4-0.6
	C148,229.4,153.4,236.5,161.7,239L161.7,239z"/>
<path class="st3" d="M188.4,257.2c0,0-23.4,5.3-8.4,18.5c0,0-1.3-4,0.7-7.3c0,0,4.6,11,9.2,13.3c-2.1-0.5-4.3-1.1-6.3-1.8
	c2.6,1.8,3.5,4.5,1.9,7.1c-3,4.6-11.6,0.4-11.6,0.4c-1,0-1.9,0.3-2.7,0.9c4.3,1.1,25.2,6,57.8,1.5c-4.3-0.5-8.7-0.4-13,0.2
	c-8.3,0.8-9.9-4.2-5.1-7.4s23.2-2.1,23.2-2.1c4.1,0.9,7.6,3.2,10.1,6.6c9.6-2,19.1-4.6,28.4-7.7c-5.6-1-9.3-4.8-2.4-6
	s15.9,1.9,17.4,8.5c-3.7-3.7-8.9-5.4-14.1-4.7c0,0,7,3.8-7.1,7.7c-4.9,7.6-9.6,14.3-14,20.3l-0.4,0.6c1.7,8.4,2.6,17,2.7,25.5
	c0.1,3.4,0.1,6.8,0.1,10.3l0.7-0.4c19.6-10.4,39.6-22.7,49.4-29.7c18.2-13.1,36-53.1,36-53.1s30.1-12.3,32.7-20.9
	c0.2-0.6,0.2-1.2,0.1-1.9c-0.1-0.6-0.4-1.1-0.8-1.5c-0.3-0.4-0.7-0.7-1.2-1c-6.3-4.2-15.4,1.3-22.5,7.5c-4,3.4-7.6,7.2-11,11.2
	c-0.1-1.7-1-1.6-1-1.6l-10.3-1.4l-0.5-0.1v-9.6c0,0,1.5-4.5,3.6-10.9c0.3-1,0.6-1.9,1-3l0.3-1c0.1-0.4,0.3-0.9,0.4-1.4
	c0.3-0.8,0.5-1.6,0.8-2.5l0.3-0.9c0.2-0.8,0.5-1.5,0.7-2.3c0.1-0.2,0.1-0.5,0.2-0.7c0.3-1,0.6-2,1-3l0.1-0.5l0.8-2.6l0.2-0.8
	c0.3-1,0.6-2,0.9-3l0.1-0.5c0.3-0.9,0.5-1.7,0.8-2.5c0.1-0.3,0.1-0.5,0.2-0.8l0.8-2.8c0-0.2,0.1-0.3,0.1-0.5
	c0.2-0.8,0.5-1.6,0.7-2.3c0.1-0.2,0.1-0.5,0.2-0.7c0.2-0.9,0.5-1.7,0.7-2.5l0.1-0.3c0.2-0.7,0.4-1.4,0.5-2.1
	c0.1-0.2,0.1-0.4,0.2-0.6c0.2-0.7,0.4-1.4,0.5-2.1v-0.1c0.1-0.6,0.2-1.2,0.4-1.7l0.1-0.4c0.1-0.6,0.2-1.1,0.2-1.5s-0.1-0.7-0.1-1
	c-0.1-0.9-0.2-1.8-0.4-2.6c-0.2-1-0.5-2-0.8-3c-0.3-1-0.7-2-1.1-2.9c0,0,0-0.1,0-0.1c-0.4-0.9-0.8-1.9-1.3-2.8
	c0-0.1-0.1-0.1-0.1-0.2c-0.4-0.9-0.9-1.8-1.4-2.6l-0.1-0.3c-0.5-0.9-1-1.7-1.5-2.5l-0.1-0.3c-1.1-1.7-2.2-3.3-3.3-4.9l-0.6-0.8
	l-0.5-0.1l-0.8-0.1l-2.1-0.3H328l-1.8-0.3l-0.8-0.1l-1.7-0.3l-1.4-0.2l-1.7-0.2l-1.8-0.3l-1.7-0.2l-2.2-0.3l-1.5-0.2
	c-4-0.6-8.5-1.2-13.5-1.8l-0.9-0.1l-4.2-0.5l-1.2-0.1l-4.1-0.5l-1.5-0.2l-4-0.4l-1.6-0.2l-4.1-0.4l-1.8-0.2l-4.2-0.4l-1.8-0.1
	l-4.4-0.4l-1.8-0.1l-4.7-0.4l-1.5-0.1c-1.8-0.1-3.6-0.2-5.4-0.4l-1-0.1c-4.3-0.3-8.7-0.5-13.2-0.7h-0.5c-2-0.1-4-0.1-6-0.2h-1.7
	c-1.6,0-3.2-0.1-4.8-0.1h-15.6c-1.3,0-2.6,0.1-3.9,0.1l-2.6,0.1l-3.8,0.2l-2.6,0.1c-1.3,0.1-2.5,0.1-3.8,0.2l-2.6,0.2l-3.8,0.3
	c-0.8,0.1-1.6,0.1-2.4,0.2l-4.1,0.4l-2,0.2c-2,0.2-4,0.5-5.9,0.8c4.6,6.6,8.5,13.8,11.4,21.4C194.6,201.5,196.1,230.3,188.4,257.2
	L188.4,257.2z"/>
<path class="st3" d="M274.7,25.6l-66.6,46L63.2,178.1c60.2-26.5,139.6-28.6,139.6-28.6c39.2-2.3,112.4,5.1,112.4,5.1
	s85.1,14,128.3,30.8L322,70.1L274.7,25.6z"/>
<path class="st3" d="M369.4,184.7c0.3,11.9,0.4,28.3-0.5,41.1c79-6.9,97.2-20.2,97.2-20.2c-26.9-25.4-97.2-34.8-97.2-34.8
	C368.9,171.2,369.3,178.6,369.4,184.7z M256.7,287c-2.5,2.8-5.2,5.3-8.2,7.6c1.1,2.6,2,5.3,2.7,8c5.4-7.4,9.3-13.7,11-16.6
	C260.5,286.4,258.7,286.7,256.7,287z M243.7,316.4c-42.6,51.9-61.4,30.5-60.2,20.3c0.9-7.6-0.2-21.3-0.5-24.3
	c-11.7-1.5-11.6-6.7-11-20.4l-3.6-1c-4.6,6.6-7.4,22.1-9.1,40.8c0.6,1.2,1.2,2.4,1.8,3.4c12.3,21.4,30.7,26.1,48.8,24.3
	c0.6-0.1,1.2-0.1,1.8-0.2c7.8-1,20.7-6.4,34.7-13.4c0.1-3.5,0.2-6.8,0.3-9.9c0.2-7.5,0-15.1-0.7-22.6
	C245.3,314.4,244.5,315.4,243.7,316.4z M246,289.8c0.3,0.5,0.7,1.1,1,1.7c3.2-1.9,5.1-3.1,5.1-3.1C250,288.9,248,289.3,246,289.8
	L246,289.8z"/>
<path class="st3" d="M174.9,278c1.4-0.1,2.8,0,4.2,0.2c-18.5-9.3,3.5-24.6,6.6-24.6c0.2-0.4,0.3-1,0.5-1.5c0.5-1.7,1.1-3.9,1.7-6.5
	c0.1-0.5,0.2-1.1,0.4-1.7c-5.2,1.3-31.2,6.6-44-14.5c-2,6.6-5.2,16.3-8,37.7c-3.9,32.8,7.6,46,7.6,46c3.4,3,6.6,6.2,9.7,9.6
	C156.8,297.6,163.5,278.8,174.9,278L174.9,278z"/>
<path d="M342,181.6c0.2,0.9,0.3,1.7,0.4,2.6C342.3,183.3,342.2,182.4,342,181.6z M334,164.3c0.6,0.8,1.1,1.7,1.6,2.5
	C335.1,165.9,334.5,165.1,334,164.3z M369.4,184.7c-0.1-6-0.4-13.5-0.5-13.8C369,173.4,369.2,178.4,369.4,184.7z M147.1,181.8
	c-0.3,1.6-0.5,3.1-0.7,4.4c0.6-3.9,1.3-7.8,2.3-11.6h-0.1C148.1,177,147.5,179.5,147.1,181.8z M152.9,158.4l0.4-1.5
	c-0.1,0.4-0.2,0.8-0.4,1.2C153,158.1,153,158.3,152.9,158.4L152.9,158.4z M341.2,178.5c0.3,1,0.6,2,0.8,3
	C341.8,180.5,341.6,179.5,341.2,178.5z M342.5,184.6v-0.4c0,0.3,0.1,0.7,0.1,1C342.5,185,342.5,184.8,342.5,184.6z M331,225.4
	c-0.3,1-0.6,2-1,3C330.3,227.4,330.6,226.5,331,225.4z"/>
<path class="st3" d="M349.2,240.7L349.2,240.7L349.2,240.7L349.2,240.7z M293.3,319.4l-1,0.6L293.3,319.4z M346.9,242.8l0.1-0.1
	L346.9,242.8z M341.2,248.4l0.1-0.2L341.2,248.4z M296,317.6l-1,0.6L296,317.6z M344.7,244.8l0.2-0.1L344.7,244.8z M342.8,246.7
	l0.2-0.2L342.8,246.7z M339.9,249.8l0.1-0.1C340,249.8,340,249.8,339.9,249.8z M287.5,323c-0.4,0.2-0.7,0.4-1.1,0.7L287.5,323z
	 M331.3,224.4c0.1-0.2,0.1-0.4,0.2-0.6c-0.1,0.4-0.3,0.8-0.4,1.2C331.2,224.8,331.2,224.6,331.3,224.4L331.3,224.4z M290.5,321.1
	l-1.1,0.7L290.5,321.1z M353.2,237.4l0.6-0.4L353.2,237.4z M359,233.9l0.6-0.3L359,233.9z M357.5,234.7l0.6-0.4L357.5,234.7z
	 M342.2,258H342H342.2z M341.2,258.4l-0.1,0L341.2,258.4z M361.9,232.7l0.6-0.2L361.9,232.7z M360.4,233.2c0.2-0.1,0.4-0.2,0.6-0.3
	C360.9,233,360.6,233.1,360.4,233.2z M300.8,314.4l-0.7,0.5L300.8,314.4z M351.9,238.5l0.5-0.4L351.9,238.5z M302.9,313l-0.5,0.4
	L302.9,313z M350.5,239.6l0.4-0.3L350.5,239.6z M298.5,316l-0.9,0.6L298.5,316z M332.9,219.6l0.5-1.5c-0.2,0.6-0.4,1.3-0.6,1.9
	C332.8,219.9,332.8,219.8,332.9,219.6L332.9,219.6z M354.7,236.5l0.6-0.4L354.7,236.5z M356.1,235.5l0.6-0.4L356.1,235.5z
	 M281.2,326.8l-1.1,0.7L281.2,326.8z M146.3,219.4c-0.2,1.1-0.3,2.1-0.5,3.1c0.5-2.8,1-6.3,1.3-10.1
	C146.9,214.9,146.6,217.3,146.3,219.4L146.3,219.4z M159.4,331.8l0.2,0.3C159.5,332,159.4,331.9,159.4,331.8L159.4,331.8z
	 M144.2,229.4c-2,6.6-5.2,16.3-8,37.7C139.3,245.8,142.2,236,144.2,229.4z M144,313.4l-0.2-0.2L144,313.4z M333.8,216.7
	c0.3-1,0.6-2,1-3v-0.1c-0.4,1.1-0.7,2.2-1.1,3.3C333.8,216.8,333.8,216.7,333.8,216.7L333.8,216.7z M274.4,330.8l-1.1,0.7
	L274.4,330.8z M267.1,335l-0.9,0.5L267.1,335z M270.9,332.9l-1.1,0.6L270.9,332.9z M222.6,356.5L222.6,356.5L222.6,356.5z
	 M277.8,328.8l-1.1,0.7L277.8,328.8z M263.1,337.2l-0.4,0.2L263.1,337.2z M215.3,358.7l-0.6,0.1L215.3,358.7z M339,199.7
	c0.2-0.8,0.5-1.6,0.7-2.3l0-0.2c-0.2,0.9-0.5,1.8-0.8,2.7L339,199.7z M148.8,174.6h-0.1c-0.6,2.5-1.1,5-1.5,7.2
	c-0.2,1.1-0.4,2.2-0.5,3.2C147.1,181.9,147.9,178.3,148.8,174.6L148.8,174.6z M338.8,200.2L338.8,200.2l-0.5,1.5L338.8,200.2z
	 M334,164.3c-0.6-0.8-1.1-1.6-1.7-2.4C332.9,162.7,333.4,163.5,334,164.3L334,164.3z M147.1,212v0.4c0.1-1.3,0.2-2.6,0.3-3.9
	C147.3,209.6,147.2,210.8,147.1,212z M337.8,203.8c0,0,0-0.1,0-0.1c-0.1,0.5-0.3,1-0.5,1.6C337.5,204.7,337.6,204.2,337.8,203.8
	L337.8,203.8z M335.7,210.6l0.2-0.8l0.4-1.4c-0.4,1.1-0.7,2.3-1.1,3.4C335.4,211.4,335.6,211,335.7,210.6z M147.4,207.8
	c0-1.2,0.1-2.5,0.1-3.7C147.5,205.3,147.4,206.6,147.4,207.8z M147,195.4c0,0.2,0.1,0.4,0.1,0.7c0.1,1.2,0.2,2.4,0.3,3.6
	c-0.1-2.6-0.4-5.3-0.9-7.8C146.6,192.9,146.8,194.1,147,195.4z M146.2,189.7L146.2,189.7L146.2,189.7z M146.3,187.5L146.3,187.5
	L146.3,187.5z M284.4,324.9l-1.2,0.7L284.4,324.9z M338.9,251L338.9,251L338.9,251z M364.9,246.3l-0.2,0.1L364.9,246.3z
	 M371.7,233.2c0.3,0.2,0.5,0.4,0.7,0.6C372.2,233.6,371.9,233.4,371.7,233.2z M356.3,251.3l-0.2,0.1L356.3,251.3z M373.3,235
	L373.3,235L373.3,235z M371.4,241l-0.2,0.2L371.4,241z M332.3,161.9l-0.6-0.8l-0.5-0.1l-0.8-0.1l-2.1-0.3h-0.4l-1.8-0.3l-0.8-0.1
	l-1.7-0.3l-1.4-0.2l-1.7-0.2l-1.8-0.3l-1.7-0.2l-2.2-0.3l-1.5-0.2c-4-0.6-8.5-1.2-13.5-1.8l-0.9-0.1l-4.2-0.5l-1.2-0.1l-4.1-0.5
	l-1.5-0.2l-4-0.4l-1.6-0.2l-4.1-0.4l-1.8-0.2l-4.2-0.4l-1.8-0.1l-4.4-0.4l-1.8-0.1l-4.7-0.4l-1.5-0.1c-1.8-0.1-3.6-0.2-5.4-0.4
	l-1-0.1c-4.3-0.3-8.7-0.5-13.2-0.7h-0.5c-2-0.1-4-0.1-6-0.2h-1.7c-1.6,0-3.2-0.1-4.8-0.1h-15.6c-1.3,0-2.6,0.1-3.9,0.1l-2.6,0.1
	l-3.8,0.2l-2.6,0.1c-1.3,0.1-2.5,0.1-3.8,0.2l-2.6,0.2l-3.8,0.3c-0.8,0.1-1.6,0.1-2.4,0.2l-4.1,0.4l-2,0.2c-2,0.2-4,0.5-5.9,0.8
	c0.3,0.4,0.9,1.2,1.7,2.5C207.8,154.1,270.2,152.2,332.3,161.9L332.3,161.9z M372.8,239.2l-0.1,0.1L372.8,239.2z M144.1,313.4
	c3.3,2.9,6.5,6,9.4,9.3C150.6,319.5,147.4,316.4,144.1,313.4z M158.2,157.6c1.7-1.2,3.1-2,3.1-2c-2.4,0.2-4.8,0.6-7.1,1.1l-0.8,0.2
	c-0.1,0.4-0.2,0.8-0.4,1.2c0,0.1-0.1,0.2-0.1,0.4l-1.5,4.9c0.1-0.3,0.3-0.6,0.6-0.9c0.5-1.6,0.9-3.1,1.3-4.3L158.2,157.6z
	 M363.3,232.2l0.6-0.1L363.3,232.2z M353.3,252.9L353.3,252.9L353.3,252.9z M368.9,170.9c0.1,2.5,0.3,7.5,0.5,13.8
	c0.3,11.9,0.4,28.3-0.5,41.1c79-6.9,97.2-20.2,97.2-20.2C439.3,180.1,368.9,170.8,368.9,170.9C368.9,170.8,368.9,170.9,368.9,170.9
	L368.9,170.9z M348,255.4l-0.2,0.1L348,255.4z M364.7,231.9l0.6-0.1L364.7,231.9z M345.6,256.5l-0.1,0L345.6,256.5z"/>
<path class="st3" d="M315.2,154.6c0,0,85.1,14,128.3,30.8L322,70.1l-47.3-44.5l-66.6,46L63.2,178.1c60.2-26.5,139.6-28.6,139.6-28.6
	C242.1,147.1,315.2,154.6,315.2,154.6z M366.1,231.8h0.6H366.1z M367.4,231.8h0.6H367.4z"/>
<path class="st3" d="M143.7,202.2c-1-13.7-2.3-18,4.2-39.5c0.3-1.1,0.7-2.2,1.1-3.4c0.2-0.7,0.4-1.4,0.7-2.1
	C89,167.4,42.9,194.3,42.9,194.3c23.1,22.6,87.9,26.1,99.8,26.6C143.7,214.7,144,208.4,143.7,202.2z M370.1,232.4
	c0.1,0.1,0.3,0.1,0.4,0.1C370.4,232.5,370.2,232.5,370.1,232.4z M368.8,232l0.5,0.1L368.8,232z"/>
<path d="M280,327.5l-2.2,1.3L280,327.5z M373.5,237.7c-0.2,0.6-0.4,1.1-0.8,1.6C373.1,238.8,373.3,238.2,373.5,237.7z M276.7,329.5
	l-2.3,1.3L276.7,329.5z M283.2,325.6l-2.1,1.2L283.2,325.6z M302.3,313.4l-1.6,1.1L302.3,313.4z M300.1,314.9l-1.6,1.1L300.1,314.9z
	 M356.1,251.4c-0.9,0.5-1.9,1-2.8,1.4C354.2,252.4,355.1,251.9,356.1,251.4z M297.6,316.6l-1.6,1.1L297.6,316.6z M347.8,255.5
	l-2.2,1L347.8,255.5z M345.5,256.5c-1.4,0.6-2.5,1.1-3.3,1.5C343,257.7,344.1,257.2,345.5,256.5z M372.7,239.3
	c-0.4,0.6-0.8,1.1-1.3,1.6C371.9,240.5,372.3,239.9,372.7,239.3z M341.1,258.5l-0.2,0.1L341.1,258.5z M342,258l-0.9,0.4L342,258z
	 M273.3,331.5l-2.4,1.4L273.3,331.5z M369.5,242.8c-0.7,0.6-1.4,1.1-2.2,1.7C368.1,244,368.9,243.4,369.5,242.8z M289.4,321.8
	l-1.9,1.2L289.4,321.8z M286.4,323.7l-2,1.2L286.4,323.7z M364.7,246.4c-0.9,0.6-1.7,1.1-2.6,1.7C362.9,247.5,363.8,247,364.7,246.4
	z M295,318.2l-1.7,1.1L295,318.2z M292.3,320l-1.8,1.2L292.3,320z M147.4,207.8v0.6C147.4,208.2,147.4,208,147.4,207.8z M330,228.4
	c-2.1,6.4-3.6,10.9-3.6,10.9s1-2.9,2.5-7.4c0.7-2,1.4-4.3,2.2-6.8c0,0.1-0.1,0.3-0.1,0.4C330.7,226.5,330.3,227.4,330,228.4
	L330,228.4z M334.8,213.6c0.2-0.6,0.4-1.1,0.5-1.7l-0.4,1.3L334.8,213.6z M370.5,232.6c0.4,0.2,0.8,0.4,1.2,0.7
	C371.3,233,370.9,232.8,370.5,232.6z M373.3,235c-0.2-0.4-0.6-0.8-0.9-1.2c0.1,0.1,0.3,0.3,0.4,0.4C373,234.5,373.2,234.7,373.3,235
	z M331.8,223.1l-0.2,0.8c0.4-1.2,0.8-2.5,1.2-3.8c-0.1,0.2-0.1,0.4-0.2,0.5C332.3,221.4,332,222.2,331.8,223.1L331.8,223.1z
	 M333.3,218.1c0.1-0.4,0.3-0.8,0.4-1.2l-0.1,0.5L333.3,218.1z M365.3,231.8c0.3,0,0.5,0,0.8-0.1
	C365.8,231.8,365.6,231.8,365.3,231.8z M269.8,333.5l-2.6,1.5L269.8,333.5z M369.3,232.1c0.3,0.1,0.6,0.2,0.8,0.3
	C369.8,232.3,369.5,232.2,369.3,232.1z M366.7,231.8h0.8C367.2,231.8,366.9,231.8,366.7,231.8z M368,231.8c0.3,0,0.5,0.1,0.8,0.1
	C368.5,232,368.3,231.9,368,231.8z M342.2,187.1c-0.1,0.5-0.2,1.1-0.4,1.7v0.1c-0.1,0.6-0.3,1.4-0.5,2.1c0,0.2-0.1,0.4-0.2,0.6
	c-0.2,0.7-0.3,1.4-0.5,2.1l-0.1,0.3c-0.2,0.8-0.5,1.7-0.7,2.5l-0.1,0.6c1.2-3.9,2.1-7.9,2.8-11.9c0,0.4-0.1,0.9-0.2,1.5L342.2,187.1
	z M136.2,267.2c-5.1,35.6,7.6,46,7.6,46S132.3,299.9,136.2,267.2z M147.1,212.3c0,0,0,0.1,0,0.1V212.3z M373.4,235.1
	c0.1,0.2,0.2,0.5,0.3,0.7c0.1,0.6,0.1,1.3-0.1,1.9C373.8,236.8,373.7,235.9,373.4,235.1L373.4,235.1z"/>
<path class="st3" d="M195.9,344.8c16.3-1.4,32-14.6,44.1-28.4C234.8,313.8,211.1,304.7,195.9,344.8z M174.4,294.2
	c0.2,6.2,3.3,12.9,3.3,12.9c21.4,6.4,47.4-4.1,62.2-11.8c-0.9-1-2-1.9-3.2-2.7C205.2,300.4,179.8,295.4,174.4,294.2L174.4,294.2z"/>
<path class="st3" d="M186.4,312.7c-0.4,7.2-0.5,12.8-0.3,17.1c2.8-3,28.8-29.7,55.2-14.8c1.5-1.7,2.9-3.5,4.3-5.2
	c-0.5-3.8-1.6-7.5-3.3-10.9C231,306,212.6,313.5,186.4,312.7L186.4,312.7z M187.3,242.6c-7.4-7.4-16.8-12.4-27.1-14.2
	C161.2,232.4,166.2,244.1,187.3,242.6z"/>
<path class="st3" d="M210.9,316.2c0,0-19.6,5.2-24.4,18.9c1.1,9.4,4,9.7,7.1,9.8C195,338.9,199.4,325.4,210.9,316.2L210.9,316.2z
	 M248.4,294.6c1.1,2.6,2,5.3,2.7,8c5.4-7.4,9.3-13.7,11-16.6c-1.6,0.4-3.4,0.7-5.5,1.1C254.2,289.9,251.4,292.4,248.4,294.6
	L248.4,294.6z M248.8,289.1l-2.7,0.9c0.3,0.5,0.6,1,0.9,1.5c3.2-1.9,5.1-3.1,5.1-3.1C250.9,288.6,249.9,288.9,248.8,289.1
	L248.8,289.1z M146.6,227.3c1.4,2.1,6.8,9.2,15.1,11.8c-2.6-3.2-4.2-7.1-4.7-11.2C153.5,227.4,150.1,227.2,146.6,227.3L146.6,227.3z
	"/>
<path class="st13" d="M174.4,293v1.2c5.3,1.2,30.8,6.2,62.3-1.6c-0.4-0.2-0.7-0.5-1.1-0.7C199.1,298.5,174.4,293,174.4,293z
	 M246,289.8c0,0.1,0.1,0.1,0.1,0.2l2.7-0.9L246,289.8z"/>
<path d="M233.5,352.1c-1.6,0.7-3.2,1.4-4.7,2C230.4,353.5,231.9,352.8,233.5,352.1z M234.4,351.7l-0.8,0.4L234.4,351.7z
	 M255.4,341.4l0.8-0.5c-0.5,0.3-1,0.5-1.5,0.8L255.4,341.4z"/>
<path class="st3" d="M210.9,316.2c0,0-19.6,5.2-24.4,18.9c1.1,9.4,4,9.7,7.1,9.8C195,338.9,199.4,325.4,210.9,316.2L210.9,316.2z
	 M146.6,227.3c1.4,2.1,6.8,9.2,15.1,11.8c-2.6-3.2-4.2-7.1-4.7-11.2C153.5,227.4,150.1,227.2,146.6,227.3L146.6,227.3z M182.5,241.9
	c-0.1,0.3-0.4,0.6-0.8,0.8c1.9,0.1,3.8,0.1,5.6-0.1c-1.4-1.4-2.9-2.8-4.5-4C182.8,239.7,182.7,240.8,182.5,241.9z"/>
<path class="st3" d="M195.9,344.8c16.3-1.4,32-14.6,44.1-28.4C234.8,313.8,211.1,304.7,195.9,344.8z M239.9,295.3
	c-0.9-1-2-1.9-3.2-2.7c-0.4-0.2-0.7-0.5-1.1-0.7c-36.5,6.6-61.2,1.1-61.2,1.1v1.2c0.2,6.2,3.3,12.9,3.3,12.9
	C199.2,313.6,225.1,303.1,239.9,295.3L239.9,295.3z M248.4,294.6c1.1,2.6,2,5.3,2.7,8c5.4-7.4,9.3-13.7,11-16.6
	c-1.6,0.4-3.4,0.7-5.5,1.1C254.2,289.9,251.4,292.4,248.4,294.6L248.4,294.6z"/>
<path class="st3" d="M186.4,312.7c-0.4,7.2-0.5,12.8-0.3,17.1c2.8-3,28.8-29.7,55.2-14.8c1.5-1.7,2.9-3.5,4.3-5.2
	c-0.5-3.8-1.6-7.5-3.3-10.9C231,306,212.6,313.5,186.4,312.7L186.4,312.7z M248.8,289.1l-2.8,0.7c0,0.1,0.1,0.1,0.1,0.2
	c0.3,0.5,0.6,1,0.9,1.5c3.2-1.9,5.1-3.1,5.1-3.1C250.9,288.6,249.9,288.9,248.8,289.1L248.8,289.1z"/>
<path d="M181.2,235.5c0.3,0.8,0.6,1.7,0.8,2.5c0.3,0.2,0.6,0.4,0.8,0.6c0,1.1-0.1,2.2-0.3,3.3c1.2-1.1,2.1-2.4,2.6-4L181.2,235.5z"
	/>
<path class="st3" d="M186.4,312.7c-0.4,7.2-0.5,12.8-0.3,17.1c2.8-3,28.8-29.7,55.2-14.8c1.5-1.7,2.9-3.5,4.3-5.2
	c-0.5-3.8-1.6-7.5-3.3-10.9C231,306,212.6,313.5,186.4,312.7L186.4,312.7z"/>
<path class="st3" d="M210.9,316.2c0,0-19.6,5.2-24.4,18.9c1.1,9.4,4,9.7,7.1,9.8C195,338.9,199.4,325.4,210.9,316.2L210.9,316.2z
	 M239.9,295.3c-0.9-1-2-1.9-3.2-2.7c-0.4-0.2-0.7-0.5-1.1-0.7c-36.5,6.6-61.2,1.1-61.2,1.1v1.2c0.2,6.2,3.3,12.9,3.3,12.9
	C199.2,313.6,225.1,303.1,239.9,295.3L239.9,295.3z"/>
<path class="st3" d="M195.9,344.8c16.3-1.4,32-14.6,44.1-28.4C234.8,313.8,211.1,304.7,195.9,344.8z M248.4,294.6
	c1.1,2.6,2,5.3,2.7,8c5.4-7.4,9.3-13.7,11-16.6c-1.6,0.4-3.4,0.7-5.5,1.1C254.2,289.9,251.4,292.4,248.4,294.6L248.4,294.6z
	 M248.8,289.1l-2.8,0.7c0,0.1,0.1,0.1,0.1,0.2c0.3,0.5,0.6,1,0.9,1.5c3.2-1.9,5.1-3.1,5.1-3.1C250.9,288.6,249.9,288.9,248.8,289.1
	L248.8,289.1z"/>
<path class="st0" d="M161.7,239c-2.6-3.2-4.2-7.1-4.7-11.2c-3.4-0.5-6.9-0.7-10.4-0.6C148,229.4,153.4,236.5,161.7,239L161.7,239z"
	/>
<path d="M472.6,203.1L275.4,16.9L36.8,190.6c0,0-8,28,105,35.6c-1.1,6.3-2.4,10.8-2.4,10.8c-15.8,59.1-1.4,76.6-1.4,76.6
	c5.2,4.8,10.2,10,14.7,15.5c-3.9,37-1,85.1,5.3,111.6c0,0-2.5-58.9,0.9-103.6c1.5,2.2,3,4.4,4.3,6.6c8.8,15.3,20.4,17,20.4,17
	l2.2,0.4c3,63.5,18.5,114.8,18.5,114.8s-0.4-12.2,0-19.5c3.1-25.6,6.3-74.9,7.5-94.2c10.4-1.4,20.7-5.2,34.7-12.3
	c-0.9,22.9-2.9,53.4-3.9,93.4c0,0,11.1-52.4,12.1-97.7l0.2-0.1c12.8-6.9,28.6-16.2,49.4-28.2c25.2-19.5,38.5-53.7,38.5-53.7
	c18.5-1.4,41.3-24.4,33.3-33.3C427.4,226.7,466.1,218.8,472.6,203.1L472.6,203.1z M208.1,71.6l66.6-46L322,70.1l121.6,115.2
	c-43.3-16.8-128.3-30.8-128.3-30.8s-73.2-7.4-112.4-5.1c0,0-79.3,2.1-139.6,28.6L208.1,71.6z M160.2,228.4c8.2,1.5,16,5,22.6,10.2
	c1.6,1.2,3.1,2.6,4.5,4c-1.9,0.1-3.8,0.1-5.6,0.1C165.3,241.9,161.1,232,160.2,228.4z M161.7,239c-8.3-2.6-13.6-9.6-15.1-11.8
	c3.5-0.1,6.9,0.1,10.4,0.6C157.5,231.9,159.1,235.8,161.7,239L161.7,239z M182.9,230.8c-3.6-7.1-12-11.8-18.6-10.5
	c6.1,1.8,11.3,5.9,14.5,11.4c0,0-9.4-7.9-28.5-8.2c0,0,4-2.8,7.5-2.9c0,0-7.4-0.6-12,1.8c0.2-1,0.3-2,0.5-3.1c0.3-2.1,0.6-4.5,0.8-7
	c0,0,0-0.1,0-0.1v-0.4c0.1-1.2,0.2-2.4,0.2-3.6v-0.6c0-1.2,0.1-2.5,0.1-3.7c0-1.2,0-2.5-0.1-3.7v-0.7c-0.1-1.2-0.2-2.4-0.3-3.6
	c0-0.2-0.1-0.4-0.1-0.7c-0.1-1.2-0.3-2.4-0.6-3.6c-0.1-0.5-0.2-1-0.2-1.6v-0.4c0-0.5,0-1.1,0.1-1.7v-0.6c0.1-0.8,0.2-1.6,0.3-2.5
	s0.3-2.1,0.5-3.2c0.4-2.3,0.9-4.7,1.5-7.2h0.1c5.7,0.1,11.4,1.2,16.8,3.2c23.5,9.1,26.4,35,24.5,54.7c-0.2,2.6-0.6,5.1-1,7.5
	C186.5,237.2,184.5,234.1,182.9,230.8L182.9,230.8z M152.9,158.3c0-0.1,0.1-0.2,0.1-0.4c0.1-0.4,0.2-0.8,0.4-1.2l0.8-0.2
	c2.3-0.5,4.7-0.9,7.1-1.1c0,0-1.4,0.9-3.1,2c-2.2,1.4-4.2,3-6.1,4.8c-0.2,0.3-0.4,0.6-0.6,0.9L152.9,158.3L152.9,158.3z M42.9,194.3
	c0,0,46.1-26.9,106.8-37.1c-0.2,0.7-0.4,1.4-0.7,2.1c-0.4,1.2-0.7,2.3-1.1,3.4c-6.5,21.5-5.2,25.9-4.2,39.5c0.3,6.2,0,12.5-1,18.7
	C130.8,220.4,66,216.9,42.9,194.3L42.9,194.3z M153.5,322.8c-2.9-3.3-6.1-6.4-9.4-9.3v0l-0.2-0.2c0,0-12.7-10.5-7.6-46
	c2.9-21.4,6-31.2,8-37.7c12.8,21.1,38.9,15.8,44,14.5c-0.1,0.6-0.2,1.1-0.4,1.7c-0.6,2.6-1.1,4.7-1.7,6.5c-0.2,0.5-0.3,1.1-0.5,1.5
	c-3.1,0-25.1,15.4-6.6,24.7c-1.4-0.3-2.8-0.3-4.2-0.2C163.5,278.8,156.8,297.6,153.5,322.8L153.5,322.8z M222.7,356.5L222.7,356.5
	c-2.4,0.9-4.9,1.6-7.3,2.2l-0.6,0.1c-1,0.2-2,0.4-2.9,0.5c0.2-3.5,0.3-5.5,0.3-5.5c-1.1-1-4.6,1.2-4.6,1.2c-0.4-1.1-1.1-2.1-1.9-3
	l-0.3-0.3c-0.1,0-0.4,0.2-0.5,0.5c-0.3,0.4-0.5,0.8-0.7,1.3l-0.9-0.9l-1.1-1c-1,1-1.8,2.1-2.6,3.3c-0.4-1-1-2-1.6-2.9
	c-0.5,0.3-1.4,4.5-1.4,4.5c-0.4-2-1.4-3.8-2.6-5.4c-1,1.1-1.8,2.3-2.4,3.6c-0.4-1.9-4.2-4.2-4.2-4.2l-0.9,1.8l-1-1
	c0.1,1.9,0.1,3.8,0.2,5.7c-0.1,0-0.2-0.1-0.3-0.1c-1-0.4-1.9-0.8-2.9-1.2l-0.9-0.4c-0.8-0.4-1.6-0.8-2.4-1.2
	c-0.4-0.2-0.9-0.5-1.3-0.8c-0.6-0.4-1.2-0.8-1.8-1.2s-1.2-0.8-1.7-1.3s-0.9-0.7-1.3-1c-0.7-0.6-1.4-1.2-2-1.8
	c-0.3-0.3-0.6-0.5-0.9-0.8c-0.8-0.8-1.5-1.6-2.2-2.4c-0.2-0.2-0.4-0.5-0.6-0.7c-0.8-1-1.6-2-2.3-3l-0.4-0.6
	c-0.8-1.1-1.5-2.2-2.2-3.4c-0.1-0.2-0.2-0.4-0.4-0.6c-0.8-1.4-1.6-2.8-2.4-4.2l-0.2-0.3c1.7-18.6,4.5-34.1,9.1-40.7l3.6,1
	c-0.6,13.7-0.8,18.9,11,20.4c0.3,3,1.4,16.7,0.5,24.3c-1.2,10.1,17.6,31.5,60.2-20.3c0.8-1,1.6-2,2.4-3c0.7,7.5,0.9,15.1,0.7,22.6
	c-0.1,3.1-0.1,6.4-0.3,9.9c2.7-1.3,5.3-2.7,8-4.1C243,347.9,231.6,353.3,222.7,356.5L222.7,356.5z M240,316.5
	c-12.1,13.7-27.8,26.9-44.1,28.4C211.1,304.7,234.8,313.8,240,316.5L240,316.5z M193.6,344.8c-3.1-0.1-6-0.3-7.1-9.8
	c4.9-13.6,24.4-18.9,24.4-18.9C199.4,325.4,195,338.9,193.6,344.8L193.6,344.8z M186.1,329.8c-0.2-4.3-0.1-9.9,0.3-17.1
	c26.2,0.8,44.5-6.7,55.9-13.8c1.7,3.4,2.8,7.1,3.3,10.9c-1.4,1.7-2.8,3.5-4.3,5.2C214.9,300.1,188.9,326.8,186.1,329.8L186.1,329.8z
	 M177.7,307.2c0,0-3.1-6.7-3.3-12.9c0-0.4-0.1-0.8,0-1.2c0,0,24.8,5.5,61.2-1.1c0.4,0.2,0.7,0.5,1.1,0.7c1.2,0.7,2.3,1.6,3.2,2.7
	C225.1,303.1,199.2,313.6,177.7,307.2L177.7,307.2z M246.9,291.5c-0.3-0.5-0.6-1-0.9-1.5c0-0.1-0.1-0.1-0.1-0.2l2.8-0.7
	c1.1-0.2,2.1-0.5,3.2-0.8C252,288.3,250.2,289.6,246.9,291.5L246.9,291.5z M256.7,287c2-0.4,3.8-0.7,5.5-1.1
	c-1.7,2.9-5.6,9.2-11,16.6c-0.7-2.7-1.6-5.4-2.7-8C251.5,292.4,254.2,289.8,256.7,287L256.7,287z M373.5,237.6
	c-0.2,0.6-0.4,1.1-0.8,1.6l-0.1,0.1c-0.4,0.6-0.8,1.1-1.3,1.6l-0.2,0.2c-0.5,0.6-1.1,1.1-1.7,1.7c-0.7,0.6-1.4,1.1-2.2,1.7
	c-0.8,0.6-1.6,1.1-2.4,1.7l-0.2,0.1c-0.9,0.6-1.7,1.1-2.6,1.7c-1.9,1.1-3.8,2.2-5.7,3.2l-0.2,0.1c-1,0.5-1.9,1-2.8,1.4h-0.1
	c-1.9,0.9-3.6,1.8-5.3,2.6l-0.2,0.1l-2.2,1l-0.1,0c-1.4,0.6-2.5,1.1-3.3,1.5h-0.1l-0.9,0.4l-0.1,0l-0.2,0.1c0,0-17.8,39.9-36,53.1
	c-0.6,0.4-1.2,0.9-1.9,1.3l-0.5,0.4l-1.6,1.1l-0.7,0.5l-1.8,1.2l-0.9,0.6l-1.6,1.1l-1,0.6l-1.7,1.1l-1,0.6l-1.8,1.2l-1.1,0.7
	l-1.9,1.2l-1.1,0.7l-2,1.2l-1.2,0.7l-2.1,1.2l-1.1,0.7l-2.2,1.3l-1.1,0.7l-2.3,1.3l-1.1,0.7l-2.4,1.4l-1.1,0.6l-2.6,1.5l-0.9,0.5
	l-3.2,1.8l-0.4,0.2c-2.7,1.5-5.3,2.9-8,4.3c0-3.5,0-7-0.1-10.3c-0.1-8.6-1-17.1-2.7-25.5l0.4-0.6c4.4-6,9.1-12.7,14-20.3
	c14-3.9,7.1-7.7,7.1-7.7c5.2-0.7,10.4,1,14.2,4.7c-1.5-6.6-10.5-9.8-17.4-8.5s-3.2,5.1,2.4,6c-9.3,3.1-18.8,5.7-28.4,7.7
	c-2.5-3.3-6.1-5.7-10.1-6.6c0,0-18.4-1-23.2,2.1s-3.2,8.2,5.1,7.4c4.3-0.6,8.7-0.7,13-0.2c-32.6,4.4-53.6-0.4-57.8-1.5
	c0.8-0.5,1.7-0.8,2.7-0.9c0,0,8.7,4.2,11.6-0.4c1.7-2.5,0.7-5.3-1.9-7.1c2.1,0.7,4.2,1.3,6.3,1.8c-4.6-2.4-9.2-13.3-9.2-13.3
	c-2,3.3-0.7,7.3-0.7,7.3c-15.1-13.3,8.4-18.5,8.4-18.5c7.8-27,6.2-55.9-4.3-82c-2.6-6.6-5.9-12.9-9.7-18.9c-0.5-0.8-1.1-1.7-1.7-2.5
	c1.9-0.3,3.9-0.6,5.9-0.8l2-0.2l4.1-0.4c0.8-0.1,1.6-0.1,2.4-0.2l3.8-0.3l2.6-0.2c1.3-0.1,2.5-0.2,3.8-0.2l2.6-0.1l3.8-0.2l2.6-0.1
	c1.3,0,2.6-0.1,3.9-0.1h15.6c1.6,0,3.2,0.1,4.8,0.1h1.7c2,0,4,0.1,6,0.2h0.5c4.4,0.2,8.8,0.4,13.2,0.7l1,0.1
	c1.8,0.1,3.6,0.2,5.3,0.4l1.5,0.1l4.7,0.4l1.8,0.1l4.4,0.4l1.8,0.1l4.2,0.4l1.8,0.2l4.1,0.4l1.6,0.2l4,0.4l1.5,0.2l4.1,0.5l1.2,0.1
	l4.2,0.5l0.9,0.1c4.9,0.6,9.5,1.2,13.5,1.8l1.5,0.2l2.2,0.3l1.7,0.2l1.8,0.3l1.7,0.2l1.4,0.2l1.7,0.3l0.8,0.1l1.8,0.3h0.4l2.1,0.3
	l0.8,0.1l0.5,0.1l0.6,0.8c0.5,0.8,1.1,1.6,1.7,2.4c4,6,8.3,13.8,8.5,20.9c-0.7,4-1.6,8-2.8,11.9l0,0.2c-0.2,0.8-0.4,1.5-0.7,2.3
	l-0.1,0.2c0,0.1,0,0.1,0,0.2v0.1l-0.5,1.5c-0.2,0.6-0.4,1.3-0.6,1.9c0,0,0,0.1,0,0.1c-0.1,0.5-0.3,0.9-0.4,1.4
	c-0.3,1.1-0.6,2.1-1,3.2l-0.4,1.4l-0.2,0.8c-0.1,0.4-0.3,0.9-0.4,1.3s-0.3,1.1-0.5,1.7v0.1c-0.3,1-0.6,2-1,3c0,0.1,0,0.1-0.1,0.2
	c-0.1,0.4-0.2,0.8-0.4,1.2l-0.5,1.5c0,0.1-0.1,0.3-0.1,0.4c-0.4,1.3-0.8,2.5-1.2,3.8c-0.1,0.2-0.1,0.4-0.2,0.6s-0.1,0.4-0.2,0.6
	c-0.8,2.5-1.6,4.8-2.2,6.8c-1.5,4.5-2.5,7.4-2.5,7.4v9.6l0.5,0.1l10.3,1.4c0,0,0.9-0.1,1,1.6c0,0,0.1-0.1,0.2-0.2
	c0.1-0.2,0.3-0.4,0.6-0.7l0.1-0.1c0.2-0.3,0.6-0.6,0.9-1c0,0,0.1-0.1,0.1-0.1l1.2-1.3l0.1-0.2c0.5-0.5,0.9-1,1.5-1.6l0.2-0.2
	c0.5-0.6,1.1-1.1,1.7-1.7l0.2-0.1c0.6-0.6,1.3-1.2,2-1.9l0.1-0.1c0.7-0.6,1.4-1.2,2.1-1.9l0.1-0.1l1.3-1.1l0.4-0.3
	c0.3-0.2,0.6-0.5,0.9-0.7l0.5-0.4l0.9-0.6l0.6-0.4l0.8-0.6l0.6-0.4l0.8-0.5l0.6-0.4l0.8-0.5l0.6-0.4c0.3-0.1,0.5-0.3,0.8-0.4
	l0.6-0.3c0.3-0.1,0.5-0.2,0.8-0.4s0.4-0.2,0.6-0.3l0.8-0.3l0.6-0.2l0.8-0.2l0.6-0.1l0.8-0.1l0.6-0.1c0.3,0,0.5,0,0.8-0.1h1.9
	c0.3,0,0.5,0.1,0.8,0.1l0.5,0.1c0.3,0.1,0.6,0.2,0.8,0.3c0.1,0.1,0.3,0.1,0.4,0.1c0.4,0.2,0.8,0.4,1.2,0.7c0.3,0.2,0.5,0.4,0.7,0.6
	c0.4,0.3,0.7,0.7,0.9,1.2v0.1C373.8,235.7,373.9,236.7,373.5,237.6L373.5,237.6z M368.9,225.8c0.9-12.8,0.8-29.2,0.5-41.1
	c-0.1-6.3-0.4-11.3-0.5-13.8s70.4,9.3,97.2,34.8C466.1,205.6,447.9,218.8,368.9,225.8L368.9,225.8z"/>
<path class="st4" d="M192.4,353.1l-1.8,0c0.5,0.4,0.8,1,1,1.6C191.6,354.7,191.9,354,192.4,353.1z M195.4,353.1
	c0.6,1.1,1,2.2,1.3,3.4c0,0,0.4-2.1,0.9-3.4C196.8,353.1,196.1,353.1,195.4,353.1L195.4,353.1z M199.6,354.9c0,0,0.8-1.1,1.6-2.1
	c-0.7,0-1.6,0.1-2.5,0.2C199.1,353.6,199.4,354.2,199.6,354.9L199.6,354.9z M161.5,335.7l0.4,0.6c0.1,0.2,0.2,0.4,0.4,0.6
	c0.7,1.2,1.5,2.3,2.2,3.4l0.4,0.6c0.8,1,1.5,2,2.3,3c0.2,0.2,0.4,0.5,0.6,0.7c0.7,0.8,1.5,1.6,2.2,2.4c0.3,0.3,0.6,0.6,0.9,0.8
	c0.7,0.6,1.4,1.3,2,1.8c0.4,0.4,0.9,0.7,1.3,1s1.1,0.9,1.7,1.3s1.2,0.8,1.8,1.2c0.4,0.3,0.9,0.6,1.3,0.8c0.8,0.5,1.6,0.9,2.4,1.2
	l0.9,0.4c1,0.4,1.9,0.8,2.9,1.2c0.1,0,0.2,0.1,0.3,0.1c-0.1-1.3-0.1-2.5-0.1-3.8l-0.1-0.8C185.4,352.3,167.3,344.1,161.5,335.7
	L161.5,335.7z"/>
<path d="M246.6,345.9l-0.6,0.3L246.6,345.9z M362.5,232.5l0.8-0.2L362.5,232.5z M337.8,203.6c0.2-0.6,0.4-1.3,0.6-1.9
	c-0.1,0.4-0.2,0.9-0.4,1.3C338,203.2,337.9,203.4,337.8,203.6z M336.9,206.8c-0.2,0.5-0.3,1.1-0.5,1.6c0.3-1.1,0.7-2.2,1-3.2
	l-0.3,1.1L336.9,206.8z M147.3,199.6v0.7V199.6z M146.6,185c-0.1,0.9-0.2,1.7-0.3,2.5c0-0.4,0.1-0.9,0.1-1.3S146.6,185.4,146.6,185z
	 M335.8,167.1c0.5,0.8,1,1.6,1.5,2.5l0.1,0.3c0.5,0.9,0.9,1.7,1.4,2.6c0,0.1,0.1,0.1,0.1,0.2c0.4,0.9,0.9,1.9,1.3,2.8
	c0,0,0,0.1,0,0.1c0.4,1,0.8,2,1.1,2.9c0.3,1,0.6,2,0.8,3c0.2,0.9,0.3,1.7,0.4,2.6v0.4c0,0.1,0.1,0.4,0.1,0.7
	c-0.3-7.1-4.5-14.9-8.5-20.9c0.5,0.8,1.1,1.6,1.6,2.5L335.8,167.1z M363.9,232.1l0.8-0.1L363.9,232.1z M338.1,251.9l0.2-0.2
	C338.2,251.8,338.1,251.9,338.1,251.9z M338.9,199.9c0,0.1,0,0.1,0,0.2C338.9,200,338.9,199.9,338.9,199.9z M338.4,251.6l0.6-0.7
	C338.7,251.3,338.5,251.5,338.4,251.6z M339,250.9c0.2-0.3,0.6-0.6,0.9-1C339.6,250.2,339.3,250.6,339,250.9z M146.2,189.7
	c0-0.5,0-1.1,0.1-1.7C146.2,188.7,146.2,189.2,146.2,189.7z M340,249.7l1.2-1.3L340,249.7z M222.6,356.5c-2.4,0.9-4.8,1.6-7.2,2.2
	C217.8,358.1,220.2,357.3,222.6,356.5z M266.3,335.5l-3.2,1.8L266.3,335.5z M144.1,313.4L144.1,313.4L144.1,313.4z M146.4,191.7
	c-0.1-0.5-0.2-1-0.2-1.6C146.2,190.7,146.3,191.2,146.4,191.7z M347,242.7c0.7-0.6,1.4-1.2,2.1-1.9C348.3,241.4,347.6,242,347,242.7
	z M353.8,237.1l0.8-0.6L353.8,237.1z M355.3,236.1l0.8-0.5L355.3,236.1z M356.7,235.2l0.8-0.5L356.7,235.2z M358.2,234.3
	c0.3-0.1,0.5-0.3,0.8-0.4C358.7,234,358.4,234.2,358.2,234.3z M361.1,233l0.8-0.3L361.1,233z M344.9,244.6c0.6-0.6,1.3-1.2,2-1.9
	C346.2,243.4,345.5,244,344.9,244.6z M343,246.5c0.5-0.6,1.1-1.1,1.7-1.7C344.1,245.4,343.6,246,343,246.5z M352.4,238.1l0.9-0.6
	L352.4,238.1z M350.9,239.2c0.3-0.2,0.6-0.5,0.9-0.7C351.5,238.7,351.2,239,350.9,239.2z M349.2,240.7l1.3-1.1L349.2,240.7z"/>
<path class="st4" d="M154.2,156.7l-0.8,0.2l-0.4,1.5l-1.5,4.9c0.1-0.3,0.3-0.6,0.6-0.9c1.9-1.8,3.9-3.4,6.1-4.8c1.7-1.2,3.1-2,3.1-2
	C158.9,155.9,156.5,156.2,154.2,156.7z"/>
</svg>
