<svg id="Layer_8" data-name="Layer 8" xmlns="http://www.w3.org/2000/svg" viewBox="0 0 500 500"><defs><style>.cls-1{fill:#fff;}.cls-2{fill:#e0a882;}.cls-3{fill:#f9d750;}.cls-4{fill:none;}.cls-5{fill:#bc8e6f;}.cls-6{fill:#730000;}.cls-7{fill:#820d1a;}.cls-8{fill:#c14250;}.cls-9{fill:#241515;}.cls-10,.cls-11{fill:#cdb140;}.cls-10{opacity:0.5;}.cls-12{fill:#ba9175;}.cls-13{fill:red;}.cls-14{fill:#b7b7b7;}</style></defs><title>logo-white-bg</title><circle class="cls-1" cx="250" cy="250" r="208.75"/><polygon class="cls-1" points="184.46 238.26 187.32 242.63 181.68 242.68 184.46 238.26"/><path class="cls-2" d="M246.84,336a184.56,184.56,0,0,0-.69-22.61c-.82,1-1.64,2-2.44,3,0,0,0,0,0,0h0c-42.57,51.86-61.37,30.48-60.18,20.34.88-7.58-.22-21.31-.48-24.31-11.74-1.46-11.58-6.68-11-20.35l-3.55-1.05c-4.64,6.64-7.45,22.14-9.12,40.74.05.11.11.21.16.31.54,1.08,1.09,2.14,1.66,3.13,6.66,11.63,15.13,18.29,24.38,21.69-.08-1.88-.14-3.77-.19-5.67l1,1,.92-1.8s3.81,2.33,4.24,4.24a14.84,14.84,0,0,1,2.44-3.6,12.92,12.92,0,0,1,2.65,5.4s.85-4.13,1.38-4.45a14.28,14.28,0,0,1,1.59,2.86,32.07,32.07,0,0,1,2.65-3.28l1.09,1,.93.87a11.26,11.26,0,0,1,.73-1.27c.19-.29.39-.53.54-.53l.27.33a10.13,10.13,0,0,1,1.85,3s3.5-2.12,4.56-1.17c0,0-.12,2-.33,5.47h0c.88-.12,1.84-.3,2.85-.52l.55-.12a68.82,68.82,0,0,0,7.24-2.18l.07,0a219.82,219.82,0,0,0,23.93-10.54C246.7,342.41,246.79,339.12,246.84,336Z"/><path class="cls-3" d="M158.2,157.62l-4.84.47c-.37,1.2-.81,2.69-1.3,4.34h0A41.9,41.9,0,0,1,158.2,157.62Z"/><path class="cls-2" d="M174.92,278a16,16,0,0,1,4.16.25c-18.47-9.29,3.51-24.65,6.65-24.65.16-.44.33-1,.5-1.54.54-1.73,1.12-3.92,1.68-6.47.12-.54.24-1.11.36-1.66-5.17,1.29-31.24,6.59-44-14.49-2,6.58-5,16.37-8,37.74-3.89,32.75,7.64,46,7.64,46l.21.18,0,.05a109.53,109.53,0,0,1,9.41,9.34C156.81,297.57,163.54,278.79,174.92,278Z"/><path class="cls-2" d="M157.84,220.72c-3.5.11-7.53,2.87-7.53,2.87,19.09.31,28.53,8.16,28.53,8.16a25,25,0,0,0-14.53-11.45c6.58-1.27,14.95,3.39,18.56,10.5a40.45,40.45,0,0,0,6.16,9.12c.39-2.35.74-4.84,1-7.47,1.92-19.65-1-45.63-24.49-54.69a52.34,52.34,0,0,0-16.75-3.21c-.91,3.7-1.7,7.36-2.16,10.44-.06.4-.12.81-.16,1.19s-.12.9-.15,1.3c0,.2,0,.38,0,.57-.05.6-.07,1.16-.07,1.67,0,.15,0,.31,0,.45a7.44,7.44,0,0,0,.18,1.56,58.14,58.14,0,0,1,.94,7.84v0l0,.7v0c.06,1.23.1,2.47.1,3.71h0v0q0,1.88-.09,3.72v0c0,.18,0,.36,0,.54h0c-.06,1.34-.15,2.66-.26,3.94v.09h0c-.31,3.81-.79,7.29-1.28,10.1C150.4,220.11,157.84,220.72,157.84,220.72Z"/><path class="cls-2" d="M373.63,235.79a3,3,0,0,0-.27-.72l0-.06a3.72,3.72,0,0,0-.51-.73c-.13-.15-.28-.3-.43-.45a6.46,6.46,0,0,0-.73-.59,8.58,8.58,0,0,0-1.17-.67c-.13,0-.27-.09-.4-.15a8.22,8.22,0,0,0-.83-.3l-.5-.12c-.26-.05-.51-.11-.78-.15l-.56,0c-.25,0-.5,0-.76,0l-.59,0c-.26,0-.51,0-.77.05l-.61.09-.78.15-.63.15-.78.22-.64.22-.8.29c-.21.09-.43.17-.64.27s-.54.23-.8.36l-.64.31c-.28.13-.55.28-.82.42l-.63.35-.82.48-.62.37-.83.54-.6.4-.84.59-.58.4-.85.64-.53.41c-.32.24-.63.49-.94.74l-.42.34-1.3,1.09-.13.12c-.72.62-1.43,1.25-2.1,1.87l-.11.1c-.69.64-1.34,1.26-2,1.87l-.16.15c-.6.6-1.18,1.18-1.72,1.74l-.17.18c-.53.55-1,1.06-1.47,1.55l-.15.16L340,249.73l-.1.12c-.35.39-.66.74-.91,1l-.07.08-.57.67,0,0-.19.24c-.11-1.7-1-1.59-1-1.59l-10.26-1.39-.49-.07v-9.61s1.51-4.46,3.61-10.86c.31-.95.63-1.94,1-3,0-.14.09-.27.13-.41.13-.41.26-.81.4-1.22l.24-.75c.27-.82.53-1.64.8-2.49.06-.17.11-.35.17-.52.2-.64.41-1.28.61-1.93l.24-.73.15-.49c.35-1.1.71-2.22,1.06-3.34l.12-.39.4-1.3c.36-1.15.72-2.3,1.07-3.45.17-.54.34-1.09.5-1.63l.15-.5.33-1.1c.16-.53.32-1.05.47-1.57.07-.21.13-.42.19-.62.13-.44.25-.87.38-1.3l.48-1.62a1.21,1.21,0,0,1,.05-.18c.26-.93.52-1.84.77-2.72l.15-.56c.25-.87.48-1.72.7-2.53l.08-.32c.19-.71.37-1.4.53-2.06.06-.22.11-.43.16-.64.18-.73.35-1.43.5-2.08l0-.15c.14-.6.25-1.16.35-1.68l.09-.43c.1-.55.19-1.06.24-1.49,0-.22-.06-.45-.07-.67q-16.09-3-30.85-5c6.52-.35,10.42-.38,10.42-.38-10.9-12.17-36.49-21.06-36.49-21.06a127.26,127.26,0,0,0-44.23,15.27,436.09,436.09,0,0,0-57.22,1.91,126,126,0,0,1,4.3,82S165,262.51,180,275.77c0,0-1.28-4,.69-7.26,0,0,4.56,11,9.17,13.34a63,63,0,0,1-6.34-1.76c2.57,1.82,3.52,4.55,1.86,7.1-3,4.56-11.64.35-11.64.35a5.07,5.07,0,0,0-2.66.87c4.29,1.14,25.2,5.95,57.84,1.51a50.25,50.25,0,0,0-13,.24c-8.34.84-9.9-4.25-5.09-7.36s23.19-2.08,23.19-2.08a17.47,17.47,0,0,1,10.13,6.57,249.46,249.46,0,0,0,28.41-7.7c-5.65-1-9.26-4.77-2.4-6s15.91,1.91,17.39,8.49a17,17,0,0,0-14.14-4.74s7,3.76-7.08,7.67c-4.92,7.61-9.59,14.34-14,20.34l-.42.56a141,141,0,0,1,2.73,25.54c.1,3.37.13,6.83.09,10.34l.68-.36q3.66-1.94,7.31-3.95l.4-.22,3.16-1.75.85-.48,2.64-1.49,1.11-.64,2.37-1.36,1.15-.66,2.28-1.33,1.13-.67,2.21-1.31,1.15-.69,2.06-1.24,1.18-.71,2-1.21c.37-.23.73-.46,1.1-.67l1.91-1.2,1.07-.66,1.83-1.16,1-.62,1.73-1.12,1-.61,1.6-1.06.89-.58,1.61-1.08.69-.46,1.56-1.07.55-.39c.67-.46,1.3-.91,1.89-1.34,18.25-13.15,36-53.07,36-53.07l.25-.11.12-.05.87-.37.12,0c.81-.35,1.94-.84,3.31-1.46l.11-.05,2.2-1,.18-.08c1.61-.75,3.4-1.6,5.26-2.55l.06,0c.92-.47,1.86-.94,2.8-1.44l.21-.11c1.92-1,3.86-2.1,5.71-3.22h0c.9-.55,1.78-1.1,2.63-1.66l.22-.14c.84-.56,1.65-1.12,2.41-1.69l0,0c.78-.58,1.51-1.16,2.18-1.73l0,0c.64-.56,1.21-1.11,1.73-1.66l.17-.18a12.39,12.39,0,0,0,1.26-1.6l.06-.11a6.27,6.27,0,0,0,.76-1.57v0A3.7,3.7,0,0,0,373.63,235.79ZM216.39,192.86c1.59.41,8.45,1.77,19.51-1.27a302.05,302.05,0,0,1,36.67-8c-15.48,5.5-56.14,23.24-61.27,59.38C211.3,243,207,211.93,216.39,192.86Zm97.31,44.49c-10.79-10-25.08-13.87-25.08-13.87a20.25,20.25,0,0,1,5.3,4A78.69,78.69,0,0,0,276,220l.43.05C249,210,228.05,227.19,222.84,234.3a29.49,29.49,0,0,1-2,3c15.8-27.76,55.85-34.23,96.29-5.45C319.64,234.55,316.66,237,313.7,237.35Z"/><path class="cls-4" d="M315.24,154.55s85.06,14,128.33,30.75L322,70.11,274.72,25.57l-66.61,46L63.23,178.09c60.25-26.52,139.58-28.64,139.58-28.64C242.05,147.11,315.24,154.55,315.24,154.55Z"/><path class="cls-4" d="M368.92,170.86c0,.31.36,7.77.45,13.81.29,11.88.43,28.31-.46,41.12h0c79-6.95,97.22-20.2,97.22-20.2-26.86-25.45-97.21-34.77-97.22-34.77A.06.06,0,0,0,368.92,170.86Z"/><path class="cls-4" d="M149,159.27c.21-.68.44-1.39.66-2.08C89,167.41,42.87,194.3,42.87,194.3c23.08,22.61,87.94,26.12,99.82,26.57a88.55,88.55,0,0,0,1-18.67c-1-13.68-2.33-18,4.21-39.54Q148.41,161,149,159.27Z"/><path class="cls-4" d="M147.12,181.76c-.8,4.41-1.19,8.13-.73,10,2.82,14.29-.71,33-1.91,36.92-2,6.58-5.31,16.26-8.28,38.53-3.89,32.75,7.64,46,7.64,46s12.44,10.75,14.71,17c12.55,26.59,33.25,31.64,53.31,29.13s74.67-34.51,92.91-47.66,36-53.07,36-53.07,42.64-17.39,30.86-25.34-33.51,18.67-33.51,18.67c-.11-1.7-.21-2.34-.21-2.34l-11.53-.71v-9.61s14.75-43.48,16.12-54c0-.22-.06-.45-.07-.67C221.28,162.21,156.23,179.09,147.12,181.76Z"/><path class="cls-4" d="M272.57,183.62a302.05,302.05,0,0,0-36.67,8c-11.06,3-17.92,1.68-19.51,1.27C207,211.93,211.3,243,211.3,243,216.43,206.86,257.09,189.12,272.57,183.62Z"/><path class="cls-3" d="M220.86,237.31a29.49,29.49,0,0,0,2-3c5.21-7.11,26.11-24.27,53.58-14.21L276,220a78.69,78.69,0,0,1,17.93,7.47,20.25,20.25,0,0,0-5.3-4s14.29,3.87,25.08,13.87c3-.31,5.94-2.8,3.45-5.49C276.71,203.08,236.66,209.55,220.86,237.31Z"/><path class="cls-5" d="M220.86,237.31a29.49,29.49,0,0,0,2-3c5.21-7.11,26.11-24.27,53.58-14.21L276,220a78.69,78.69,0,0,1,17.93,7.47,20.25,20.25,0,0,0-5.3-4s14.29,3.87,25.08,13.87c3-.31,5.94-2.8,3.45-5.49C276.71,203.08,236.66,209.55,220.86,237.31Z"/><path class="cls-6" d="M148.22,159.49l-.31,3.17q.5-1.64,1.05-3.39Z"/><path class="cls-7" d="M185.39,311.8l.45,20.08,13.58-12.17,22.48-7.23h9l10.61,4,23.33-32-8.48,1.27L240,297.65s-27.22,10.76-27.75,10.54S186.12,311,186.12,311Z"/><path class="cls-8" d="M242.13,316.47s-10.61-3.68-11.88-4-18,2.69-18,2.69l-12.41,4.38-14.45,12.81v8.55l7,5.72s8.69,1.42,9.12,1.28,10.46-5,10.46-5l12.59-8Z"/><path class="cls-9" d="M238.61,230.43c9.82,13.15,34.43,14.38,42.85-2.23C281.46,228.2,258.83,222.23,238.61,230.43Z"/><path class="cls-1" d="M173.89,292v4.94l3,11,15.34,3,22.23-2.41,17.07-5.09,13-8.27,9.62-8.77s-5.73,1.49-6.09,1.63-17.88,2.26-18.59,2.26-25.25,2-25.25,2l-15.27,1.2-10.68-1.34Z"/><path d="M208,278a14.42,14.42,0,0,1-4.93-2.34c-3-2-11.29,1.6-4.56,5.79,2,.84,4.93-.73,4.93-.73s.22-.65,2.39.73S210.18,280.44,208,278Z"/><path class="cls-5" d="M216.39,192.86C207,211.93,211.3,243,211.3,243c5.13-36.14,45.79-53.88,61.27-59.38a302.05,302.05,0,0,0-36.67,8C224.84,194.63,218,193.27,216.39,192.86Z"/><path d="M285.54,158.09a127.26,127.26,0,0,0-44.23,15.27,103.36,103.36,0,0,0-23.9,18.35h0c-.67.73-1,1.15-1,1.15l.42.12c1.6.41,8,1.65,19.09-1.39a302.05,302.05,0,0,1,36.67-8,391.93,391.93,0,0,1,39-4.09c6.52-.35,10.42-.38,10.42-.38C311.13,167,285.54,158.09,285.54,158.09Z"/><path class="cls-9" d="M181.93,237.61a51.67,51.67,0,0,0-21.75-9.22c1,3.58,5.13,13.5,21.5,14.29a16.27,16.27,0,0,0,2.57-2.91c.11-.48-1.52,0-1.46-1.18C182.52,238.37,182.21,237.82,181.93,237.61Z"/><path class="cls-1" d="M248.63,231.35a2.18,2.18,0,1,1-2.17-2.18A2.17,2.17,0,0,1,248.63,231.35Z"/><path class="cls-1" d="M252.53,229.48a1,1,0,1,1-1-1A1,1,0,0,1,252.53,229.48Z"/><path class="cls-1" d="M167.12,233.2a1.35,1.35,0,1,1-1.34-1.34A1.34,1.34,0,0,1,167.12,233.2Z"/><path class="cls-1" d="M169.53,232.05a.63.63,0,0,1-.63.63.63.63,0,1,1,0-1.26A.63.63,0,0,1,169.53,232.05Z"/><path class="cls-4" d="M238.61,230.43c9.82,13.15,34.43,14.38,42.85-2.23C281.46,228.2,258.83,222.23,238.61,230.43Z"/><path class="cls-4" d="M235.48,231.26a39.71,39.71,0,0,0-14.92,11s2.69-1.35,4.45-1.2a167.16,167.16,0,0,0,19.73,0C237.88,239.25,235.48,231.26,235.48,231.26Z"/><path class="cls-4" d="M293.92,227.51A78.69,78.69,0,0,0,276,220l-12.46-.51c-10.36.26-24.42,2.35-32.4,10.95C231.13,230.48,258.49,217.33,293.92,227.51Z"/><path d="M314,237.59a3,3,0,0,0-.26-.24l-.16,0Z"/><path class="cls-10" d="M276,220h0Z"/><path class="cls-10" d="M313.49,237.38c-3,.21.47.21.47.21l-.47-.21Z"/><path d="M293.92,227.51l19.62,9.86.16,0c-10.79-10-25.08-13.87-25.08-13.87A20.25,20.25,0,0,1,293.92,227.51Z"/><path d="M222.84,238.44l3.73-6.38,16-10.91,11.07-2,9.91.4a90.74,90.74,0,0,1,12.89.56C249,210,228.05,227.19,222.84,234.3a29.49,29.49,0,0,1-2,3,50,50,0,0,0-2.78,5.69Z"/><path class="cls-4" d="M294.45,235.5l-1.25.33C293.63,235.73,294,235.62,294.45,235.5Z"/><path class="cls-1" d="M235.48,231.26a39.71,39.71,0,0,0-14.92,11s2.69-1.35,4.45-1.2a167.16,167.16,0,0,0,19.73,0C237.88,239.25,235.48,231.26,235.48,231.26Z"/><path class="cls-1" d="M279,237a62.62,62.62,0,0,0,14.24-1.12l1.25-.33s3.41-1.39,6.25-2.83a124.88,124.88,0,0,0-16.64-4.13S283.31,234.72,279,237Z"/><path class="cls-4" d="M235.48,231.26a39.71,39.71,0,0,0-14.92,11s2.69-1.35,4.45-1.2a167.16,167.16,0,0,0,19.73,0C237.88,239.25,235.48,231.26,235.48,231.26Z"/><path d="M288.62,223.48a20.25,20.25,0,0,1,5.3,4c-35.43-10.18-62.79,3-62.79,3,8-8.6,22-10.69,32.4-10.95a90.74,90.74,0,0,1,12.89.56C249,210,228.05,227.19,222.84,234.3a29.49,29.49,0,0,1-2,3,129.63,129.63,0,0,1-8.61,10.14s3.39-2.54,14.64-2.54c40.23,3,67.56-9.41,67.56-9.41-.41.12-.82.23-1.25.33A62.62,62.62,0,0,1,279,237c4.35-2.23,5.1-8.41,5.1-8.41a124.88,124.88,0,0,1,16.64,4.13c6.49,2.07,11.35,4.09,12.79,4.71h.05l.16,0C302.91,227.35,288.62,223.48,288.62,223.48Zm-50,7c20.22-8.2,42.85-2.23,42.85-2.23C273,244.81,248.43,243.58,238.61,230.43ZM225,241c-1.76-.15-4.45,1.2-4.45,1.2a39.71,39.71,0,0,1,14.92-11s2.4,8,9.26,9.76A167.16,167.16,0,0,1,225,241Z"/><path d="M313.49,237.38l.47.21-.42-.22Z"/><path class="cls-10" d="M313.49,237.38l.47.21-.42-.22Z"/><path class="cls-4" d="M175.31,224.75s5.58,5.59,5.86,5.75,3.61,6.91,3.61,6.91l4.81,4.45.15-1.19a39.16,39.16,0,0,1-6.87-9.87c-3.61-7.11-12-11.77-18.56-10.5l3.13.63Z"/><path class="cls-4" d="M195.94,344.84c16.31-1.44,32-14.63,44.1-28.35C234.79,313.85,211.08,304.68,195.94,344.84Z"/><path class="cls-4" d="M186.41,312.68c-.39,7.2-.47,12.79-.31,17.12,2.76-3,28.84-29.73,55.25-14.84,1.5-1.74,2.93-3.48,4.3-5.2a35.17,35.17,0,0,0-3.33-10.91C231,306,212.62,313.48,186.41,312.68Z"/><path class="cls-4" d="M210.87,316.18s-19.55,5.23-24.4,18.87c1.09,9.44,4,9.66,7.1,9.77C195,338.91,199.39,325.4,210.87,316.18Z"/><path class="cls-4" d="M239.94,295.33A14.91,14.91,0,0,0,235.6,292c-36.46,6.56-61.21,1.07-61.21,1.07-.22,6.56,3.34,14.15,3.34,14.15C199.18,313.61,225.08,303.06,239.94,295.33Z"/><path class="cls-4" d="M246,289.79c.34.54.66,1.11,1,1.68,3.22-1.88,5.09-3.14,5.09-3.14C250,288.86,248,289.33,246,289.79Z"/><path class="cls-4" d="M248.45,294.62a55.37,55.37,0,0,1,2.69,8c5.41-7.41,9.3-13.7,11-16.59-1.63.36-3.42.71-5.46,1.06A53.64,53.64,0,0,1,248.45,294.62Z"/><path class="cls-5" d="M164.31,220.3c6.58-1.27,14.95,3.39,18.56,10.5a40.69,40.69,0,0,0,6.16,9.12c.39-2.35.74-4.84,1-7.47C179.11,213,164.31,220.3,164.31,220.3Z"/><path d="M190.65,233.52c-.2-.39-.42-.7-.63-1.07-.25,2.63-.6,5.12-1,7.47.27.29.52.56.71.75Z"/><path d="M175.31,224.75s5.58,5.59,5.86,5.75,3.61,6.91,3.61,6.91l4.81,4.45.15-1.19a39.16,39.16,0,0,1-6.87-9.87c-3.61-7.11-12-11.77-18.56-10.5l3.13.63Z"/><path class="cls-4" d="M195.94,344.84c16.31-1.44,32-14.63,44.1-28.35C234.79,313.85,211.08,304.68,195.94,344.84Z"/><path class="cls-4" d="M210.87,316.18s-19.55,5.23-24.4,18.87c1.09,9.44,4,9.66,7.1,9.77C195,338.91,199.39,325.4,210.87,316.18Z"/><path class="cls-4" d="M186.41,312.68c-.39,7.2-.47,12.79-.31,17.12,2.76-3,28.84-29.73,55.25-14.84,1.5-1.74,2.93-3.48,4.3-5.2a35.17,35.17,0,0,0-3.33-10.91C231,306,212.62,313.48,186.41,312.68Z"/><path class="cls-4" d="M239.94,295.33A14.91,14.91,0,0,0,235.6,292c-36.46,6.56-61.21,1.07-61.21,1.07-.22,6.56,3.34,14.15,3.34,14.15C199.18,313.61,225.08,303.06,239.94,295.33Z"/><path class="cls-4" d="M246,289.79c.34.54.66,1.11,1,1.68,3.22-1.88,5.09-3.14,5.09-3.14C250,288.86,248,289.33,246,289.79Z"/><path class="cls-4" d="M248.45,294.62a55.37,55.37,0,0,1,2.69,8c5.41-7.41,9.3-13.7,11-16.59-1.63.36-3.42.71-5.46,1.06A53.64,53.64,0,0,1,248.45,294.62Z"/><path class="cls-4" d="M181.17,249.69l.3-.2-.39.22Z"/><path class="cls-5" d="M184.46,247.45a17.77,17.77,0,0,1-3,2l-.3.2-.09,0c-7.26,3.8-16.19,2.42-20.48,1.37h0c6.4,5.16,21.39,2,25.64,1,.54-1.73,1.12-3.92,1.68-6.47Z"/><path class="cls-11" d="M184.46,247.45l-3,2A17.77,17.77,0,0,0,184.46,247.45Z"/><path d="M158.05,250.37s1,.33,2.55.71c4.29,1,13.22,2.43,20.48-1.37l.39-.22,3-2S174.17,251.91,158.05,250.37Z"/><path class="cls-5" d="M277.83,247.45c-3.16.78-16.06,1.63-17.11,1.7,0,0-24.68,5.73-36.34-2.2,0,0,19.16,13.61,55.64,2.11C282.5,247.88,280.45,246.81,277.83,247.45Z"/><path d="M260.72,249.15l-8,1.17-5.73-.4-11.66-.42-11-2.55C236,254.88,260.72,249.15,260.72,249.15Z"/><path d="M224.38,247c11.66,7.93,36.34,2.2,36.34,2.2C245.94,250.14,224.38,247,224.38,247Z"/><path class="cls-5" d="M214.83,262.3c11.88,3.32,8.34,15.84,3.39,17.89-1.77.73-2.84.61-3.37.11h0c.88,2.43,6.65,1.54,6.65,1.54C236.86,265.91,214.83,262.3,214.83,262.3Z"/><path class="cls-10" d="M215,262.43l-.15-.13Z"/><path d="M218.22,280.19c4.95-2.05,8.49-14.57-3.39-17.89l.15.13,5.23,4.54,1.16,3.92-.49,4.2L219,278.47l-4.19,1.83C215.38,280.8,216.45,280.92,218.22,280.19Z"/><path d="M214.83,262.3l.15.13c1.29,1.14,10.67,9.77,1.69,13.87-1.95,1-2.77,3.11-1.82,4,.53.5,1.6.62,3.37-.11C223.17,278.14,226.71,265.62,214.83,262.3Z"/><path class="cls-4" d="M195.94,344.84c16.31-1.44,32-14.63,44.1-28.35C234.79,313.85,211.08,304.68,195.94,344.84Z"/><path class="cls-4" d="M210.87,316.18s-19.55,5.23-24.4,18.87c1.09,9.44,4,9.66,7.1,9.77C195,338.91,199.39,325.4,210.87,316.18Z"/><path class="cls-4" d="M239.94,295.33A14.91,14.91,0,0,0,235.6,292c-36.46,6.56-61.21,1.07-61.21,1.07-.22,6.56,3.34,14.15,3.34,14.15C199.18,313.61,225.08,303.06,239.94,295.33Z"/><path class="cls-4" d="M187.32,242.63a51,51,0,0,0-27.14-14.24C161.24,232.36,166.19,244.12,187.32,242.63Z"/><path class="cls-4" d="M146.59,227.28c1.45,2.12,6.81,9.18,15.07,11.76a22.29,22.29,0,0,1-4.7-11.19A60.64,60.64,0,0,0,146.59,227.28Z"/><path class="cls-4" d="M186.41,312.68c-.39,7.2-.47,12.79-.31,17.12,2.76-3,28.84-29.73,55.25-14.84,1.5-1.74,2.93-3.48,4.3-5.2a35.17,35.17,0,0,0-3.33-10.91C231,306,212.62,313.48,186.41,312.68Z"/><path class="cls-4" d="M246,289.79c.34.54.66,1.11,1,1.68,3.22-1.88,5.09-3.14,5.09-3.14C250,288.86,248,289.33,246,289.79Z"/><path class="cls-4" d="M248.45,294.62a55.37,55.37,0,0,1,2.69,8c5.41-7.41,9.3-13.7,11-16.59-1.63.36-3.42.71-5.46,1.06A53.64,53.64,0,0,1,248.45,294.62Z"/><path class="cls-12" d="M252.34,305.3l-.42.56c2.23,10.19,3,22.67,2.82,35.88l.68-.36C257.75,321.82,253.72,309,252.34,305.3Z"/><path class="cls-4" d="M373.63,235.79l-.1,1.86A3.7,3.7,0,0,0,373.63,235.79Z"/><path class="cls-4" d="M372.82,234.28a5.69,5.69,0,0,0-1.16-1c-6.27-4.24-15.36,1.33-22.5,7.46l-.9,5.48C355.63,239.91,370.35,235.07,372.82,234.28Z"/><path class="cls-4" d="M186.41,312.68c-.39,7.2-.47,12.79-.31,17.12,2.76-3,28.84-29.73,55.25-14.84,1.5-1.74,2.93-3.48,4.3-5.2a35.17,35.17,0,0,0-3.33-10.91C231,306,212.62,313.48,186.41,312.68Z"/><path class="cls-4" d="M239.94,295.33A14.91,14.91,0,0,0,235.6,292c-36.46,6.56-61.21,1.07-61.21,1.07-.22,6.56,3.34,14.15,3.34,14.15C199.18,313.61,225.08,303.06,239.94,295.33Z"/><path class="cls-4" d="M252,288.33c-2.06.53-4.06,1-6.07,1.46.34.54.66,1.11,1,1.68C250.15,289.59,252,288.33,252,288.33Z"/><path class="cls-4" d="M195.94,344.84c16.31-1.44,32-14.63,44.1-28.35C234.79,313.85,211.08,304.68,195.94,344.84Z"/><path class="cls-4" d="M251.14,302.58c5.41-7.41,9.3-13.7,11-16.59-1.63.36-3.42.71-5.46,1.06a53.64,53.64,0,0,1-8.24,7.57A55.37,55.37,0,0,1,251.14,302.58Z"/><path class="cls-4" d="M146.59,227.28c1.45,2.12,6.81,9.18,15.07,11.76a22.29,22.29,0,0,1-4.7-11.19A60.64,60.64,0,0,0,146.59,227.28Z"/><path class="cls-4" d="M187.32,242.63a51,51,0,0,0-27.14-14.24C161.24,232.36,166.19,244.12,187.32,242.63Z"/><path class="cls-4" d="M210.87,316.18s-19.55,5.23-24.4,18.87c1.09,9.44,4,9.66,7.1,9.77C195,338.91,199.39,325.4,210.87,316.18Z"/><path class="cls-4" d="M322,70.11,274.72,25.57l-66.61,46L63.23,178.09c60.25-26.52,139.58-28.64,139.58-28.64,39.24-2.34,112.43,5.1,112.43,5.1s85.06,14,128.33,30.75Z"/><path class="cls-4" d="M368.92,170.86c0,.31.36,7.77.45,13.81.29,11.88.43,28.31-.46,41.12h0c79-6.95,97.22-20.2,97.22-20.2-26.86-25.45-97.21-34.77-97.22-34.77A.06.06,0,0,0,368.92,170.86Z"/><path class="cls-4" d="M142.69,220.87a88.55,88.55,0,0,0,1-18.67c-1-13.68-2.33-18,4.21-39.54q.5-1.64,1.05-3.39c.21-.68.44-1.39.66-2.08C89,167.41,42.87,194.3,42.87,194.3,66,216.91,130.81,220.42,142.69,220.87Z"/><path class="cls-11" d="M334,164.29c-.56-.83-1.12-1.63-1.67-2.38C332.84,162.66,333.4,163.46,334,164.29Z"/><path class="cls-5" d="M147.12,181.76a168.54,168.54,0,0,1,18.41-4,52.52,52.52,0,0,0-16.89-3.22C148.07,177,147.54,179.49,147.12,181.76Z"/><path class="cls-11" d="M153,158c0,.11-.07.25-.11.36l.28-.41Z"/><path class="cls-4" d="M239.94,295.33A14.91,14.91,0,0,0,235.6,292c-36.46,6.56-61.21,1.07-61.21,1.07-.22,6.56,3.34,14.15,3.34,14.15C199.18,313.61,225.08,303.06,239.94,295.33Z"/><path class="cls-4" d="M210.87,316.18s-19.55,5.23-24.4,18.87c1.09,9.44,4,9.66,7.1,9.77C195,338.91,199.39,325.4,210.87,316.18Z"/><path class="cls-4" d="M146.59,227.28c1.45,2.12,6.81,9.18,15.07,11.76a22.29,22.29,0,0,1-4.7-11.19A60.64,60.64,0,0,0,146.59,227.28Z"/><path class="cls-4" d="M186.41,312.68c-.39,7.2-.47,12.79-.31,17.12,2.76-3,28.84-29.73,55.25-14.84,1.5-1.74,2.93-3.48,4.3-5.2a35.17,35.17,0,0,0-3.33-10.91C231,306,212.62,313.48,186.41,312.68Z"/><path class="cls-4" d="M187.32,242.63a51,51,0,0,0-27.14-14.24C161.24,232.36,166.19,244.12,187.32,242.63Z"/><path class="cls-4" d="M195.94,344.84c16.31-1.44,32-14.63,44.1-28.35C234.79,313.85,211.08,304.68,195.94,344.84Z"/><path class="cls-4" d="M246,289.79c.34.54.66,1.11,1,1.68,3.22-1.88,5.09-3.14,5.09-3.14C250,288.86,248,289.33,246,289.79Z"/><path class="cls-4" d="M256.69,287.05a53.64,53.64,0,0,1-8.24,7.57,55.37,55.37,0,0,1,2.69,8c5.41-7.41,9.3-13.7,11-16.59C260.52,286.35,258.73,286.7,256.69,287.05Z"/><path class="cls-12" d="M246.84,336a166.07,166.07,0,0,1-41,16.05,10.13,10.13,0,0,1,1.85,3s3.5-2.12,4.56-1.17c0,0-.12,2-.33,5.47,7.77-1,20.69-6.39,34.66-13.38C246.7,342.41,246.79,339.12,246.84,336Z"/><path class="cls-5" d="M205,352.24l-1.66.4.93.87A11.26,11.26,0,0,1,205,352.24Z"/><path class="cls-5" d="M372.82,234.28c-2.47.79-17.19,5.63-24.56,11.9l.9-5.48a101.13,101.13,0,0,0-11,11.21c-.11-1.7-1-1.59-1-1.59l-10.26-1.39c-3.82,8.53-25.52,53.26-72.25,82.47.1,3.37.13,6.83.09,10.34l.68-.36c19.63-10.38,39.64-22.73,49.35-29.73,18.25-13.15,36-53.07,36-53.07s30.11-12.29,32.73-20.93l.1-1.86A3.55,3.55,0,0,0,372.82,234.28Z"/><path class="cls-4" d="M239.94,295.33A14.91,14.91,0,0,0,235.6,292c-36.46,6.56-61.21,1.07-61.21,1.07-.22,6.56,3.34,14.15,3.34,14.15C199.18,313.61,225.08,303.06,239.94,295.33Z"/><path class="cls-4" d="M195.94,344.84c16.31-1.44,32-14.63,44.1-28.35C234.79,313.85,211.08,304.68,195.94,344.84Z"/><path class="cls-4" d="M210.87,316.18s-19.55,5.23-24.4,18.87c1.09,9.44,4,9.66,7.1,9.77C195,338.91,199.39,325.4,210.87,316.18Z"/><path class="cls-4" d="M187.32,242.63a51,51,0,0,0-27.14-14.24C161.24,232.36,166.19,244.12,187.32,242.63Z"/><path class="cls-4" d="M146.59,227.28c1.45,2.12,6.81,9.18,15.07,11.76a22.29,22.29,0,0,1-4.7-11.19A60.64,60.64,0,0,0,146.59,227.28Z"/><path class="cls-4" d="M186.41,312.68c-.39,7.2-.47,12.79-.31,17.12,2.76-3,28.84-29.73,55.25-14.84,1.5-1.74,2.93-3.48,4.3-5.2a35.17,35.17,0,0,0-3.33-10.91C231,306,212.62,313.48,186.41,312.68Z"/><path class="cls-4" d="M248.45,294.62a55.37,55.37,0,0,1,2.69,8c5.41-7.41,9.3-13.7,11-16.59-1.63.36-3.42.71-5.46,1.06A53.64,53.64,0,0,1,248.45,294.62Z"/><path class="cls-4" d="M246,289.79c.34.54.66,1.11,1,1.68,3.22-1.88,5.09-3.14,5.09-3.14C250,288.86,248,289.33,246,289.79Z"/><path class="cls-12" d="M172.05,292.1l-3.55-1.05c-4.64,6.64-7.45,22.15-9.12,40.75.59,1.18,1.19,2.35,1.82,3.43A77.24,77.24,0,0,1,172.05,292.1Z"/><path class="cls-4" d="M187.32,242.63a51,51,0,0,0-27.14-14.24C161.24,232.36,166.19,244.12,187.32,242.63Z"/><path class="cls-4" d="M239.94,295.33A14.91,14.91,0,0,0,235.6,292c-36.46,6.56-61.21,1.07-61.21,1.07-.22,6.56,3.34,14.15,3.34,14.15C199.18,313.61,225.08,303.06,239.94,295.33Z"/><path class="cls-4" d="M369.37,184.67c-.09-6-.44-13.5-.45-13.81C369,173.36,369.22,178.37,369.37,184.67Z"/><path class="cls-4" d="M157.84,220.72c-3.5.11-7.53,2.87-7.53,2.87,19.09.31,28.53,8.16,28.53,8.16a25,25,0,0,0-14.53-11.45c6.58-1.27,14.95,3.39,18.56,10.5a40.45,40.45,0,0,0,6.16,9.12c.39-2.35.74-4.84,1-7.47,1.92-19.65-1-45.63-24.49-54.69a52.52,52.52,0,0,0-16.89-3.22c-.57,2.48-1.1,5-1.52,7.22-.8,4.41-1.19,8.13-.73,10,2.06,10.41.74,23.11-.59,30.79C150.4,220.11,157.84,220.72,157.84,220.72Z"/><path class="cls-4" d="M240,316.49c-5.25-2.64-29-11.81-44.1,28.35C212.25,343.4,227.93,330.21,240,316.49Z"/><path class="cls-4" d="M186.41,312.68c-.39,7.2-.47,12.79-.31,17.12,2.76-3,28.84-29.73,55.25-14.84,1.5-1.74,2.93-3.48,4.3-5.2a35.17,35.17,0,0,0-3.33-10.91C231,306,212.62,313.48,186.41,312.68Z"/><path class="cls-4" d="M186.47,335.05c1.09,9.44,4,9.66,7.1,9.77,1.44-5.91,5.82-19.42,17.3-28.64C210.87,316.18,191.32,321.41,186.47,335.05Z"/><path class="cls-4" d="M246,289.79c.34.54.66,1.11,1,1.68,3.22-1.88,5.09-3.14,5.09-3.14C250,288.86,248,289.33,246,289.79Z"/><path class="cls-4" d="M146.59,227.28c1.45,2.12,6.81,9.18,15.07,11.76a22.29,22.29,0,0,1-4.7-11.19A60.64,60.64,0,0,0,146.59,227.28Z"/><path class="cls-4" d="M256.69,287.05a53.64,53.64,0,0,1-8.24,7.57,55.37,55.37,0,0,1,2.69,8c5.41-7.41,9.3-13.7,11-16.59C260.52,286.35,258.73,286.7,256.69,287.05Z"/><path class="cls-4" d="M174.92,278a16,16,0,0,1,4.16.25c-18.47-9.29,3.51-24.65,6.65-24.65.16-.44.33-1,.5-1.54.54-1.73,1.12-3.92,1.68-6.47.12-.54.24-1.11.36-1.66-5.17,1.29-31.24,6.59-44-14.49-2,6.57-5.17,16.33-8,37.74-3.89,32.75,7.64,46,7.64,46a113.71,113.71,0,0,1,9.67,9.57C156.81,297.57,163.54,278.79,174.92,278Z"/><path class="cls-4" d="M243.71,316.39s0,0,0,0h0c-42.57,51.86-61.37,30.48-60.18,20.34.88-7.58-.22-21.31-.48-24.31-11.74-1.46-11.58-6.68-11-20.35l-3.55-1.05c-4.64,6.64-7.45,22.15-9.12,40.75.59,1.18,1.19,2.35,1.82,3.43,12.28,21.44,30.7,26.11,48.83,24.26.61-.06,1.22-.1,1.83-.18,7.76-1,20.72-6.38,34.72-13.39.12-3.51.21-6.8.26-9.93a184.56,184.56,0,0,0-.69-22.61C245.33,314.4,244.51,315.42,243.71,316.39Z"/><path class="cls-4" d="M239.94,295.33A14.91,14.91,0,0,0,235.6,292c-36.46,6.56-61.21,1.07-61.21,1.07-.22,6.56,3.34,14.15,3.34,14.15C199.18,313.61,225.08,303.06,239.94,295.33Z"/><path class="cls-4" d="M186.47,335.05c1.09,9.44,4,9.66,7.1,9.77,1.44-5.91,5.82-19.42,17.3-28.64C210.87,316.18,191.32,321.41,186.47,335.05Z"/><path class="cls-4" d="M157.84,220.72c-3.5.11-7.53,2.87-7.53,2.87,19.09.31,28.53,8.16,28.53,8.16a25,25,0,0,0-14.53-11.45c6.58-1.27,14.95,3.39,18.56,10.5a40.45,40.45,0,0,0,6.16,9.12c.39-2.35.74-4.84,1-7.47,1.92-19.65-1-45.63-24.49-54.69a52.52,52.52,0,0,0-16.89-3.22c-.57,2.48-1.1,5-1.52,7.22-.8,4.41-1.19,8.13-.73,10,2.06,10.41.74,23.11-.59,30.79C150.4,220.11,157.84,220.72,157.84,220.72Z"/><path class="cls-4" d="M240,316.49c-5.25-2.64-29-11.81-44.1,28.35C212.25,343.4,227.93,330.21,240,316.49Z"/><path class="cls-4" d="M187.32,242.63a51,51,0,0,0-27.14-14.24C161.24,232.36,166.19,244.12,187.32,242.63Z"/><path class="cls-4" d="M186.41,312.68c-.39,7.2-.47,12.79-.31,17.12,2.76-3,28.84-29.73,55.25-14.84,1.5-1.74,2.93-3.48,4.3-5.2a35.17,35.17,0,0,0-3.33-10.91C231,306,212.62,313.48,186.41,312.68Z"/><path class="cls-4" d="M256.69,287.05a53.64,53.64,0,0,1-8.24,7.57,55.37,55.37,0,0,1,2.69,8c5.41-7.41,9.3-13.7,11-16.59C260.52,286.35,258.73,286.7,256.69,287.05Z"/><path class="cls-4" d="M246,289.79c.34.54.66,1.11,1,1.68,3.22-1.88,5.09-3.14,5.09-3.14C250,288.86,248,289.33,246,289.79Z"/><path class="cls-4" d="M146.59,227.28c1.45,2.12,6.81,9.18,15.07,11.76a22.29,22.29,0,0,1-4.7-11.19A60.64,60.64,0,0,0,146.59,227.28Z"/><path class="cls-4" d="M243.71,316.39s0,0,0,0h0c-42.57,51.86-61.37,30.48-60.18,20.34.88-7.58-.22-21.31-.48-24.31-11.74-1.46-11.58-6.68-11-20.35l-3.55-1.05c-4.64,6.64-7.45,22.15-9.12,40.75.59,1.18,1.19,2.35,1.82,3.43,12.28,21.44,30.7,26.11,48.83,24.26.61-.06,1.22-.1,1.83-.18,7.76-1,20.72-6.38,34.72-13.39.12-3.51.21-6.8.26-9.93a184.56,184.56,0,0,0-.69-22.61C245.33,314.4,244.51,315.42,243.71,316.39Z"/><path class="cls-4" d="M174.92,278a16,16,0,0,1,4.16.25c-18.47-9.29,3.51-24.65,6.65-24.65.16-.44.33-1,.5-1.54.54-1.73,1.12-3.92,1.68-6.47.12-.54.24-1.11.36-1.66-5.17,1.29-31.24,6.59-44-14.49-2,6.57-5.17,16.33-8,37.74-3.89,32.75,7.64,46,7.64,46a113.71,113.71,0,0,1,9.67,9.57C156.81,297.57,163.54,278.79,174.92,278Z"/><path class="cls-1" d="M322,70.11,274.72,25.57l-66.61,46s-6.36,56.85-5.3,77.85c39.24-2.34,112.43,5.1,112.43,5.1C314.6,149,322,70.11,322,70.11Zm-45,65.42-18.95-8.21c-2,3-1.69,15.42-1.69,15.42h-4c-1.14-4.81,2-16,2-16-1.39-.29-20.82,1.27-20.82,1.27.42-2.4,3.54-8.77,3.54-8.77-5.1-3.39-16.41-18.24-16.41-18.24l4.81-.56c-1.13-3.26-1.84-16.13-1.84-16.13,1.7,1.28,12.87,5.38,12.87,5.38-.14-1.56,1.41-5.24,1.41-5.24,2,3.54,9.9,11.6,9.9,11.6-.28-8.48,0-24.18,0-24.18l5.66,5.51C257,70.76,263.48,64,263.48,64c.71,5.66,5.51,16,5.51,16l8.91-2.83c-2.54,4.67-6.08,20.65-6.08,20.65l13-7.64c.15,2.41.15,5.94.15,5.94l14.42-3.39L292,107.1c2.41,1.27,8.63,2,8.63,2-4.66,3.68-25.6,16.26-25.6,16.26Z"/><path class="cls-13" d="M208.11,71.6,63.23,178.09c60.25-26.52,139.58-28.64,139.58-28.64C201.75,128.45,208.11,71.6,208.11,71.6Z"/><path class="cls-13" d="M322,70.11s-7.43,78.93-6.79,84.44c0,0,85.06,14,128.33,30.75Z"/><path class="cls-13" d="M292,107.1l7.36-14.42L285,96.07s0-3.53-.15-5.94l-13,7.64s3.54-16,6.08-20.65L269,80s-4.8-10.32-5.51-16c0,0-6.51,6.79-9.9,13.43l-5.66-5.51s-.28,15.7,0,24.18c0,0-7.92-8.06-9.9-11.6,0,0-1.55,3.68-1.41,5.24,0,0-11.17-4.1-12.87-5.38,0,0,.71,12.87,1.84,16.13l-4.81.56s11.31,14.85,16.41,18.24c0,0-3.12,6.37-3.54,8.77,0,0,19.43-1.56,20.82-1.27,0,0-3.15,11.17-2,16h4s-.29-12.45,1.69-15.42l18.95,8.21-2-10.19s20.94-12.58,25.6-16.26C300.67,109.08,294.45,108.37,292,107.1Z"/><path class="cls-6" d="M368.92,170.86c0,.31.36,7.77.45,13.81.29,11.88.43,28.31-.46,41.12h0c79-6.95,97.22-20.2,97.22-20.2-26.86-25.45-97.21-34.77-97.22-34.77A.06.06,0,0,0,368.92,170.86Z"/><path class="cls-6" d="M142.69,220.87a88.55,88.55,0,0,0,1-18.67c-1-13.68-2.33-18,4.21-39.54q.5-1.64,1.05-3.39c.21-.68.44-1.39.66-2.08C89,167.41,42.87,194.3,42.87,194.3,66,216.91,130.81,220.42,142.69,220.87Z"/><path d="M368.92,170.86a.06.06,0,0,1,0,0h0S368.91,170.85,368.92,170.86Z"/><path class="cls-4" d="M289.65,155.32l4.06.47Z"/><path class="cls-4" d="M259.79,152.56l4.7.35Z"/><path class="cls-4" d="M238.74,151.37c4.43.17,8.83.39,13.17.66C247.57,151.76,243.17,151.54,238.74,151.37Z"/><path class="cls-4" d="M266.27,153.06l4.35.37Z"/><path class="cls-4" d="M252.92,152.09c1.79.12,3.58.23,5.35.36C256.5,152.32,254.71,152.21,252.92,152.09Z"/><path class="cls-4" d="M284.11,154.72l4,.44Z"/><path class="cls-4" d="M272.42,153.58l4.2.39Z"/><path class="cls-4" d="M278.37,154.14l4.1.41Z"/><path class="cls-4" d="M294.93,155.93l4.16.5Z"/><path class="cls-4" d="M232.26,151.15q3,.07,6,.2Q235.28,151.23,232.26,151.15Z"/><path class="cls-4" d="M199.81,151.38l3.84-.17Z"/><path class="cls-4" d="M225.75,151c1.6,0,3.2.06,4.8.1C229,151.07,227.35,151,225.75,151Z"/><path class="cls-4" d="M187.07,152.23l3.8-.32Z"/><path class="cls-4" d="M172.7,153.9c1.94-.29,3.92-.55,5.91-.8C176.62,153.35,174.64,153.61,172.7,153.9Z"/><path class="cls-4" d="M180.58,152.88l4.1-.44Z"/><path class="cls-4" d="M206.25,151.13c1.3,0,2.61-.07,3.92-.09C208.86,151.06,207.55,151.09,206.25,151.13Z"/><path class="cls-4" d="M219.23,151l4.33,0Z"/><path class="cls-4" d="M212.73,151q2,0,4.08,0Q214.77,151,212.73,151Z"/><path class="cls-4" d="M193.43,151.74c1.26-.09,2.51-.17,3.78-.24C195.94,151.57,194.69,151.65,193.43,151.74Z"/><path class="cls-4" d="M142.69,220.87a88.55,88.55,0,0,0,1-18.67c-1-13.68-2.33-18,4.21-39.54q.5-1.64,1.05-3.39c.21-.68.44-1.39.66-2.08C89,167.41,42.87,194.3,42.87,194.3,66,216.91,130.81,220.42,142.69,220.87Z"/><path class="cls-4" d="M319,159.11l1.75.26Z"/><path class="cls-4" d="M322,70.11,274.72,25.57l-66.61,46L63.23,178.09c60.25-26.52,139.58-28.64,139.58-28.64,39.24-2.34,112.43,5.1,112.43,5.1s85.06,14,128.33,30.75Z"/><path class="cls-4" d="M368.92,170.86c0,.31.36,7.77.45,13.81.29,11.88.43,28.31-.46,41.12h0c79-6.95,97.22-20.2,97.22-20.2-26.86-25.45-97.21-34.77-97.22-34.77A.06.06,0,0,0,368.92,170.86Z"/><path class="cls-4" d="M325.45,160.1l.84.13Z"/><path class="cls-4" d="M322.36,159.62l1.39.22Z"/><path class="cls-4" d="M328.08,160.52l.35,0Z"/><path class="cls-4" d="M315,158.54l2.25.32Z"/><path class="cls-4" d="M300,156.54c4.92.61,9.44,1.22,13.47,1.78C309.46,157.76,304.93,157.15,300,156.54Z"/><path class="cls-3" d="M341.24,178.54v0c-.09-.26-.2-.52-.29-.77.13.37.27.75.38,1.12C341.29,178.75,341.27,178.65,341.24,178.54Z"/><path class="cls-3" d="M338.85,172.64a2,2,0,0,1-.1-.21c-.07-.13-.15-.26-.21-.4l.53,1.1C339,173,338.93,172.8,338.85,172.64Z"/><path class="cls-3" d="M340.16,175.56a.5.5,0,0,1-.05-.13l-.28-.61c.16.38.32.76.47,1.14C340.25,175.83,340.21,175.69,340.16,175.56Z"/><path class="cls-3" d="M337.37,169.81l-.14-.26c-.05-.1-.11-.18-.16-.27.19.33.36.67.55,1C337.53,170.13,337.45,170,337.37,169.81Z"/><path class="cls-3" d="M342,181.58c0-.25-.13-.49-.19-.73.07.29.16.58.21.87C342,181.67,342,181.62,342,181.58Z"/><path class="cls-3" d="M335.76,167.08l-.15-.27-.06-.08c.15.23.28.48.43.71C335.91,167.32,335.84,167.2,335.76,167.08Z"/><path class="cls-3" d="M334.17,164.6c-.07-.1-.13-.2-.19-.3-.57-.83-1.14-1.64-1.69-2.39.55.75,1.11,1.55,1.67,2.38Z"/><path class="cls-11" d="M337.62,170.29c.32.57.62,1.15.92,1.74C338.24,171.44,337.94,170.86,337.62,170.29Z"/><path class="cls-11" d="M334.17,164.6q.69,1,1.38,2.13Q334.86,165.64,334.17,164.6Z"/><path class="cls-11" d="M336,167.44c.37.6.73,1.21,1.09,1.84C336.71,168.65,336.35,168,336,167.44Z"/><path class="cls-11" d="M341.32,178.85c.2.67.37,1.34.52,2C341.69,180.19,341.52,179.52,341.32,178.85Z"/><path class="cls-11" d="M342.46,184.56a24,24,0,0,0-.41-2.84,24.09,24.09,0,0,1,.36,2.49C342.42,184.33,342.45,184.45,342.46,184.56Z"/><path class="cls-11" d="M340.3,176c.23.59.44,1.18.64,1.77C340.74,177.14,340.53,176.55,340.3,176Z"/><path class="cls-11" d="M339.07,173.13c.26.56.52,1.12.76,1.69C339.59,174.25,339.33,173.69,339.07,173.13Z"/><path class="cls-5" d="M342.46,184.56c0-.11,0-.23,0-.35a24.09,24.09,0,0,0-.36-2.49c-.05-.29-.14-.58-.21-.87-.15-.66-.32-1.33-.52-2-.11-.37-.25-.75-.38-1.12-.2-.59-.41-1.18-.64-1.77-.15-.38-.31-.76-.47-1.14-.24-.57-.5-1.13-.76-1.69l-.53-1.1c-.3-.59-.6-1.17-.92-1.74-.19-.34-.36-.68-.55-1-.36-.63-.72-1.24-1.09-1.84-.15-.23-.28-.48-.43-.71q-.69-1.09-1.38-2.13l-.21-.31c-.56-.83-1.12-1.63-1.67-2.38l-.59-.8-3.27-.54-.35,0-1.79-.29-.84-.13-1.7-.26-1.39-.22-1.66-.25-1.75-.26-1.69-.25-2.25-.32-1.53-.22c-4-.56-8.55-1.17-13.47-1.78l-.92-.11-4.16-.5-1.22-.14-4.06-.47-1.5-.16-4-.44-1.64-.17-4.1-.41-1.75-.17-4.2-.39-1.8-.15-4.35-.37-1.78-.15-4.7-.35-1.52-.11c-1.77-.13-3.56-.24-5.35-.36l-1-.06c-4.34-.27-8.74-.49-13.17-.66l-.46,0q-3-.12-6-.2l-1.71,0c-1.6,0-3.2-.08-4.8-.1l-2.19,0-4.33,0h-2.42q-2,0-4.08,0l-2.56,0c-1.31,0-2.62.05-3.92.09l-2.6.08-3.84.17-2.6.12c-1.27.07-2.52.15-3.78.24l-2.56.17-3.8.32c-.8.07-1.6.13-2.39.21l-4.1.44-2,.22c-2,.25-4,.51-5.91.8.26.35.87,1.2,1.69,2.46a111.41,111.41,0,0,1,9.7,18.91,436.09,436.09,0,0,1,57.22-1.91,127.26,127.26,0,0,1,44.23-15.27S311.13,167,322,179.15c0,0-3.9,0-10.42.38Q326.39,181.63,342.46,184.56Z"/><path d="M223.56,151l2.19,0Z"/><path d="M210.17,151l2.56,0Z"/><path d="M216.81,151h0Z"/><path d="M299.09,156.43l.92.11Z"/><path d="M184.68,152.44c.79-.08,1.59-.14,2.39-.21C186.27,152.3,185.47,152.36,184.68,152.44Z"/><path d="M203.65,151.21l2.6-.08Z"/><path d="M178.61,153.1l2-.22Z"/><path d="M197.21,151.5l2.6-.12Z"/><path d="M190.87,151.91l2.56-.17Z"/><path d="M276.62,154l1.75.17Z"/><path d="M282.47,154.55l1.64.17Z"/><path d="M270.62,153.43l1.8.15Z"/><path d="M317.26,158.86l1.69.25Z"/><path d="M293.71,155.79l1.22.14Z"/><path d="M288.15,155.16l1.5.16Z"/><path d="M313.48,158.32l1.53.22Z"/><path d="M323.75,159.84l1.7.26Z"/><path d="M238.28,151.35l.46,0Z"/><path d="M230.55,151.11l1.71,0Z"/><path d="M326.29,160.23l1.79.29Z"/><path d="M251.91,152l1,.06Z"/><path d="M320.7,159.37l1.66.25Z"/><path d="M258.27,152.45l1.52.11Z"/><path d="M264.49,152.91l1.78.15Z"/><path class="cls-4" d="M186.47,335.05c1.09,9.44,4,9.66,7.1,9.77,1.44-5.91,5.82-19.42,17.3-28.64C210.87,316.18,191.32,321.41,186.47,335.05Z"/><path class="cls-4" d="M239.94,295.33A14.91,14.91,0,0,0,235.6,292c-36.46,6.56-61.21,1.07-61.21,1.07-.22,6.56,3.34,14.15,3.34,14.15C199.18,313.61,225.08,303.06,239.94,295.33Z"/><path class="cls-4" d="M240,316.49c-5.25-2.64-29-11.81-44.1,28.35C212.25,343.4,227.93,330.21,240,316.49Z"/><path class="cls-4" d="M187.32,242.63a51,51,0,0,0-27.14-14.24C161.24,232.36,166.19,244.12,187.32,242.63Z"/><path class="cls-4" d="M146.31,187.49c0,.2,0,.37,0,.56-.05.6-.07,1.17-.07,1.67,0,.15,0,.3,0,.44a7.46,7.46,0,0,0,.18,1.57c.23,1.18.41,2.39.56,3.62,0,.22.05.44.08.66.13,1.18.23,2.38.3,3.58l0,.7c.06,1.24.1,2.48.1,3.73h0c0,1.28,0,2.54-.09,3.8,0,.18,0,.36,0,.54-.06,1.22-.13,2.42-.23,3.6l0,.44c-.21,2.5-.49,4.86-.8,7v0c-.16,1.1-.33,2.13-.49,3.09,4.6-2.41,12-1.8,12-1.8-3.5.11-7.53,2.87-7.53,2.87,19.09.31,28.53,8.16,28.53,8.16a25,25,0,0,0-14.53-11.45c6.58-1.27,14.95,3.39,18.56,10.5a40.45,40.45,0,0,0,6.16,9.12c.39-2.35.74-4.84,1-7.47,1.92-19.65-1-45.63-24.49-54.69a52.34,52.34,0,0,0-16.75-3.21,107.7,107.7,0,0,0-2.32,11.63C146.41,186.62,146.34,187.08,146.31,187.49Z"/><path class="cls-4" d="M143.7,202.2c-1-13.68-2.33-18,4.21-39.54q.5-1.64,1.05-3.39c.21-.68.44-1.39.66-2.08C89,167.41,42.87,194.3,42.87,194.3c23.08,22.61,87.94,26.12,99.82,26.57A88.55,88.55,0,0,0,143.7,202.2Z"/><path class="cls-4" d="M186.41,312.68c-.39,7.2-.47,12.79-.31,17.12,2.76-3,28.84-29.73,55.25-14.84,1.5-1.74,2.93-3.48,4.3-5.2a35.17,35.17,0,0,0-3.33-10.91C231,306,212.62,313.48,186.41,312.68Z"/><path class="cls-4" d="M161.66,239a22.29,22.29,0,0,1-4.7-11.19,60.64,60.64,0,0,0-10.37-.57C148,229.4,153.4,236.46,161.66,239Z"/><path class="cls-4" d="M188.39,257.22S165,262.51,180,275.77c0,0-1.28-4,.69-7.26,0,0,4.56,11,9.17,13.34a63,63,0,0,1-6.34-1.76c2.57,1.82,3.52,4.55,1.86,7.1-3,4.56-11.64.35-11.64.35a5.07,5.07,0,0,0-2.66.87c4.29,1.14,25.2,5.95,57.84,1.51a50.25,50.25,0,0,0-13,.24c-8.34.84-9.9-4.25-5.09-7.36s23.19-2.08,23.19-2.08a17.47,17.47,0,0,1,10.13,6.57,249.46,249.46,0,0,0,28.41-7.7c-5.65-1-9.26-4.77-2.4-6s15.91,1.91,17.39,8.49a17,17,0,0,0-14.14-4.74s7,3.76-7.08,7.67c-4.92,7.61-9.59,14.34-14,20.34l-.42.56a141,141,0,0,1,2.73,25.54c.1,3.37.13,6.83.09,10.34l.68-.36c19.63-10.38,39.64-22.73,49.35-29.73,18.25-13.15,36-53.07,36-53.07s30.11-12.29,32.73-20.93a3.7,3.7,0,0,0,.1-1.86,3.55,3.55,0,0,0-.81-1.51,5.69,5.69,0,0,0-1.16-1c-6.27-4.24-15.36,1.33-22.5,7.46a101.13,101.13,0,0,0-11,11.21c-.11-1.7-1-1.59-1-1.59l-10.26-1.39-.49-.07v-9.61s1.51-4.46,3.61-10.86c.32-1,.63-1.94,1-3l.33-1c.15-.45.29-.9.44-1.36.27-.82.53-1.64.8-2.49l.3-.91c.24-.75.47-1.5.72-2.27.07-.23.15-.47.23-.71.31-1,.63-2,.95-3l.15-.49.81-2.61.24-.76c.31-1,.62-2,.92-3l.15-.5c.26-.85.51-1.7.76-2.53.08-.26.15-.51.23-.76l.83-2.84c0-.16.09-.33.14-.49.23-.79.45-1.56.66-2.32.07-.24.14-.49.2-.73.25-.87.48-1.72.7-2.53l.08-.32c.19-.71.37-1.4.53-2.06.06-.22.11-.43.16-.64.18-.73.35-1.43.5-2.08l0-.15c.14-.6.25-1.16.35-1.68l.09-.43c.1-.55.19-1.06.24-1.49s-.09-.68-.12-1a24.15,24.15,0,0,0-.38-2.63,30.91,30.91,0,0,0-.79-3v0c-.32-1-.68-2-1.07-2.94a.5.5,0,0,1-.05-.13c-.39-.94-.82-1.87-1.26-2.79a2,2,0,0,1-.1-.21c-.44-.89-.9-1.76-1.38-2.62l-.14-.26c-.48-.85-1-1.67-1.47-2.47l-.15-.27c-1.11-1.76-2.24-3.42-3.32-4.9l-.59-.8-.45-.07-.75-.13-2.07-.34-.35,0-1.79-.29-.84-.13-1.7-.26-1.39-.22-1.66-.25-1.75-.26-1.69-.25-2.25-.32-1.53-.22c-4-.56-8.55-1.17-13.47-1.78l-.92-.11-4.16-.5-1.22-.14-4.06-.47-1.5-.16-4-.44-1.64-.17-4.1-.41-1.75-.17-4.2-.39-1.8-.15-4.35-.37-1.78-.15-4.7-.35-1.52-.11c-1.77-.13-3.56-.24-5.35-.36l-1-.06c-4.34-.27-8.74-.49-13.17-.66l-.46,0q-3-.12-6-.2l-1.71,0c-1.6,0-3.2-.08-4.8-.1l-2.19,0-4.33,0h-2.42q-2,0-4.08,0l-2.56,0c-1.31,0-2.62.05-3.92.09l-2.6.08-3.84.17-2.6.12c-1.27.07-2.52.15-3.78.24l-2.56.17-3.8.32c-.8.07-1.6.13-2.39.21l-4.1.44-2,.22c-2,.25-4,.51-5.91.8a102.4,102.4,0,0,1,11.39,21.37A126,126,0,0,1,188.39,257.22Z"/><path class="cls-4" d="M274.72,25.57l-66.61,46L63.23,178.09c60.25-26.52,139.58-28.64,139.58-28.64,39.24-2.34,112.43,5.1,112.43,5.1s85.06,14,128.33,30.75L322,70.11Z"/><path class="cls-4" d="M369.37,184.67c.29,11.88.43,28.31-.46,41.12h0c79-6.95,97.22-20.2,97.22-20.2-26.86-25.45-97.21-34.77-97.22-34.77s0,0,0,0C368.93,171.17,369.28,178.63,369.37,184.67Z"/><path class="cls-4" d="M256.69,287.05a53.64,53.64,0,0,1-8.24,7.57,55.37,55.37,0,0,1,2.69,8c5.41-7.41,9.3-13.7,11-16.59C260.52,286.35,258.73,286.7,256.69,287.05Z"/><path class="cls-4" d="M243.71,316.39s0,0,0,0h0c-42.57,51.86-61.37,30.48-60.18,20.34.88-7.58-.22-21.31-.48-24.31-11.74-1.46-11.58-6.68-11-20.35l-3.55-1.05c-4.64,6.64-7.45,22.15-9.12,40.75.59,1.18,1.19,2.35,1.82,3.43,12.28,21.44,30.7,26.11,48.83,24.26.61-.06,1.22-.1,1.83-.18,7.76-1,20.72-6.38,34.72-13.39.12-3.51.21-6.8.26-9.93a184.56,184.56,0,0,0-.69-22.61C245.33,314.4,244.51,315.42,243.71,316.39Z"/><path class="cls-4" d="M246,289.79c.34.54.66,1.11,1,1.68,3.22-1.88,5.09-3.14,5.09-3.14C250,288.86,248,289.33,246,289.79Z"/><path class="cls-4" d="M174.92,278a16,16,0,0,1,4.16.25c-18.47-9.29,3.51-24.65,6.65-24.65.16-.44.33-1,.5-1.54.54-1.73,1.12-3.92,1.68-6.47.12-.54.24-1.11.36-1.66-5.17,1.29-31.24,6.59-44-14.49-2,6.57-5.17,16.33-8,37.74-3.89,32.75,7.64,46,7.64,46a113.71,113.71,0,0,1,9.67,9.57C156.81,297.57,163.54,278.79,174.92,278Z"/><path d="M342,181.58a24.15,24.15,0,0,1,.38,2.63A24.15,24.15,0,0,0,342,181.58Z"/><path d="M334,164.29c-.56-.83-1.12-1.63-1.67-2.38,1.08,1.48,2.21,3.14,3.32,4.9Q334.79,165.51,334,164.29Z"/><path d="M369.37,184.67c-.09-6-.44-13.5-.45-13.81C369,173.36,369.22,178.37,369.37,184.67Z"/><path d="M147.12,181.76c-.29,1.6-.5,3.06-.66,4.42a107.7,107.7,0,0,1,2.32-11.63h-.14C148.07,177,147.54,179.49,147.12,181.76Z"/><path d="M152.93,158.39h0l.45-1.52c-.11.35-.23.76-.35,1.16C153,158.14,153,158.27,152.93,158.39Z"/><path d="M146.29,219.4c.31-2.13.59-4.49.8-7C146.88,214.91,146.6,217.27,146.29,219.4Z"/><path d="M341.24,178.54a30.91,30.91,0,0,1,.79,3A28.34,28.34,0,0,0,341.24,178.54Z"/><path d="M342.46,184.56c0-.11,0-.23,0-.35,0,.34.11.68.12,1C342.52,185,342.47,184.78,342.46,184.56Z"/><path d="M331,225.43c-.34,1-.65,2-1,3C330.33,227.44,330.65,226.45,331,225.43Z"/><path class="cls-4" d="M349.16,240.7l-.09.09.13-.12Z"/><path class="cls-4" d="M293.3,319.36l-1,.62Z"/><path class="cls-4" d="M346.86,242.76l.11-.1Z"/><path class="cls-4" d="M341.23,248.41l.15-.16Z"/><path class="cls-4" d="M296,317.63l-1,.61Z"/><path class="cls-4" d="M344.74,244.78l.16-.15Z"/><path class="cls-4" d="M342.85,246.7l.17-.18Z"/><path class="cls-4" d="M339.92,249.85l.1-.12A1.27,1.27,0,0,1,339.92,249.85Z"/><path class="cls-4" d="M287.5,323c-.37.21-.73.44-1.1.67Z"/><path class="cls-4" d="M331.32,224.41c.07-.2.13-.41.2-.61-.14.41-.27.81-.4,1.22C331.19,224.82,331.25,224.62,331.32,224.41Z"/><path class="cls-4" d="M338.34,251.67l0,0Z"/><path class="cls-4" d="M290.48,321.14l-1.07.66Z"/><path class="cls-4" d="M353.24,237.45l.58-.4Z"/><path class="cls-4" d="M359,233.9l.64-.31Z"/><path class="cls-4" d="M357.53,234.67l.63-.35Z"/><path class="cls-4" d="M342.16,258l-.12,0Z"/><path class="cls-4" d="M341.17,258.42l-.12.05Z"/><path class="cls-4" d="M361.86,232.67l.64-.22Z"/><path class="cls-4" d="M360.42,233.23c.21-.1.43-.18.64-.27C360.85,233.05,360.63,233.13,360.42,233.23Z"/><path class="cls-4" d="M300.77,314.45l-.69.46Z"/><path class="cls-4" d="M351.86,238.5l.53-.41Z"/><path class="cls-4" d="M302.88,313l-.55.39Z"/><path class="cls-4" d="M350.5,239.58l.42-.34Z"/><path class="cls-4" d="M298.47,316l-.89.58Z"/><path class="cls-4" d="M332.86,219.65l.48-1.54c-.2.65-.41,1.29-.61,1.93C332.77,219.91,332.81,219.78,332.86,219.65Z"/><path class="cls-4" d="M354.66,236.46l.6-.4Z"/><path class="cls-4" d="M356.09,235.52l.62-.37Z"/><path class="cls-4" d="M281.18,326.83l-1.15.69Z"/><path class="cls-4" d="M146.29,219.4v0c-.16,1.1-.33,2.13-.49,3.09h0c.49-2.81,1-6.29,1.28-10.1C146.88,214.92,146.6,217.28,146.29,219.4Z"/><path class="cls-4" d="M211.92,359.3h0Z"/><path class="cls-4" d="M159.38,331.8l.16.3c0-.1-.11-.2-.16-.31Z"/><path class="cls-4" d="M144.23,229.44c-2,6.57-5.17,16.33-8,37.74,3.06-21.37,6-31.16,8-37.74Z"/><path class="cls-4" d="M144.05,313.39l-.21-.18Z"/><path class="cls-4" d="M333.81,216.67c.31-1,.63-2,.95-3l0-.1c-.35,1.12-.71,2.24-1.06,3.34C333.76,216.82,333.78,216.74,333.81,216.67Z"/><path class="cls-4" d="M274.41,330.83l-1.15.66Z"/><path class="cls-4" d="M267.14,335l-.85.48Z"/><path class="cls-4" d="M270.89,332.85l-1.11.64Z"/><path class="cls-4" d="M222.65,356.46l-.07,0Z"/><path class="cls-4" d="M277.82,328.83l-1.13.67Z"/><path class="cls-4" d="M263.13,337.21l-.4.22Z"/><path class="cls-4" d="M215.34,358.66l-.55.12Z"/><path class="cls-4" d="M339,199.66c.23-.79.45-1.56.66-2.32l.05-.17c-.25.88-.51,1.79-.77,2.72Z"/><path class="cls-4" d="M148.78,174.55h-.14c-.57,2.48-1.1,5-1.52,7.22-.21,1.15-.37,2.21-.5,3.23.46-3.08,1.25-6.74,2.16-10.44Z"/><path class="cls-4" d="M338.85,200.15l0-.08-.48,1.62Z"/><path class="cls-4" d="M334,164.29c-.56-.83-1.12-1.63-1.67-2.38.55.75,1.12,1.56,1.69,2.39Z"/><path class="cls-4" d="M147.12,212l0,.35c.11-1.28.2-2.6.26-3.94C147.29,209.6,147.22,210.8,147.12,212Z"/><path class="cls-4" d="M337.79,203.75a.74.74,0,0,0,0-.14c-.15.52-.31,1-.47,1.57C337.51,204.7,337.65,204.22,337.79,203.75Z"/><path class="cls-4" d="M335.72,210.55l.24-.76.42-1.38c-.35,1.15-.71,2.3-1.07,3.45C335.45,211.43,335.59,211,335.72,210.55Z"/><path class="cls-4" d="M147.37,207.79q.07-1.84.09-3.72Q147.45,205.95,147.37,207.79Z"/><path class="cls-4" d="M147,195.35c0,.22.05.44.08.66.13,1.18.23,2.37.3,3.56a58.14,58.14,0,0,0-.94-7.84C146.62,192.91,146.8,194.12,147,195.35Z"/><path class="cls-4" d="M146.2,189.72c0,.15,0,.3,0,.44h0c0-.14,0-.3,0-.45Z"/><path class="cls-4" d="M146.31,187.49c0,.2,0,.37,0,.56h0c0-.19,0-.37,0-.57Z"/><path class="cls-4" d="M284.42,324.88l-1.18.71Z"/><path class="cls-4" d="M338.94,251l.07-.08Z"/><path class="cls-4" d="M362,248.07h0Z"/><path class="cls-4" d="M364.88,246.27l-.22.14Z"/><path class="cls-4" d="M367.34,244.54l0,0Z"/><path class="cls-4" d="M371.66,233.24a6.46,6.46,0,0,1,.73.59A5.67,5.67,0,0,0,371.66,233.24Z"/><path class="cls-4" d="M356.29,251.3l-.21.11Z"/><path class="cls-4" d="M373.53,237.65h0v0Z"/><path class="cls-4" d="M373.33,235l0,.06Z"/><path class="cls-4" d="M371.44,241l-.17.18Z"/><path class="cls-4" d="M147.36,200.31c.06,1.23.1,2.47.1,3.71C147.46,202.78,147.42,201.54,147.36,200.31Z"/><path class="cls-4" d="M332.29,161.91l-.59-.8-.45-.07-.75-.13-2.07-.34-.35,0-1.79-.29-.84-.13-1.7-.26-1.39-.22-1.66-.25-1.75-.26-1.69-.25-2.25-.32-1.53-.22c-4-.56-8.55-1.17-13.47-1.78l-.92-.11-4.16-.5-1.22-.14-4.06-.47-1.5-.16-4-.44-1.64-.17-4.1-.41-1.75-.17-4.2-.39-1.8-.15-4.35-.37-1.78-.15-4.7-.35-1.52-.11c-1.77-.13-3.56-.24-5.35-.36l-1-.06c-4.34-.27-8.74-.49-13.17-.66l-.46,0q-3-.12-6-.2l-1.71,0c-1.6,0-3.2-.08-4.8-.1l-2.19,0-4.33,0h-2.42q-2,0-4.08,0l-2.56,0c-1.31,0-2.62.05-3.92.09l-2.6.08-3.84.17-2.6.12c-1.27.07-2.52.15-3.78.24l-2.56.17-3.8.32c-.8.07-1.6.13-2.39.21l-4.1.44-2,.22c-2,.25-4,.51-5.91.8.26.35.87,1.2,1.69,2.46C207.83,154.13,270.17,152.19,332.29,161.91Z"/><path class="cls-4" d="M372.76,239.24l-.06.11Z"/><path class="cls-4" d="M144.1,313.44a111.4,111.4,0,0,1,9.41,9.34h0A109.53,109.53,0,0,0,144.1,313.44Z"/><path class="cls-4" d="M158.2,157.62h0c1.72-1.16,3.09-2,3.09-2a69.79,69.79,0,0,0-7.11,1.11l-.79.16c-.11.35-.23.76-.35,1.16,0,.11-.07.24-.11.36h0l-1.46,4.92a2.67,2.67,0,0,1,.58-.88c.49-1.65.93-3.14,1.3-4.34Z"/><path class="cls-4" d="M363.28,232.23l.63-.15Z"/><path class="cls-4" d="M353.28,252.85l-.06,0Z"/><path class="cls-4" d="M369.54,242.79l0,0Z"/><path class="cls-4" d="M368.92,170.86c.1,2.5.3,7.51.45,13.81.29,11.88.43,28.31-.46,41.12h0c79-6.95,97.22-20.2,97.22-20.2-26.86-25.45-97.21-34.77-97.22-34.77S368.91,170.85,368.92,170.86Z"/><path class="cls-4" d="M348,255.42l-.18.08Z"/><path class="cls-4" d="M364.69,231.93l.61-.09Z"/><path class="cls-4" d="M345.58,256.5l-.11.05Z"/><path class="cls-4" d="M315.24,154.55s85.06,14,128.33,30.75L322,70.11,274.72,25.57l-66.61,46L63.23,178.09c60.25-26.52,139.58-28.64,139.58-28.64C242.05,147.11,315.24,154.55,315.24,154.55Z"/><path class="cls-4" d="M366.07,231.79l.59,0Z"/><path class="cls-4" d="M367.42,231.8l.56,0Z"/><path class="cls-4" d="M143.7,202.2c-1-13.68-2.33-18,4.21-39.54q.5-1.64,1.05-3.39c.21-.68.44-1.39.66-2.08C89,167.41,42.87,194.3,42.87,194.3c23.08,22.61,87.94,26.12,99.82,26.57A88.55,88.55,0,0,0,143.7,202.2Z"/><path class="cls-4" d="M370.09,232.42c.13.06.27.1.4.15C370.36,232.52,370.22,232.48,370.09,232.42Z"/><path class="cls-4" d="M368.76,232l.5.12Z"/><path d="M280,327.52l-2.21,1.31Z"/><path d="M373.52,237.67a6.27,6.27,0,0,1-.76,1.57A6.27,6.27,0,0,0,373.52,237.67Z"/><path d="M276.69,329.5l-2.28,1.33Z"/><path d="M283.24,325.59l-2.06,1.24Z"/><path d="M353.22,252.87c-1.86.95-3.65,1.8-5.26,2.55C349.57,254.67,351.36,253.82,353.22,252.87Z"/><path d="M302.33,313.38l-1.56,1.07Z"/><path d="M300.08,314.91,298.47,316Z"/><path d="M356.08,251.41c-.94.5-1.88,1-2.8,1.44C354.2,252.38,355.13,251.91,356.08,251.41Z"/><path d="M297.58,316.57l-1.6,1.06Z"/><path d="M347.78,255.5l-2.2,1Z"/><path d="M345.47,256.55c-1.37.62-2.5,1.11-3.31,1.46C343,257.66,344.1,257.17,345.47,256.55Z"/><path d="M304.77,311.65c-.59.43-1.22.88-1.89,1.34C303.55,312.53,304.18,312.08,304.77,311.65Z"/><path d="M372.7,239.35a12.39,12.39,0,0,1-1.26,1.6A12.39,12.39,0,0,0,372.7,239.35Z"/><path d="M341.05,258.47l-.25.11Z"/><path d="M342,258.05l-.87.37Z"/><path d="M273.26,331.49l-2.37,1.36Z"/><path d="M369.52,242.81c-.67.57-1.4,1.15-2.18,1.73C368.12,244,368.85,243.38,369.52,242.81Z"/><path d="M289.41,321.8,287.5,323Z"/><path d="M371.27,241.13c-.52.55-1.09,1.1-1.73,1.66C370.18,242.23,370.75,241.68,371.27,241.13Z"/><path d="M362,248.08c-1.85,1.12-3.79,2.2-5.71,3.22C358.21,250.28,360.15,249.2,362,248.08Z"/><path d="M286.4,323.67l-2,1.21Z"/><path d="M367.29,244.58c-.76.57-1.57,1.13-2.41,1.69C365.72,245.71,366.53,245.15,367.29,244.58Z"/><path d="M364.66,246.41c-.85.56-1.73,1.11-2.63,1.66C362.93,247.52,363.81,247,364.66,246.41Z"/><path d="M295,318.24l-1.73,1.12Z"/><path d="M292.31,320l-1.83,1.16Z"/><path d="M147.37,207.83v0c0,.19,0,.39,0,.59h0C147.36,208.19,147.36,208,147.37,207.83Z"/><path d="M330,228.39c-2.1,6.4-3.61,10.86-3.61,10.86s1-2.91,2.47-7.39c.66-2,1.43-4.33,2.24-6.84,0,.14-.09.27-.13.41C330.65,226.45,330.33,227.44,330,228.39Z"/><path d="M334.79,213.55c.18-.56.35-1.12.52-1.69l-.4,1.3Z"/><path d="M370.49,232.57a8.58,8.58,0,0,1,1.17.67A8.58,8.58,0,0,0,370.49,232.57Z"/><path d="M373.33,235a4.35,4.35,0,0,0-.94-1.18c.15.15.3.3.43.45A3.72,3.72,0,0,1,373.33,235Z"/><path d="M331.76,223.05l-.24.75c.39-1.22.8-2.47,1.21-3.76-.06.17-.11.35-.17.52C332.29,221.41,332,222.23,331.76,223.05Z"/><path d="M333.34,218.11c.14-.41.26-.81.39-1.22l-.15.49Z"/><path d="M365.3,231.84c.26,0,.51,0,.77-.05C365.81,231.8,365.56,231.81,365.3,231.84Z"/><path d="M269.78,333.49,267.14,335Z"/><path d="M369.26,232.12a8.22,8.22,0,0,1,.83.3A8.22,8.22,0,0,0,369.26,232.12Z"/><path d="M366.66,231.76c.26,0,.51,0,.76,0C367.17,231.78,366.92,231.76,366.66,231.76Z"/><path d="M368,231.85c.27,0,.52.1.78.15C368.5,232,368.25,231.89,368,231.85Z"/><path d="M342.2,187.15c-.1.52-.21,1.08-.35,1.68l0,.15c-.15.65-.32,1.35-.5,2.08-.05.21-.1.42-.16.64-.16.66-.34,1.35-.53,2.06l-.08.32c-.22.81-.45,1.66-.7,2.53l-.15.56a102.27,102.27,0,0,0,2.83-11.94c0,.43-.14.94-.24,1.49Z"/><path d="M136.2,267.18c-5.09,35.56,7.64,46,7.64,46S132.31,299.93,136.2,267.18Z"/><path d="M147.09,212.32a.31.31,0,0,1,0,.1h0Z"/><path d="M373.36,235.07a3,3,0,0,1,.27.72,3.7,3.7,0,0,1-.1,1.86A3.47,3.47,0,0,0,373.36,235.07Z"/><path class="cls-4" d="M195.94,344.84c16.31-1.44,32-14.63,44.1-28.35C234.79,313.85,211.08,304.68,195.94,344.84Z"/><path class="cls-4" d="M174.43,294.23c.2,6.25,3.3,12.94,3.3,12.94,21.45,6.44,47.35-4.11,62.21-11.84a14.59,14.59,0,0,0-3.24-2.68C205.22,300.42,179.75,295.44,174.43,294.23Z"/><path class="cls-4" d="M186.41,312.68c-.39,7.2-.47,12.79-.31,17.12,2.76-3,28.84-29.73,55.25-14.84,1.5-1.74,2.93-3.48,4.3-5.2a35.17,35.17,0,0,0-3.33-10.91C231,306,212.62,313.48,186.41,312.68Z"/><path class="cls-4" d="M187.32,242.63a51,51,0,0,0-27.14-14.24C161.24,232.36,166.19,244.12,187.32,242.63Z"/><path class="cls-4" d="M210.87,316.18s-19.55,5.23-24.4,18.87c1.09,9.44,4,9.66,7.1,9.77C195,338.91,199.39,325.4,210.87,316.18Z"/><path class="cls-4" d="M248.45,294.62a55.37,55.37,0,0,1,2.69,8c5.41-7.41,9.3-13.7,11-16.59-1.63.36-3.42.71-5.46,1.06A53.64,53.64,0,0,1,248.45,294.62Z"/><path class="cls-4" d="M248.77,289.11l-2.69.9c.29.47.57,1,.85,1.46,3.22-1.88,5.09-3.14,5.09-3.14C250.92,288.61,249.85,288.86,248.77,289.11Z"/><path class="cls-4" d="M146.59,227.28c1.45,2.12,6.81,9.18,15.07,11.76a22.29,22.29,0,0,1-4.7-11.19A60.64,60.64,0,0,0,146.59,227.28Z"/><path class="cls-14" d="M174.39,293c0,.4,0,.8,0,1.21,5.32,1.21,30.79,6.19,62.27-1.58-.37-.23-.7-.49-1.1-.7C199.14,298.51,174.39,293,174.39,293Z"/><path class="cls-14" d="M246,289.79a2.53,2.53,0,0,0,.13.22l2.69-.9Z"/><path d="M233.53,352.08q-2.42,1.07-4.71,2Q231.12,353.15,233.53,352.08Z"/><path d="M256.26,340.93c2.16-1.15,4.32-2.31,6.47-3.5C260.58,338.62,258.42,339.78,256.26,340.93Z"/><path d="M234.36,351.71l-.83.37Z"/><path d="M255.42,341.38l.84-.45c-.51.27-1,.53-1.52.81h0Z"/><path d="M227.77,354.52c-1.77.71-3.49,1.37-5.12,1.94C224.28,355.89,226,355.23,227.77,354.52Z"/><path d="M228.82,354.09c-.35.13-.7.29-1,.43C228.12,354.38,228.47,354.22,228.82,354.09Z"/><path class="cls-4" d="M210.87,316.18s-19.55,5.23-24.4,18.87c1.09,9.44,4,9.66,7.1,9.77C195,338.91,199.39,325.4,210.87,316.18Z"/><path class="cls-4" d="M146.59,227.28c1.45,2.12,6.81,9.18,15.07,11.76a22.29,22.29,0,0,1-4.7-11.19A60.64,60.64,0,0,0,146.59,227.28Z"/><path class="cls-4" d="M182.52,241.86c-.07.3-.41.58-.84.82a48.74,48.74,0,0,0,5.64-.05,45.86,45.86,0,0,0-4.53-4A31.26,31.26,0,0,1,182.52,241.86Z"/><path class="cls-4" d="M195.94,344.84c16.31-1.44,32-14.63,44.1-28.35C234.79,313.85,211.08,304.68,195.94,344.84Z"/><path class="cls-4" d="M239.94,295.33a14.59,14.59,0,0,0-3.24-2.68c-.37-.23-.7-.49-1.1-.7-36.46,6.56-61.21,1.07-61.21,1.07,0,.4,0,.8,0,1.21.2,6.25,3.3,12.94,3.3,12.94C199.18,313.61,225.08,303.06,239.94,295.33Z"/><path class="cls-4" d="M248.45,294.62a55.37,55.37,0,0,1,2.69,8c5.41-7.41,9.3-13.7,11-16.59-1.63.36-3.42.71-5.46,1.06A53.64,53.64,0,0,1,248.45,294.62Z"/><path class="cls-4" d="M186.41,312.68c-.39,7.2-.47,12.79-.31,17.12,2.76-3,28.84-29.73,55.25-14.84,1.5-1.74,2.93-3.48,4.3-5.2a35.17,35.17,0,0,0-3.33-10.91C231,306,212.62,313.48,186.41,312.68Z"/><path class="cls-4" d="M248.77,289.11l-2.82.68a2.53,2.53,0,0,0,.13.22c.29.47.57,1,.85,1.46,3.22-1.88,5.09-3.14,5.09-3.14C250.92,288.61,249.85,288.86,248.77,289.11Z"/><path d="M181.17,235.5A21.22,21.22,0,0,1,182,238c.28.21.56.4.83.62a31.26,31.26,0,0,1-.27,3.27,8.38,8.38,0,0,0,2.61-4Z"/><path class="cls-4" d="M186.41,312.68c-.39,7.2-.47,12.79-.31,17.12,2.76-3,28.84-29.73,55.25-14.84,1.5-1.74,2.93-3.48,4.3-5.2a35.17,35.17,0,0,0-3.33-10.91C231,306,212.62,313.48,186.41,312.68Z"/><path class="cls-4" d="M210.87,316.18s-19.55,5.23-24.4,18.87c1.09,9.44,4,9.66,7.1,9.77C195,338.91,199.39,325.4,210.87,316.18Z"/><path class="cls-4" d="M239.94,295.33a14.59,14.59,0,0,0-3.24-2.68c-.37-.23-.7-.49-1.1-.7-36.46,6.56-61.21,1.07-61.21,1.07,0,.4,0,.8,0,1.21.2,6.25,3.3,12.94,3.3,12.94C199.18,313.61,225.08,303.06,239.94,295.33Z"/><path class="cls-4" d="M195.94,344.84c16.31-1.44,32-14.63,44.1-28.35C234.79,313.85,211.08,304.68,195.94,344.84Z"/><path class="cls-4" d="M248.45,294.62a55.37,55.37,0,0,1,2.69,8c5.41-7.41,9.3-13.7,11-16.59-1.63.36-3.42.71-5.46,1.06A53.64,53.64,0,0,1,248.45,294.62Z"/><path class="cls-4" d="M248.77,289.11l-2.82.68a2.53,2.53,0,0,0,.13.22c.29.47.57,1,.85,1.46,3.22-1.88,5.09-3.14,5.09-3.14C250.92,288.61,249.85,288.86,248.77,289.11Z"/><path class="cls-1" d="M161.66,239a22.29,22.29,0,0,1-4.7-11.19,60.64,60.64,0,0,0-10.37-.57C148,229.4,153.4,236.46,161.66,239Z"/><path d="M472.64,203.05,275.36,16.86,36.84,190.6s-8,28,105,35.58c-1.15,6.3-2.35,10.8-2.35,10.8-15.84,59.11-1.45,76.55-1.45,76.55A172.87,172.87,0,0,1,152.78,329c-3.88,37.05-1,85.14,5.27,111.6,0,0-2.53-58.9.9-103.62,1.53,2.16,3,4.37,4.26,6.6,8.77,15.27,20.37,17,20.37,17l2.18.36c3,63.48,18.47,114.76,18.47,114.76s-.43-12.16,0-19.52c3.14-25.56,6.34-74.89,7.53-94.23,10.37-1.37,20.7-5.21,34.68-12.32-.89,22.86-2.87,53.36-3.89,93.4,0,0,11.07-52.39,12.13-97.72l.22-.11h0c12.82-6.93,28.6-16.17,49.45-28.17,25.17-19.52,38.46-53.74,38.46-53.74,18.53-1.44,41.32-24.35,33.3-33.27C427.37,226.68,466.08,218.78,472.64,203.05ZM208.11,71.6l66.61-46L322,70.11,443.57,185.3c-43.27-16.76-128.33-30.75-128.33-30.75s-73.19-7.44-112.43-5.1c0,0-79.33,2.12-139.58,28.64ZM160.18,228.39a52.35,52.35,0,0,1,22.61,10.2,45.86,45.86,0,0,1,4.53,4,48.74,48.74,0,0,1-5.64.05C165.31,241.89,161.14,232,160.18,228.39ZM161.66,239c-8.26-2.58-13.62-9.64-15.07-11.76a60.64,60.64,0,0,1,10.37.57A22.29,22.29,0,0,0,161.66,239Zm21.21-8.24c-3.61-7.11-12-11.77-18.56-10.5a25,25,0,0,1,14.53,11.45s-9.44-7.85-28.53-8.16c0,0,4-2.76,7.53-2.87,0,0-7.44-.61-12,1.8.16-1,.33-2,.49-3.09v0c.31-2.12.59-4.48.79-7a.31.31,0,0,0,0-.1l0-.35c.1-1.17.17-2.37.23-3.59,0-.2,0-.4,0-.59q.07-1.84.09-3.72v0c0-1.24,0-2.48-.1-3.71l0-.74c-.07-1.19-.17-2.38-.3-3.56,0-.22-.05-.44-.08-.66-.15-1.23-.33-2.44-.56-3.62a7.53,7.53,0,0,1-.18-1.56h0c0-.14,0-.29,0-.44h0c0-.51,0-1.07.07-1.67,0-.19,0-.36,0-.56h0c.07-.77.17-1.6.31-2.49s.29-2.08.5-3.23c.42-2.27.95-4.74,1.52-7.22h.14a52.34,52.34,0,0,1,16.75,3.21c23.49,9.06,26.41,35,24.49,54.69-.25,2.63-.6,5.12-1,7.47A40.45,40.45,0,0,1,182.87,230.8Zm-29.94-72.41c0-.12.08-.25.11-.36.12-.4.24-.81.35-1.16l.79-.16a69.79,69.79,0,0,1,7.11-1.11s-1.37.86-3.09,2a41.9,41.9,0,0,0-6.13,4.81h0a2.67,2.67,0,0,0-.58.88l1.46-4.92ZM42.87,194.3S89,167.41,149.62,157.19c-.22.69-.45,1.4-.66,2.08q-.56,1.75-1.05,3.39c-6.54,21.49-5.24,25.86-4.21,39.54a88.55,88.55,0,0,1-1,18.67C130.81,220.42,66,216.91,42.87,194.3ZM153.51,322.78a111.4,111.4,0,0,0-9.41-9.34l0-.05-.21-.18s-12.73-10.47-7.64-46c2.86-21.41,6-31.17,8-37.74h0c12.8,21.08,38.87,15.78,44,14.49-.12.55-.24,1.12-.36,1.66-.56,2.55-1.14,4.74-1.68,6.47-.17.53-.34,1.1-.5,1.54-3.14,0-25.12,15.36-6.65,24.65a16,16,0,0,0-4.16-.25C163.54,278.79,156.81,297.57,153.51,322.78Zm69.14,33.68-.07,0a71.29,71.29,0,0,1-7.24,2.18l-.55.12c-1,.22-2,.4-2.85.52h0c.21-3.45.33-5.47.33-5.47-1.06-.95-4.56,1.17-4.56,1.17a10.13,10.13,0,0,0-1.85-3l-.27-.33c-.15,0-.35.24-.54.53a11.26,11.26,0,0,0-.73,1.27l-.93-.87-1.09-1a32.07,32.07,0,0,0-2.65,3.28A14.28,14.28,0,0,0,198,352c-.53.32-1.38,4.45-1.38,4.45a12.92,12.92,0,0,0-2.65-5.4,14.84,14.84,0,0,0-2.44,3.6c-.43-1.91-4.24-4.24-4.24-4.24l-.92,1.8-1-1c.05,1.9.11,3.78.19,5.66-.11,0-.21-.08-.32-.12-1-.37-1.93-.76-2.88-1.2l-.86-.43c-.79-.39-1.58-.79-2.35-1.24-.45-.25-.88-.53-1.32-.81-.61-.37-1.22-.76-1.81-1.17s-1.16-.84-1.73-1.29-.88-.67-1.31-1c-.69-.58-1.37-1.2-2-1.84-.3-.28-.6-.55-.9-.84-.76-.76-1.5-1.57-2.24-2.41-.19-.23-.4-.45-.6-.68-.78-.93-1.55-1.92-2.3-3l-.42-.57c-.77-1.08-1.52-2.22-2.25-3.4-.11-.2-.24-.39-.36-.58-.8-1.35-1.59-2.76-2.35-4.25l-.16-.3h0c1.67-18.6,4.48-34.1,9.12-40.74l3.55,1.05c-.6,13.67-.76,18.89,11,20.35.26,3,1.36,16.73.48,24.31-1.19,10.14,17.61,31.52,60.18-20.34h0s0,0,0,0c.8-1,1.62-2,2.44-3a184.56,184.56,0,0,1,.69,22.61c-.05,3.13-.14,6.41-.26,9.92q4-2,8-4.1C243,347.91,231.64,353.29,222.65,356.46Zm17.39-40c-12.11,13.72-27.79,26.91-44.1,28.35C211.08,304.68,234.79,313.85,240,316.49Zm-46.47,28.33c-3.1-.11-6-.33-7.1-9.77,4.85-13.64,24.4-18.87,24.4-18.87C199.39,325.4,195,338.91,193.57,344.82Zm-7.47-15c-.16-4.33-.08-9.92.31-17.12,26.21.8,44.54-6.73,55.91-13.83a35.17,35.17,0,0,1,3.33,10.91c-1.37,1.72-2.8,3.46-4.3,5.2C214.94,300.07,188.86,326.83,186.1,329.8Zm-8.37-22.63s-3.1-6.69-3.3-12.94c0-.41-.06-.81,0-1.21,0,0,24.75,5.49,61.21-1.07.4.21.73.47,1.1.7a14.59,14.59,0,0,1,3.24,2.68C225.08,303.06,199.18,313.61,177.73,307.17Zm69.2-15.7c-.28-.5-.56-1-.85-1.46a2.53,2.53,0,0,1-.13-.22l2.82-.68c1.08-.25,2.15-.5,3.25-.78C252,288.33,250.15,289.59,246.93,291.47Zm9.76-4.42c2-.35,3.83-.7,5.46-1.06-1.71,2.89-5.6,9.18-11,16.59a55.37,55.37,0,0,0-2.69-8A53.64,53.64,0,0,0,256.69,287.05Zm116.84-49.4h0v0a6.27,6.27,0,0,1-.76,1.57l-.06.11a12.39,12.39,0,0,1-1.26,1.6l-.17.18c-.52.55-1.09,1.1-1.73,1.66l0,0c-.67.57-1.4,1.15-2.18,1.73l0,0c-.76.57-1.57,1.13-2.41,1.69l-.22.14c-.85.56-1.73,1.11-2.63,1.66h0c-1.85,1.12-3.79,2.2-5.71,3.22l-.21.11c-.95.5-1.88,1-2.8,1.44l-.06,0c-1.86.95-3.65,1.8-5.26,2.55l-.18.08-2.2,1-.11.05c-1.37.62-2.51,1.11-3.31,1.46l-.12,0-.87.37-.12.05-.25.11s-17.78,39.92-36,53.07c-.59.43-1.22.88-1.89,1.34l-.55.39-1.56,1.07-.69.46L298.47,316l-.89.58-1.6,1.06-1,.61-1.73,1.12-1,.62-1.83,1.16-1.07.66L287.5,323l-1.1.67-2,1.21-1.18.71-2.06,1.24-1.15.69-2.21,1.31-1.13.67-2.28,1.33-1.15.66-2.37,1.36-1.11.64L267.14,335l-.85.48-3.16,1.75-.4.22q-4,2.2-8,4.3c0-3.51,0-7-.09-10.33a141,141,0,0,0-2.73-25.54l.42-.56c4.44-6,9.11-12.73,14-20.34,14.05-3.91,7.08-7.67,7.08-7.67A17,17,0,0,1,287.59,282c-1.48-6.58-10.54-9.76-17.39-8.49s-3.25,5.09,2.4,6a249.46,249.46,0,0,1-28.41,7.7,17.47,17.47,0,0,0-10.13-6.57s-18.38-1-23.19,2.08-3.25,8.2,5.09,7.36a50.25,50.25,0,0,1,13-.24c-32.64,4.44-53.55-.37-57.84-1.51a5.07,5.07,0,0,1,2.66-.87s8.67,4.21,11.64-.35c1.66-2.55.71-5.28-1.86-7.1a63,63,0,0,0,6.34,1.76c-4.61-2.37-9.17-13.34-9.17-13.34-2,3.28-.69,7.26-.69,7.26-15.06-13.26,8.38-18.55,8.38-18.55a126,126,0,0,0-4.3-82,111.41,111.41,0,0,0-9.7-18.91c-.82-1.26-1.43-2.11-1.69-2.46,1.94-.29,3.92-.55,5.91-.8l2-.22,4.1-.44c.79-.08,1.59-.14,2.39-.21l3.8-.32,2.56-.17c1.26-.09,2.51-.17,3.78-.24l2.6-.12,3.84-.17,2.6-.08c1.3,0,2.61-.07,3.92-.09l2.56,0q2,0,4.08,0h2.42l4.33,0,2.19,0c1.6,0,3.2.06,4.8.1l1.71,0q3,.07,6,.2l.46,0c4.43.17,8.83.39,13.17.66l1,.06c1.79.12,3.58.23,5.35.36l1.52.11,4.7.35,1.78.15,4.35.37,1.8.15,4.2.39,1.75.17,4.1.41,1.64.17,4,.44,1.5.16,4.06.47,1.22.14,4.16.5.92.11c4.92.61,9.45,1.22,13.47,1.78l1.53.22,2.25.32,1.69.25,1.75.26,1.66.25,1.39.22,1.7.26.84.13,1.79.29.35,0,2.07.34.75.13.45.07.59.8c.55.75,1.11,1.55,1.67,2.38h0c4,6,8.26,13.83,8.55,20.93a102.27,102.27,0,0,1-2.83,11.94l-.05.17c-.21.76-.43,1.53-.66,2.32l-.06.23a1.21,1.21,0,0,0-.05.18l0,.08-.45,1.54c-.19.64-.37,1.27-.57,1.92a.74.74,0,0,1,0,.14c-.14.47-.28.95-.43,1.43-.32,1.07-.65,2.15-1,3.23l-.42,1.38-.24.76c-.13.44-.27.88-.41,1.31s-.34,1.13-.52,1.69l0,.1c-.32,1-.64,2-.95,3,0,.07-.05.15-.08.22-.13.41-.25.81-.39,1.22l-.48,1.54c-.05.13-.09.26-.13.39-.41,1.29-.82,2.54-1.21,3.76-.07.2-.13.41-.2.61s-.13.41-.2.61c-.81,2.51-1.58,4.84-2.24,6.84-1.48,4.48-2.47,7.39-2.47,7.39v9.61l.49.07,10.26,1.39s.88-.11,1,1.59c0,0,.07-.1.19-.24l0,0c.13-.16.32-.39.57-.67l.07-.08c.25-.3.56-.65.91-1a1.27,1.27,0,0,0,.1-.12l1.21-1.32.15-.16c.45-.49.94-1,1.47-1.55l.17-.18c.54-.56,1.11-1.14,1.72-1.74l.16-.15c.63-.61,1.27-1.23,2-1.87l.11-.1c.67-.62,1.37-1.25,2.1-1.87l.09-.09,0,0,1.3-1.09.42-.34c.31-.25.62-.5.94-.74l.53-.41.85-.64.58-.4.84-.59.6-.4.83-.54.62-.37.82-.48.63-.35c.27-.14.54-.29.82-.42l.64-.31c.26-.13.53-.25.8-.36s.43-.18.64-.27l.8-.29.64-.22.78-.22.63-.15.78-.15.61-.09c.26,0,.51,0,.77-.05l.59,0c.26,0,.51,0,.76,0l.56,0c.27,0,.52.1.78.15l.5.12a8.22,8.22,0,0,1,.83.3c.13.06.27.1.4.15a8.58,8.58,0,0,1,1.17.67,5.67,5.67,0,0,1,.73.59,4.35,4.35,0,0,1,.94,1.18l0,.06A3.47,3.47,0,0,1,373.53,237.65Zm-4.62-11.86h0c.89-12.81.75-29.24.46-41.12-.15-6.3-.35-11.31-.45-13.81,0,0,0,0,0,0s70.36,9.32,97.22,34.77C466.13,205.59,447.89,218.84,368.91,225.79Z"/><path class="cls-5" d="M192.42,353.14l-1.81-.05a3.87,3.87,0,0,1,1,1.59S191.93,354,192.42,353.14Z"/><path class="cls-5" d="M195.39,353.12a12.21,12.21,0,0,1,1.27,3.36s.43-2.11.88-3.43C196.84,353.08,196.12,353.11,195.39,353.12Z"/><path class="cls-5" d="M199.63,354.89s.8-1.11,1.57-2.06c-.72.05-1.58.11-2.53.16A9.69,9.69,0,0,1,199.63,354.89Z"/><path class="cls-5" d="M185.39,352.24l0,0h0Z"/><path class="cls-5" d="M161.53,335.73l.36.62c.12.19.25.38.36.58.73,1.18,1.48,2.32,2.25,3.4l.42.57c.75,1,1.52,2,2.3,3,.2.23.41.45.6.68.74.84,1.48,1.65,2.24,2.41.3.29.6.56.9.84.67.64,1.35,1.26,2,1.84.43.36.87.69,1.31,1s1.14.89,1.73,1.29,1.2.8,1.81,1.17c.44.28.87.56,1.32.81.77.45,1.56.85,2.35,1.24l.86.43c1,.44,1.91.83,2.88,1.2.11,0,.21.09.32.12-.05-1.27-.09-2.55-.13-3.83l-.06-.84S167.31,344.06,161.53,335.73Z"/><path d="M246.58,345.92h0l-.55.28Z"/><path d="M362.5,232.45l.78-.22Z"/><path d="M337.83,203.61c.2-.65.38-1.28.57-1.92-.13.43-.25.86-.38,1.3C338,203.19,337.9,203.4,337.83,203.61Z"/><path d="M336.88,206.78c-.16.54-.33,1.09-.5,1.63.33-1.08.66-2.16,1-3.23l-.33,1.1Z"/><path d="M147.33,199.59v0l0,.74v0Z"/><path d="M146.62,185c-.14.89-.24,1.72-.31,2.49,0-.4.1-.86.15-1.3S146.56,185.39,146.62,185Z"/><path d="M335.76,167.08c.5.8,1,1.62,1.47,2.47l.14.26c.48.86.94,1.73,1.38,2.62a2,2,0,0,0,.1.21c.44.92.87,1.85,1.26,2.79a.5.5,0,0,0,.05.13c.39,1,.75,2,1.07,2.94v0a28.34,28.34,0,0,1,.79,3,24.15,24.15,0,0,1,.38,2.63c0,.12,0,.24,0,.35s.06.45.07.67c-.29-7.1-4.5-14.95-8.55-20.93.54.81,1.08,1.65,1.63,2.51Z"/><path d="M363.91,232.08l.78-.15Z"/><path d="M338.15,251.91l.19-.24C338.22,251.81,338.15,251.91,338.15,251.91Z"/><path d="M338.93,199.89a1.21,1.21,0,0,0-.05.18A1.21,1.21,0,0,1,338.93,199.89Z"/><path d="M338.37,251.64l.57-.67C338.69,251.25,338.5,251.48,338.37,251.64Z"/><path d="M339,250.89c.25-.3.56-.65.91-1C339.57,250.24,339.26,250.59,339,250.89Z"/><path d="M146.2,189.72c0-.51,0-1.07.07-1.67C146.22,188.65,146.2,189.21,146.2,189.72Z"/><path d="M341.38,248.25c.45-.49.94-1,1.47-1.55C342.32,247.25,341.83,247.76,341.38,248.25Z"/><path d="M340,249.73l1.21-1.32Z"/><path d="M222.58,356.48a68.82,68.82,0,0,1-7.24,2.18A71.29,71.29,0,0,0,222.58,356.48Z"/><path d="M266.29,335.46l-3.16,1.75Z"/><path d="M144.1,313.44l0-.05Z"/><path d="M214.79,358.78c-1,.22-2,.4-2.85.52C212.82,359.18,213.78,359,214.79,358.78Z"/><path d="M146.39,191.73a7.44,7.44,0,0,1-.18-1.56A7.53,7.53,0,0,0,146.39,191.73Z"/><path d="M347,242.66c.67-.62,1.38-1.25,2.1-1.87C348.34,241.41,347.64,242,347,242.66Z"/><path d="M353.82,237.05l.84-.59Z"/><path d="M355.26,236.06l.83-.54Z"/><path d="M356.71,235.15l.82-.48Z"/><path d="M359.62,233.59c.26-.13.53-.25.8-.36C360.15,233.34,359.88,233.46,359.62,233.59Z"/><path d="M358.16,234.32c.27-.14.54-.29.82-.42C358.7,234,358.43,234.18,358.16,234.32Z"/><path d="M361.06,233l.8-.29Z"/><path d="M344.9,244.63c.62-.61,1.27-1.23,2-1.87C346.17,243.4,345.53,244,344.9,244.63Z"/><path d="M343,246.52c.54-.56,1.12-1.14,1.72-1.74C344.13,245.38,343.56,246,343,246.52Z"/><path d="M352.39,238.09l.85-.64Z"/><path d="M350.92,239.24c.31-.25.62-.5.94-.74C351.54,238.74,351.23,239,350.92,239.24Z"/><path d="M349.2,240.67l1.3-1.09Z"/><path class="cls-5" d="M154.18,156.71l-.79.16-.45,1.52-1.46,4.92a2.57,2.57,0,0,1,.59-.88,41.9,41.9,0,0,1,6.13-4.81c1.72-1.16,3.09-2,3.09-2A69.79,69.79,0,0,0,154.18,156.71Z"/></svg>